<svg xmlns="http://www.w3.org/2000/svg" viewBox="0 0 484.05 131.01"><defs><style>.cls-1{fill:#fff;}.cls-2{fill:#ffd101;}</style></defs><g id="Layer_2" data-name="Layer 2"><g id="Layer_1-2" data-name="Layer 1"><path class="cls-1" d="M34.43,70.16,28.09,34,21.75,70.16ZM37.17,86H19l-2.89,16H0L20.17,1.15H36L56.18,102H40.05Z"/><path class="cls-1" d="M85.86,103.15q10.38,0,16.71-5.91,7.2-6.92,7.21-18.87V43.65H86V59.5h7.93V78.37q0,5.32-2,7.2c-1.25,1.16-3.26,1.73-6,1.73S81.2,86.73,80,85.57q-2.16-2-2.16-7.2V24.78q0-5.19,2.16-7.2c1.25-1.16,3.22-1.73,5.91-1.73s4.8.57,6,1.73,2,3.64,2,7.2v8.93h15.85V24.78q0-12-7.21-18.87Q96.24,0,85.86,0,75.78,0,69.15,5.91q-7.2,7.2-7.2,18.87V78.37Q62,90,69.15,97.24q6.63,5.91,16.71,5.91"/><path class="cls-1" d="M152.13,25.93q0-5-2.16-7.2Q148.1,17,144.06,17H136V45.67h8.07q4,0,5.91-1.73,2.16-2,2.16-7.2ZM167.54,102H151.41L143.2,61.51H136V102H120.15V1.15h23.91q10.23,0,16.71,6.05Q168,13.83,168,25.93V36.74q0,12.24-7.21,18.87a15.47,15.47,0,0,1-2.3,1.87Z"/><rect class="cls-1" x="177.34" y="1.15" width="15.85" height="100.84"/><path class="cls-2" d="M227.33,103.15q10.36,0,16.71-5.91,7.2-6.92,7.2-18.87V43.65H227.47V59.5h7.93V78.37c0,3.55-.68,5.95-2,7.2s-3.27,1.73-6,1.73-4.66-.57-5.91-1.73q-2.16-2-2.16-7.2V24.78q0-5.19,2.16-7.2c1.25-1.16,3.22-1.73,5.91-1.73s4.8.57,6,1.73,2,3.64,2,7.2v8.93h15.84V24.78q0-12-7.2-18.87Q237.71,0,227.33,0q-10.08,0-16.71,5.91-7.2,7.2-7.2,18.87V78.37q0,11.67,7.2,18.87,6.63,5.91,16.71,5.91"/><path class="cls-2" d="M284.81,103.15q10.08,0,16.71-5.91,7.2-7.2,7.2-18.87V1.15H292.88V78.37q0,5.19-2.16,7.2c-1.25,1.16-3.22,1.73-5.91,1.73s-4.8-.57-6.05-1.73-2-3.65-2-7.2V1.15H260.9V78.37q0,12,7.2,18.87,6.33,5.91,16.71,5.91"/><path class="cls-2" d="M349.49,70.16,343.16,34l-6.34,36.16ZM352.23,86H334.08l-2.88,16H315.06L335.23,1.15h15.85L371.25,102H355.11Z"/><path class="cls-2" d="M411,25.93q0-5-2.16-7.2Q407,17,402.94,17h-8.07V45.67h8.07q4,0,5.91-1.73,2.16-2,2.16-7.2ZM426.42,102H410.29l-8.21-40.49h-7.21V102H379V1.15h23.91q10.23,0,16.71,6.05,7.2,6.63,7.21,18.73V36.74q0,12.24-7.21,18.87a15.47,15.47,0,0,1-2.3,1.87Z"/><path class="cls-2" d="M452.07,17h8.06q4,0,5.91,1.73,2.16,2.16,2.16,7.2V77.79q0,5-2,6.77-1.73,1.59-6.05,1.59h-8.06Zm8.06,85q10.38,0,16.57-5.62a21.49,21.49,0,0,0,5.62-8.07,29.87,29.87,0,0,0,1.73-10.52V25.93q0-12.1-7.21-18.73-6.48-6-16.71-6.05H436.22V102Z"/><polygon class="cls-2" points="143.68 110.4 143.68 130.78 140.48 130.78 140.48 121.93 137.22 121.93 137.22 130.78 134.02 130.78 134.02 110.4 137.22 110.4 137.22 118.72 140.48 118.72 140.48 110.4 143.68 110.4"/><polygon class="cls-2" points="149.21 113.6 149.21 118.72 152.82 118.72 152.82 121.93 149.21 121.93 149.21 127.58 154.46 127.58 154.46 130.78 146.01 130.78 146.01 110.4 154.46 110.4 154.46 113.6 149.21 113.6"/><path class="cls-2" d="M162.61,124.34l-1.28-7.3-1.29,7.3Zm.55,3.21h-3.67l-.58,3.23h-3.26l4.07-20.38h3.21L167,130.78h-3.26Z"/><polygon class="cls-2" points="174.51 110.4 177.78 110.4 173.7 130.78 170.5 130.78 166.42 110.4 169.68 110.4 172.1 124.17 174.51 110.4"/><polygon class="cls-2" points="185.55 123.62 185.55 130.78 182.32 130.78 182.32 123.62 178.39 110.4 181.76 110.4 183.92 117.71 186.13 110.4 189.51 110.4 185.55 123.62"/><path class="cls-2" d="M198.53,113.6h1.63a1.74,1.74,0,0,1,1.2.35,2,2,0,0,1,.43,1.46v10.48a1.79,1.79,0,0,1-.4,1.37,1.85,1.85,0,0,1-1.23.32h-1.63Zm1.63,17.18a4.77,4.77,0,0,0,3.35-1.14,4.21,4.21,0,0,0,1.14-1.63,6.08,6.08,0,0,0,.35-2.12V115.41a4.9,4.9,0,0,0-1.46-3.79,4.77,4.77,0,0,0-3.38-1.22h-4.83v20.38Z"/><path class="cls-2" d="M211.75,131a4.91,4.91,0,0,0,3.38-1.19,5.16,5.16,0,0,0,1.46-3.82V110.4h-3.21V126a2,2,0,0,1-.43,1.46,1.75,1.75,0,0,1-1.2.35,1.78,1.78,0,0,1-1.22-.35,2,2,0,0,1-.41-1.46V110.4h-3.2V126a5,5,0,0,0,1.45,3.82,4.79,4.79,0,0,0,3.38,1.19"/><polygon class="cls-2" points="227.62 113.6 224.36 113.6 224.36 130.78 221.16 130.78 221.16 113.6 217.9 113.6 217.9 110.4 227.62 110.4 227.62 113.6"/><polygon class="cls-2" points="235.48 123.62 235.48 130.78 232.25 130.78 232.25 123.62 228.32 110.4 231.7 110.4 233.85 117.71 236.06 110.4 239.44 110.4 235.48 123.62"/><path class="cls-1" d="M248.47,113.6h1.63a1.73,1.73,0,0,1,1.19.35,2,2,0,0,1,.44,1.46v2.21a1.93,1.93,0,0,1-.44,1.45,1.68,1.68,0,0,1-1.19.35h-1.63Zm0,9h1.63a4.73,4.73,0,0,0,3.37-1.2,4.91,4.91,0,0,0,1.46-3.81v-2.21a4.9,4.9,0,0,0-1.46-3.79,4.76,4.76,0,0,0-3.37-1.22h-4.84v20.38h3.21Z"/><path class="cls-1" d="M263.14,115.41a2,2,0,0,0-.44-1.46,1.73,1.73,0,0,0-1.19-.35h-1.63v5.79h1.63a1.68,1.68,0,0,0,1.19-.35,1.93,1.93,0,0,0,.44-1.45Zm3.11,15.37H263l-1.66-8.18h-1.45v8.18h-3.2V110.4h4.83a4.79,4.79,0,0,1,3.38,1.22,4.89,4.89,0,0,1,1.45,3.79v2.18a4.91,4.91,0,0,1-1.45,3.81,2.52,2.52,0,0,1-.47.38Z"/><path class="cls-1" d="M272.81,113.37a1.61,1.61,0,0,1,1.19.35,1.87,1.87,0,0,1,.44,1.45V126a1.9,1.9,0,0,1-.44,1.46,1.66,1.66,0,0,1-1.19.35,1.74,1.74,0,0,1-1.2-.35,2,2,0,0,1-.44-1.46V115.17a1.93,1.93,0,0,1,.44-1.45,1.69,1.69,0,0,1,1.2-.35m0,17.64a4.77,4.77,0,0,0,3.37-1.19,5.06,5.06,0,0,0,1.46-3.82V115.17a5,5,0,0,0-1.46-3.81,5.35,5.35,0,0,0-6.75,0,5,5,0,0,0-1.46,3.81V126a5.06,5.06,0,0,0,1.46,3.82A4.77,4.77,0,0,0,272.81,131Z"/><polygon class="cls-1" points="288.56 113.6 285.3 113.6 285.3 130.78 282.09 130.78 282.09 113.6 278.83 113.6 278.83 110.4 288.56 110.4 288.56 113.6"/><polygon class="cls-1" points="293.19 113.6 293.19 118.72 296.8 118.72 296.8 121.93 293.19 121.93 293.19 127.58 298.43 127.58 298.43 130.78 289.98 130.78 289.98 110.4 298.43 110.4 298.43 113.6 293.19 113.6"/><path class="cls-1" d="M304.69,131a4.77,4.77,0,0,0,3.37-1.19,5.06,5.06,0,0,0,1.46-3.82v-2.62h-3.2V126a2,2,0,0,1-.41,1.46,1.78,1.78,0,0,1-1.22.35,1.74,1.74,0,0,1-1.2-.35,2,2,0,0,1-.43-1.46V115.17a1.93,1.93,0,0,1,.43-1.45,1.69,1.69,0,0,1,1.2-.35,1.73,1.73,0,0,1,1.22.35,2,2,0,0,1,.41,1.45V117h3.2v-1.81a5,5,0,0,0-1.46-3.81,4.73,4.73,0,0,0-3.37-1.2,4.87,4.87,0,0,0-3.38,1.2,5.16,5.16,0,0,0-1.46,3.81V126a5.16,5.16,0,0,0,1.46,3.82,4.91,4.91,0,0,0,3.38,1.19"/><polygon class="cls-1" points="320.32 113.6 317.06 113.6 317.06 130.78 313.86 130.78 313.86 113.6 310.6 113.6 310.6 110.4 320.32 110.4 320.32 113.6"/><rect class="cls-1" x="321.75" y="110.4" width="3.2" height="20.38"/><path class="cls-1" d="M331.85,113.37a1.61,1.61,0,0,1,1.19.35,1.83,1.83,0,0,1,.44,1.45V126a1.86,1.86,0,0,1-.44,1.46,1.66,1.66,0,0,1-1.19.35,1.73,1.73,0,0,1-1.19-.35,2,2,0,0,1-.44-1.46V115.17a1.93,1.93,0,0,1,.44-1.45,1.68,1.68,0,0,1,1.19-.35m0,17.64a4.79,4.79,0,0,0,3.38-1.19,5,5,0,0,0,1.45-3.82V115.17a5,5,0,0,0-1.45-3.81,5.36,5.36,0,0,0-6.76,0,5,5,0,0,0-1.45,3.81V126a5,5,0,0,0,1.45,3.82A4.79,4.79,0,0,0,331.85,131Z"/><polygon class="cls-1" points="348.59 130.78 346.73 130.78 341.84 120.44 341.84 130.78 338.63 130.78 338.63 110.4 340.5 110.4 345.39 120.7 345.39 110.4 348.59 110.4 348.59 130.78"/></g></g></svg>