<svg xmlns="http://www.w3.org/2000/svg" viewBox="0 0 645.46 181.77"><defs><style>.cls-1{fill:#ffd101;}.cls-2{fill:#fff;}</style></defs><g id="Layer_2" data-name="Layer 2"><g id="Layer_1-2" data-name="Layer 1"><polygon class="cls-1" points="322.06 143.08 306.12 100.77 290.38 143.08 266.47 143.08 293.04 71.75 266.47 0 290.38 0 306.12 42.31 321.86 0 345.98 0 319.2 71.75 345.98 143.08 322.06 143.08"/><polygon class="cls-1" points="208.27 161.16 208.27 181.54 205.07 181.54 205.07 172.69 201.81 172.69 201.81 181.54 198.6 181.54 198.6 161.16 201.81 161.16 201.81 169.48 205.07 169.48 205.07 161.16 208.27 161.16"/><polygon class="cls-1" points="213.8 164.36 213.8 169.48 217.41 169.48 217.41 172.69 213.8 172.69 213.8 178.33 219.04 178.33 219.04 181.54 210.6 181.54 210.6 161.16 219.04 161.16 219.04 164.36 213.8 164.36"/><path class="cls-1" d="M227.2,175.1l-1.28-7.31-1.29,7.31Zm.55,3.2h-3.67l-.58,3.24h-3.26l4.07-20.38h3.21l4.07,20.38h-3.26Z"/><polygon class="cls-1" points="239.1 161.16 242.37 161.16 238.29 181.54 235.09 181.54 231.01 161.16 234.27 161.16 236.69 174.93 239.1 161.16"/><polygon class="cls-1" points="250.14 174.37 250.14 181.54 246.91 181.54 246.91 174.37 242.98 161.16 246.35 161.16 248.51 168.46 250.72 161.16 254.1 161.16 250.14 174.37"/><path class="cls-1" d="M263.12,164.36h1.63a1.69,1.69,0,0,1,1.2.35,2,2,0,0,1,.43,1.45v10.48A1.78,1.78,0,0,1,266,178a1.8,1.8,0,0,1-1.23.32h-1.63Zm1.63,17.18a4.77,4.77,0,0,0,3.35-1.14,4.28,4.28,0,0,0,1.14-1.63,6.1,6.1,0,0,0,.35-2.13V166.16a4.87,4.87,0,0,0-1.46-3.78,4.73,4.73,0,0,0-3.38-1.22h-4.83v20.38Z"/><path class="cls-1" d="M276.34,181.77a4.87,4.87,0,0,0,3.38-1.2,5.15,5.15,0,0,0,1.45-3.81v-15.6H278v15.6a2,2,0,0,1-.43,1.46,2.27,2.27,0,0,1-2.42,0,2,2,0,0,1-.41-1.46v-15.6h-3.2v15.6a5,5,0,0,0,1.45,3.81,4.75,4.75,0,0,0,3.38,1.2"/><polygon class="cls-1" points="292.21 164.36 288.95 164.36 288.95 181.54 285.75 181.54 285.75 164.36 282.48 164.36 282.48 161.16 292.21 161.16 292.21 164.36"/><polygon class="cls-1" points="300.07 174.37 300.07 181.54 296.84 181.54 296.84 174.37 292.91 161.16 296.29 161.16 298.44 168.46 300.65 161.16 304.03 161.16 300.07 174.37"/><path class="cls-1" d="M313.05,164.36h1.63a1.69,1.69,0,0,1,1.2.35,2,2,0,0,1,.44,1.45v2.22a2,2,0,0,1-.44,1.45,1.74,1.74,0,0,1-1.2.35h-1.63Zm0,9h1.63a4.73,4.73,0,0,0,3.38-1.19,4.91,4.91,0,0,0,1.46-3.81v-2.22a4.87,4.87,0,0,0-1.46-3.78,4.73,4.73,0,0,0-3.38-1.22h-4.83v20.38h3.2Z"/><path class="cls-1" d="M327.73,166.16a2,2,0,0,0-.44-1.45,1.68,1.68,0,0,0-1.19-.35h-1.63v5.79h1.63a1.68,1.68,0,0,0,1.19-.35,1.93,1.93,0,0,0,.44-1.45Zm3.11,15.38h-3.26l-1.66-8.19h-1.45v8.19h-3.21V161.16h4.84a4.74,4.74,0,0,1,3.38,1.22,4.87,4.87,0,0,1,1.45,3.78v2.19a4.91,4.91,0,0,1-1.45,3.81,3.54,3.54,0,0,1-.47.38Z"/><path class="cls-1" d="M337.39,164.12a1.67,1.67,0,0,1,1.2.35,1.91,1.91,0,0,1,.43,1.46v10.83a1.91,1.91,0,0,1-.43,1.46,1.67,1.67,0,0,1-1.2.35,1.73,1.73,0,0,1-1.19-.35,2,2,0,0,1-.44-1.46V165.93a2,2,0,0,1,.44-1.46,1.73,1.73,0,0,1,1.19-.35m0,17.65a4.74,4.74,0,0,0,3.38-1.2,5,5,0,0,0,1.46-3.81V165.93a5,5,0,0,0-1.46-3.81,5.35,5.35,0,0,0-6.75,0,5,5,0,0,0-1.46,3.81v10.83a5,5,0,0,0,1.46,3.81A4.73,4.73,0,0,0,337.39,181.77Z"/><polygon class="cls-1" points="353.15 164.36 349.88 164.36 349.88 181.54 346.68 181.54 346.68 164.36 343.42 164.36 343.42 161.16 353.15 161.16 353.15 164.36"/><polygon class="cls-1" points="357.77 164.36 357.77 169.48 361.38 169.48 361.38 172.69 357.77 172.69 357.77 178.33 363.02 178.33 363.02 181.54 354.57 181.54 354.57 161.16 363.02 161.16 363.02 164.36 357.77 164.36"/><path class="cls-1" d="M369.28,181.77a4.73,4.73,0,0,0,3.37-1.2,5,5,0,0,0,1.46-3.81v-2.62h-3.2v2.62a2,2,0,0,1-.41,1.46,1.78,1.78,0,0,1-1.22.35,1.74,1.74,0,0,1-1.2-.35,2,2,0,0,1-.44-1.46V165.93a2,2,0,0,1,.44-1.46,1.74,1.74,0,0,1,1.2-.35,1.78,1.78,0,0,1,1.22.35,2,2,0,0,1,.41,1.46v1.81h3.2v-1.81a5,5,0,0,0-1.46-3.81,4.73,4.73,0,0,0-3.37-1.2,4.87,4.87,0,0,0-3.38,1.2,5.16,5.16,0,0,0-1.46,3.81v10.83a5.16,5.16,0,0,0,1.46,3.81,4.87,4.87,0,0,0,3.38,1.2"/><polygon class="cls-1" points="384.91 164.36 381.65 164.36 381.65 181.54 378.45 181.54 378.45 164.36 375.19 164.36 375.19 161.16 384.91 161.16 384.91 164.36"/><rect class="cls-1" x="386.34" y="161.16" width="3.2" height="20.38"/><path class="cls-1" d="M396.44,164.12a1.66,1.66,0,0,1,1.19.35,1.91,1.91,0,0,1,.44,1.46v10.83a1.91,1.91,0,0,1-.44,1.46,1.66,1.66,0,0,1-1.19.35,1.73,1.73,0,0,1-1.19-.35,1.93,1.93,0,0,1-.44-1.46V165.93a1.93,1.93,0,0,1,.44-1.46,1.73,1.73,0,0,1,1.19-.35m0,17.65a4.75,4.75,0,0,0,3.38-1.2,5,5,0,0,0,1.45-3.81V165.93a5,5,0,0,0-1.45-3.81,5.36,5.36,0,0,0-6.76,0,5,5,0,0,0-1.45,3.81v10.83a5,5,0,0,0,1.45,3.81A4.75,4.75,0,0,0,396.44,181.77Z"/><polygon class="cls-1" points="413.18 181.54 411.32 181.54 406.43 171.2 406.43 181.54 403.22 181.54 403.22 161.16 405.09 161.16 409.98 171.46 409.98 161.16 413.18 161.16 413.18 181.54"/><path class="cls-2" d="M372.28,124.55q11,0,17.79-6.28,7.67-7.36,7.66-20.09V61.24H372.44V78.1h8.43V98.18c0,3.79-.72,6.34-2.15,7.67s-3.47,1.84-6.44,1.84-4.95-.61-6.28-1.84c-1.54-1.43-2.3-4-2.3-7.67v-57c0-3.68.76-6.24,2.3-7.67,1.33-1.22,3.42-1.84,6.28-1.84s5.11.62,6.44,1.84,2.15,3.89,2.15,7.67v9.5h16.86v-9.5q0-12.73-7.66-20.08-6.75-6.3-17.79-6.29-10.72,0-17.78,6.29-7.67,7.67-7.67,20.08v57q0,12.42,7.67,20.09,7,6.28,17.78,6.28"/><path class="cls-2" d="M433.45,124.55q10.73,0,17.78-6.28,7.66-7.67,7.67-20.09V16H442V98.18c0,3.68-.76,6.24-2.3,7.67-1.32,1.23-3.42,1.84-6.28,1.84s-5.11-.61-6.44-1.84-2.15-3.88-2.15-7.67V16H408V98.18q0,12.73,7.67,20.09,6.74,6.28,17.78,6.28"/><path class="cls-2" d="M502.28,89.45,495.54,51l-6.75,38.48Zm2.91,16.86H485.88l-3.07,17H465.64L487.1,16H504l21.46,107.31H508.26Z"/><path class="cls-2" d="M567.74,42.38c0-3.57-.77-6.13-2.3-7.66-1.33-1.23-3.42-1.84-6.29-1.84h-8.58V63.39h8.58c2.87,0,5-.62,6.29-1.84q2.29-2.14,2.3-7.67Zm16.4,80.95H567l-8.73-43.08h-7.67v43.08H533.71V16h25.44q10.89,0,17.79,6.43,7.66,7.07,7.66,19.93v11.5q0,13-7.66,20.08a16.47,16.47,0,0,1-2.46,2Z"/><path class="cls-2" d="M611.43,32.88H620c2.87,0,5,.61,6.29,1.84,1.53,1.53,2.3,4.09,2.3,7.66V97.57q0,5.37-2.15,7.21-1.83,1.68-6.44,1.68h-8.58ZM620,123.33q11,0,17.63-6a22.69,22.69,0,0,0,6-8.59,31.64,31.64,0,0,0,1.84-11.19V42.38q0-12.87-7.66-19.93Q630.9,16,620,16H594.57V123.33Z"/><polygon class="cls-2" points="16.86 34.17 16.86 61.15 36.02 61.15 36.02 78.01 16.86 78.01 16.86 124.61 0 124.61 0 17.3 44.46 17.3 44.46 34.17 16.86 34.17"/><polygon class="cls-2" points="97.19 107.75 69.6 107.75 69.6 17.3 52.73 17.3 52.73 124.61 97.19 124.61 97.19 107.75"/><polygon class="cls-2" points="122.18 34.17 122.18 61.15 141.19 61.15 141.19 78.01 122.18 78.01 122.18 107.75 149.77 107.75 149.77 124.61 105.32 124.61 105.32 17.3 149.77 17.3 149.77 34.17 122.18 34.17"/><polygon class="cls-2" points="177.06 34.17 177.06 61.15 196.07 61.15 196.07 78.01 177.06 78.01 177.06 107.75 204.66 107.75 204.66 124.61 160.2 124.61 160.2 17.3 204.66 17.3 204.66 34.17 177.06 34.17"/><polygon class="cls-2" points="261.68 34.17 244.51 34.17 244.51 124.61 227.65 124.61 227.65 34.17 210.48 34.17 210.48 17.3 261.68 17.3 261.68 34.17"/></g></g></svg>