<svg width="380" height="96" viewBox="0 0 380 96" fill="none" xmlns="http://www.w3.org/2000/svg">
<g clip-path="url(#clip0_72_1292)">
<path d="M70.4597 26.0029L65.4914 55.6344H61.7275L68.0508 19.9557L69.1047 13.3037L71.6641 19.351L82.8052 46.4124L94.0968 19.351L96.5057 13.3037L97.7101 19.9557L103.883 55.6344H100.27L95.1507 26.0029L84.7624 50.9478L82.8052 55.6344L80.848 50.9478L70.4597 26.0029Z" fill="#333333"/>
<path d="M118.637 38.0974H135.198L126.918 21.4675L118.637 38.0974ZM136.854 41.5746H116.83L109.905 55.6344H105.84L124.96 17.3856L126.918 13.3037L129.025 17.3856L147.995 55.6344H143.93L136.854 41.5746Z" fill="#333333"/>
<path d="M183.526 38.0976H166.363V34.6204H187.441C187.441 40.5165 185.333 45.5055 181.268 49.5874C177.203 53.6693 172.235 55.7858 166.363 55.7858C160.491 55.7858 155.523 53.6693 151.458 49.5874C147.393 45.5055 145.285 40.5165 145.285 34.6204C145.285 28.7244 147.393 23.7354 151.458 19.6535C155.523 15.5716 160.491 13.4551 166.363 13.4551C172.235 13.4551 177.203 15.5716 181.268 19.6535C183.376 21.77 184.881 24.0378 185.935 26.6078L182.774 28.1196C181.87 25.8519 180.515 23.8866 178.859 22.0724C175.396 18.5952 171.331 16.9322 166.514 16.9322C161.696 16.9322 157.48 18.5952 154.168 22.0724C150.705 25.5496 149.049 29.6315 149.049 34.4693C149.049 39.307 150.705 43.5401 154.168 46.8661C157.631 50.3433 161.696 52.0063 166.514 52.0063C171.331 52.0063 175.547 50.3433 178.859 46.8661C181.268 44.4472 182.924 41.4236 183.526 38.0976Z" fill="#333333"/>
<path d="M195.27 13.3037H191.807V55.6344H195.27V13.3037Z" fill="#333333"/>
<path d="M238.027 40.9699L241.189 42.4817C240.135 45.0517 238.629 47.3195 236.522 49.436C232.457 53.5179 227.488 55.6344 221.617 55.6344C215.745 55.6344 210.777 53.5179 206.712 49.436C202.647 45.3541 200.539 40.3651 200.539 34.4691C200.539 28.573 202.647 23.584 206.712 19.5021C210.777 15.4202 215.745 13.3037 221.617 13.3037C227.488 13.3037 232.457 15.4202 236.522 19.5021C238.629 21.6187 240.135 23.8864 241.189 26.4565L238.027 27.9683C237.124 25.7006 235.769 23.7352 234.113 21.921C230.65 18.4439 226.585 16.7809 221.767 16.7809C216.949 16.7809 212.734 18.4439 209.422 21.921C205.959 25.3982 204.303 29.4801 204.303 34.3179C204.303 39.1557 205.959 43.3888 209.422 46.7147C212.884 50.1919 216.949 51.8549 221.767 51.8549C226.585 51.8549 230.8 50.1919 234.113 46.7147C235.919 45.2029 237.274 43.0864 238.027 40.9699Z" fill="#333333"/>
<path d="M253.383 32.5037C250.824 31.2943 249.168 29.3289 248.264 26.7588C247.813 25.7006 247.662 24.4911 247.662 23.4328C247.662 21.921 247.963 20.5604 248.716 19.0486C249.92 16.4785 251.878 14.8155 254.588 13.9084C255.641 13.4549 256.846 13.3037 257.9 13.3037C259.405 13.3037 260.76 13.6061 262.266 14.362C264.374 15.4202 265.879 16.9321 266.933 19.0486L263.922 21.0139C263.32 19.5021 262.266 18.2927 260.76 17.5368C259.857 17.0832 258.803 16.7809 257.9 16.7809C257.147 16.7809 256.244 16.9321 255.039 17.3856C253.835 17.8391 252.781 18.8974 252.028 20.5604C251.576 21.4675 251.275 22.5258 251.275 23.4328C251.275 24.1888 251.426 25.0958 251.878 26.3053C252.329 27.5147 253.383 28.573 255.039 29.3289L262.567 33.1084C265.428 34.6202 267.535 36.888 268.589 39.9116C269.041 41.2722 269.191 42.4817 269.191 43.8423C269.191 45.5053 268.74 47.3195 267.987 48.9825C266.481 52.0061 264.223 53.9714 261.212 55.0297C259.857 55.4832 258.653 55.6344 257.298 55.6344C255.641 55.6344 253.835 55.1809 252.179 54.425C249.469 53.0643 247.512 50.9478 246.458 48.0754L249.469 45.9588C249.469 46.11 249.619 46.2612 249.619 46.4124C250.372 48.6801 251.727 50.1919 253.835 51.2502C255.039 51.8549 256.244 52.1573 257.448 52.1573C258.351 52.1573 259.556 51.8549 261.212 51.4014C262.718 50.7966 264.073 49.5872 265.126 47.4706C265.729 46.2612 266.03 45.0517 266.03 43.8423C266.03 42.9352 265.879 42.0281 265.578 41.121C264.825 39.0045 263.47 37.3415 261.363 36.2832L253.383 32.5037Z" fill="#333333"/>
<path d="M277.322 52.1573H301.862V55.6344H273.859V13.3037H301.862V16.9321H277.322V32.8061H301.862V36.2832H277.322V52.1573Z" fill="#333333"/>
<path d="M317.068 38.0974H333.629L325.349 21.4675L317.068 38.0974ZM335.285 41.5746H315.261L308.185 55.6344H304.12L323.241 17.3856L325.198 13.3037L327.306 17.3856L346.276 55.6344H342.211L335.285 41.5746Z" fill="#333333"/>
<path d="M348.534 55.6344V13.3037H352.147V52.1573H373.074V55.6344H348.534Z" fill="#333333"/>
<path d="M375.032 21.6176C373.677 21.6176 372.472 21.1641 371.569 20.1058C370.665 19.1987 370.063 17.9893 370.063 16.6286C370.063 15.268 370.515 14.0585 371.569 13.1515C372.472 12.2444 373.677 11.6396 375.032 11.6396C376.387 11.6396 377.591 12.0932 378.494 13.1515C379.398 14.0585 380 15.268 380 16.6286C380 17.9893 379.548 19.1987 378.494 20.1058C377.591 21.1641 376.387 21.6176 375.032 21.6176ZM375.032 21.0129C376.236 21.0129 377.139 20.5593 378.043 19.8034C378.795 19.0475 379.247 17.9893 379.247 16.7798C379.247 15.5704 378.795 14.6633 378.043 13.7562C377.29 13.0003 376.236 12.5467 375.032 12.5467C373.827 12.5467 372.924 13.0003 372.02 13.7562C371.268 14.5121 370.816 15.5704 370.816 16.7798C370.816 17.9893 371.268 18.8963 372.02 19.8034C372.924 20.5593 373.978 21.0129 375.032 21.0129ZM373.677 17.3845V19.5011H372.924V13.9074H375.784C376.688 13.9074 377.139 14.3609 377.139 15.268V16.0239C377.139 16.931 376.688 17.3845 375.784 17.3845L377.139 19.5011H376.387L375.032 17.3845H373.677ZM373.677 14.6633V16.7798H375.784C376.236 16.7798 376.537 16.4774 376.537 16.0239V15.268C376.537 14.8145 376.236 14.5121 375.784 14.5121H373.677V14.6633Z" fill="#333333"/>
<path fill-rule="evenodd" clip-rule="evenodd" d="M0.150336 8.16378C-0.602437 22.3748 0.451446 35.3764 6.02197 46.5638C9.63528 53.6693 14.7541 59.8677 21.3785 64.252C22.583 65.0079 27.4007 68.1827 28.7557 68.1827C30.2613 68.1827 34.9285 65.3102 35.9823 64.5543C47.7256 56.3906 54.8017 44.2961 56.7589 29.9339C57.5117 24.9449 58.1139 13.4551 57.3611 8.31496C51.9411 3.93071 38.3912 0.151181 29.0568 0C21.6797 0 12.7969 2.26772 6.17252 4.98898C3.76365 6.04724 2.55921 6.95433 0.150336 8.16378ZM28.7557 11.6409C29.8096 13.6063 30.1107 15.4205 31.3152 17.537C34.4768 23.2819 39.144 28.2709 40.9507 33.2598C44.4134 43.2378 39.144 52.7622 29.3579 53.0646C19.1202 53.3669 12.9475 43.5402 16.8619 33.2598C19.5719 25.852 26.9491 19.6535 28.7557 11.6409Z" fill="#333333"/>
<path fill-rule="evenodd" clip-rule="evenodd" d="M19.271 35.377C18.2171 38.8541 19.1205 44.599 21.6799 47.1691C22.4327 47.925 22.1316 47.7738 23.1854 47.925L24.2393 46.5644C23.7877 45.0525 21.6799 44.4478 20.4755 41.8777C19.271 39.4588 19.8732 37.0399 19.271 35.377Z" fill="#333333"/>
<path d="M124.81 92.3709C124.81 92.0686 124.659 92.0686 124.509 92.0686C124.208 92.0686 124.057 92.0686 124.057 91.9174C123.906 92.0686 123.906 92.0686 123.906 92.2198C123.906 92.3709 124.057 92.5221 124.358 92.8245L124.81 92.3709ZM122.1 88.5914C122.1 88.4402 121.949 88.2891 121.799 88.2891C121.498 88.2891 121.347 88.4402 121.347 88.5914C121.498 88.7426 121.498 88.7426 121.799 88.7426C121.949 88.8938 122.1 88.7426 122.1 88.5914ZM123.605 89.8009C123.605 89.6497 123.455 89.4985 123.304 89.4985C123.003 89.4985 122.853 89.6497 122.853 89.952L123.003 90.1032C123.154 90.1032 123.304 89.9521 123.605 89.8009ZM126.767 92.2198C126.767 92.0686 126.767 92.0686 126.616 92.0686V92.3709H126.767C126.767 92.3709 126.767 92.3709 126.767 92.2198ZM121.949 84.8119C121.949 84.6607 121.799 84.6607 121.799 84.6607C121.648 84.6607 121.498 84.8119 121.498 84.9631H121.799C121.949 84.9631 121.949 84.8119 121.949 84.8119ZM121.949 82.2418V82.0906C121.799 82.0906 121.799 82.0906 121.648 82.0906C121.498 82.0906 121.498 82.2418 121.347 82.2418C121.498 82.393 121.648 82.5442 121.799 82.5442C121.799 82.393 121.949 82.393 121.949 82.2418ZM132.036 91.1615C131.886 91.0103 131.735 91.0103 131.585 91.0103C131.284 91.0103 131.133 91.1615 131.133 91.3127C131.133 91.4639 131.434 91.4639 131.735 91.615C131.886 91.4639 132.036 91.3127 132.036 91.1615ZM121.648 81.1835V80.8812H121.347V81.1835H121.648ZM127.821 85.1143C127.67 84.9631 127.52 84.9631 127.369 84.9631C127.219 84.9631 127.068 85.1143 127.068 85.2654L127.219 85.4166H127.369C127.52 85.4166 127.67 85.4166 127.821 85.1143ZM131.434 87.5332C131.434 87.2308 131.434 87.2308 131.284 87.2308C131.133 87.2308 130.983 87.382 130.983 87.5332C130.983 87.6843 131.133 87.6843 131.284 87.6843C131.284 87.6843 131.284 87.6843 131.434 87.6843V87.5332ZM129.477 85.1143C129.477 84.8119 129.326 84.6607 129.025 84.6607C128.724 84.6607 128.574 84.8119 128.423 84.9631L128.574 85.2654C129.025 85.4166 129.176 85.4166 129.176 85.4166C129.326 85.4166 129.477 85.2654 129.477 85.1143ZM123.154 78.9158C123.154 78.7646 123.154 78.6135 123.003 78.6135C122.702 78.6135 122.551 78.7646 122.551 78.9158C122.551 78.9158 122.551 78.9158 122.551 79.067C122.551 79.2182 122.702 79.2182 123.003 79.2182C123.154 79.2182 123.154 79.067 123.154 78.9158ZM130.681 85.1143C130.681 84.9631 130.531 84.8119 130.23 84.8119C130.079 84.8119 129.929 84.9631 129.929 85.1143C129.929 85.2654 129.929 85.2654 130.079 85.4166C130.23 85.4166 130.23 85.5678 130.38 85.4166H130.531C130.681 85.4166 130.681 85.2654 130.681 85.1143ZM132.488 86.4749V86.1725H132.338C132.338 86.1725 132.187 86.1725 132.187 86.3237C132.488 86.4749 132.488 86.4749 132.488 86.4749ZM124.659 77.7064C124.659 77.5552 124.509 77.404 124.358 77.404C124.208 77.404 124.057 77.5552 123.906 77.7064C123.906 77.8576 124.057 78.0087 124.208 78.0087C124.358 78.0087 124.509 78.0087 124.509 78.1599C124.509 78.0087 124.659 77.8576 124.659 77.7064ZM133.542 85.1143C133.542 84.9631 133.542 84.9631 133.391 84.9631L133.542 85.1143C133.391 84.9631 133.391 84.9631 133.542 85.1143ZM127.67 78.3111V78.0087H127.369V78.3111H127.67ZM128.875 77.8576V77.7064H128.574V77.8576H128.875ZM130.079 78.9158H129.929V79.2182C129.929 79.067 130.079 78.9158 130.079 78.9158ZM130.079 86.9284H129.628V86.7772L130.079 86.9284ZM135.198 85.1143C135.048 85.4166 134.897 85.5678 134.445 85.719C134.144 85.719 133.843 85.8702 133.391 85.8702C133.241 85.8702 133.09 86.1725 132.94 86.4749C132.94 86.9284 132.789 87.0796 132.488 87.0796C132.338 87.0796 132.187 87.0796 132.036 86.9284V87.6843C132.488 87.8355 132.639 87.9867 132.789 88.1379V88.2891C132.639 88.2891 132.338 88.5914 131.886 88.8938C132.036 89.045 132.036 89.1961 132.036 89.3473C132.036 89.4985 132.036 89.4985 132.036 89.6497C132.036 89.8009 132.036 89.952 132.036 89.952C132.036 90.2544 132.187 90.4056 132.488 90.4056L132.639 91.1615H132.488C132.639 91.3127 132.639 91.4639 132.639 91.615C132.639 91.7662 132.488 91.9174 132.187 92.2198C131.886 92.5221 131.735 92.6733 131.735 92.8245C131.735 92.8245 131.886 92.9757 132.036 93.278L131.735 93.8828C131.284 93.5804 130.983 93.4292 130.531 93.278L130.681 92.9757L130.38 92.2198L129.778 92.5221V92.6733C129.778 92.9757 129.477 93.1269 128.875 93.4292C128.423 93.5804 127.971 93.5804 127.67 93.5804C127.219 93.5804 126.918 93.4292 126.767 93.278C126.466 93.4292 126.315 93.5804 126.315 93.5804C126.165 93.5804 126.014 93.5804 125.713 93.4292C125.563 93.278 125.261 93.278 125.261 93.278C125.111 93.278 124.96 93.278 124.96 93.4292C124.96 93.4292 124.659 93.278 124.208 93.1268C123.906 92.9757 123.756 92.8245 123.756 92.5221L123.455 92.2198V92.0686L123.003 91.9174L123.304 91.615L122.853 91.4639L123.154 91.1615V90.708C122.702 90.8591 122.401 90.8591 122.401 90.8591C122.1 90.8591 122.1 90.5568 122.1 89.8009C121.498 89.4985 121.196 89.1961 121.196 88.7426C121.196 88.2891 121.046 88.1379 120.745 87.9867C120.895 87.8355 121.046 87.6843 121.046 87.382C121.046 87.0796 121.046 86.9284 120.895 86.6261L121.196 86.0213C121.046 85.719 120.745 85.5678 120.444 85.5678C120.594 85.4166 120.745 85.4166 120.895 85.2654C121.046 85.1143 121.196 85.1143 121.196 84.9631C121.196 84.8119 121.046 84.6607 120.895 84.5095C120.745 84.3583 120.594 84.2072 120.594 84.056L120.895 83.3001L120.594 82.9977L121.046 82.5442C121.046 82.393 121.046 82.2418 120.895 82.0906C120.745 81.9394 120.745 81.7883 120.745 81.6371C120.745 81.6371 120.745 81.4859 120.895 81.3347C121.046 81.1835 121.046 81.0324 121.046 81.0324C121.046 80.8812 120.895 80.73 120.745 80.4276L121.799 80.2765L121.949 79.8229C121.949 79.6717 121.799 79.6717 121.648 79.5206C121.498 79.5206 121.347 79.3694 121.347 79.2182V79.067C121.648 79.067 121.949 78.7646 122.25 78.6135V77.8576C122.702 77.8576 123.003 77.7064 123.154 77.2528C123.154 76.9505 123.605 76.6481 124.208 76.6481L124.659 76.3457C125.111 76.4969 125.261 76.6481 125.412 76.6481H125.713L125.864 76.1946L125.412 75.741C125.713 75.741 125.864 75.5898 125.864 75.5898C126.014 75.5898 126.165 75.5898 126.315 75.741C126.466 75.741 126.616 75.8922 126.767 75.8922C126.918 75.8922 126.918 75.8922 127.068 75.8922V76.1946L127.52 76.6481L128.122 76.3457C128.273 76.6481 128.724 76.7993 129.477 76.7993C129.778 76.7993 130.079 76.9505 130.23 77.1017L130.832 76.9505V77.1017L130.983 78.0087C131.434 78.1599 131.735 78.3111 131.735 78.3111L132.036 78.0087L132.338 78.3111C132.187 78.6135 132.036 78.9158 132.036 79.2182L132.338 79.6717C132.187 80.1253 132.036 80.2765 132.036 80.2765C132.036 80.4276 132.187 80.5788 132.639 80.8812C132.488 81.0324 132.338 81.0324 132.187 81.1835C132.036 81.3347 132.036 81.4859 132.036 81.6371L132.488 82.0906H132.639H132.789C132.488 82.0906 132.187 82.2418 131.735 82.6954L131.434 82.5442C131.284 82.5442 130.983 82.5442 130.832 82.393C130.681 82.2418 130.38 82.2418 130.23 82.0906C130.38 81.9394 130.531 81.7883 130.531 81.4859C130.531 81.1835 130.531 80.8812 130.531 80.73C130.531 80.5788 130.531 80.4276 130.681 80.4276C130.531 80.2765 130.38 80.1253 129.929 79.9741C129.628 79.8229 129.477 79.6717 129.477 79.5206C129.477 79.3694 129.477 79.2182 129.628 79.067C129.176 78.6135 128.724 78.6135 128.122 78.6135C127.67 78.6135 127.369 78.4623 127.219 78.0087C126.918 77.5552 126.767 77.404 126.616 77.404C126.315 77.404 126.165 77.5552 126.165 78.0087C126.165 78.1599 126.165 78.1599 126.315 78.3111C126.165 78.4623 126.014 78.4623 125.864 78.4623C125.713 78.4623 125.563 78.4623 125.261 78.4623C124.96 78.4623 124.81 78.4623 124.81 78.4623C124.358 78.4623 124.057 78.6135 123.906 79.067L124.358 79.3694L123.906 79.8229L123.154 79.6717C123.003 79.8229 122.853 80.1253 123.003 80.73L122.702 81.1835C122.853 81.4859 122.853 81.9395 122.702 82.393L123.003 82.9977L122.702 83.6024C122.25 83.4513 122.1 83.4513 122.1 83.4513L121.949 83.9048C121.949 84.056 122.25 84.2072 122.702 84.056C122.702 84.2072 122.702 84.5095 122.702 84.8119C122.702 85.1143 122.702 85.4166 122.702 85.5678C122.702 85.5678 122.702 85.719 122.551 86.1725C122.25 86.0213 122.1 85.8702 121.949 86.0213L121.648 86.6261C121.648 86.7772 121.799 86.9284 121.949 86.9284C122.1 86.9284 122.25 86.9284 122.551 86.9284L122.401 87.2308C122.401 87.382 122.551 87.6843 122.702 87.8355C122.853 88.1379 123.003 88.2891 123.003 88.4402L122.551 88.8938C122.551 89.1961 122.853 89.3473 123.154 89.3473C123.605 89.3473 123.756 89.4985 123.756 89.6497C123.756 89.8009 123.756 89.952 123.605 90.1032C123.756 90.5568 123.906 90.708 124.057 90.708V90.5568H124.358V90.708H123.756V90.8591L124.208 91.4639C124.659 91.4639 124.96 91.3127 125.111 91.1615L125.713 91.615H125.864L126.315 91.3127C126.616 91.3127 126.918 91.3127 127.369 91.4639C127.821 91.615 128.273 91.615 128.423 91.615C129.025 91.615 129.477 91.4639 129.929 91.1615L130.38 91.3127L130.681 90.8591L130.079 90.4056L130.832 89.8009L130.23 89.1961C130.832 89.045 130.983 88.8938 130.983 88.4402C130.983 88.2891 130.983 88.1379 130.832 87.8355C130.832 87.5331 130.681 87.382 130.681 87.2308L130.23 86.7772C130.531 86.6261 130.681 86.4749 130.681 86.1725C130.681 85.8702 130.38 85.719 129.929 85.719C129.778 85.719 129.477 85.719 129.025 85.8702C128.574 86.0213 128.423 86.0213 128.122 86.0213C127.971 86.0213 127.67 85.8702 126.918 85.719V84.8119C126.918 84.8119 126.918 84.6607 127.068 84.2072C127.219 84.056 128.122 84.056 129.326 84.056C129.477 84.056 129.628 84.056 129.929 84.2072C130.23 84.3583 130.38 84.3583 130.531 84.3583C131.133 84.3583 131.585 84.2072 131.585 83.7536L130.38 83.1489H130.983C130.983 83.1489 131.284 83.1489 131.735 82.9977C131.735 83.3001 131.735 83.6024 131.886 83.7536C131.886 84.056 132.036 84.2072 132.338 84.2072C132.94 84.056 133.241 84.056 133.241 84.056C133.391 84.056 133.693 84.056 134.144 84.2072C134.596 84.2072 134.897 84.2072 135.048 84.2072L135.198 84.5095L134.897 84.3583L134.295 84.8119L134.746 85.2654L135.198 85.1143ZM132.338 77.1017L132.036 77.5552L131.434 76.9505L131.886 76.6481L132.338 77.1017Z" fill="#333333"/>
<path d="M141.22 90.5577C141.22 90.2553 141.22 90.2553 141.07 90.1042C140.919 90.4065 140.769 90.5577 140.618 90.5577C140.618 90.5577 140.618 90.5577 140.468 90.5577C140.468 90.5577 140.468 90.5577 140.468 90.7089V90.8601C140.468 90.8601 140.468 91.0113 140.618 91.0113L141.22 90.8601C141.22 90.7089 141.22 90.7089 141.22 90.5577ZM139.263 87.3829C139.113 87.2317 139.113 87.0805 138.962 87.0805C138.811 87.0805 138.811 87.0805 138.811 87.2317V87.3829V87.5341H138.962C139.113 87.6853 139.263 87.5341 139.263 87.3829ZM139.113 86.1735C139.113 86.0223 139.113 85.8711 138.962 85.8711V86.1735H139.113ZM143.93 90.8601C143.93 90.5577 143.78 90.5577 143.629 90.5577C143.479 90.5577 143.328 90.7089 143.328 90.8601C143.479 91.0112 143.629 91.1624 143.78 91.1624C143.93 91.0112 143.93 90.8601 143.93 90.8601ZM145.135 90.7089C145.135 90.5577 144.984 90.5577 144.834 90.5577C144.683 90.5577 144.683 90.5577 144.683 90.7089C144.683 90.7089 144.683 90.7089 144.683 90.8601C144.683 90.8601 144.683 91.0113 144.834 91.0113C144.834 91.0113 144.984 91.0112 145.135 90.8601V90.7089ZM138.962 83.9057C138.962 83.7546 138.811 83.6034 138.661 83.6034C138.51 83.6034 138.36 83.7546 138.36 83.9057C138.36 84.0569 138.51 84.2081 138.811 84.2081C138.811 84.2081 138.962 84.2081 138.962 83.9057ZM146.339 90.7089H146.038H145.887V91.1624H146.189C146.189 91.1624 146.189 91.1624 146.339 91.0113C146.339 90.8601 146.339 90.8601 146.339 90.7089ZM147.694 86.0223L146.941 85.7199C147.242 85.7199 147.242 85.4175 147.242 85.1152C147.242 84.964 147.092 84.8128 146.941 84.6616C146.791 84.5105 146.64 84.5105 146.49 84.3593C146.49 84.2081 146.339 83.9057 146.038 83.6034C145.737 83.301 145.586 82.9987 145.586 82.8475C145.586 82.6963 145.586 82.5451 145.737 82.3939H144.683C144.683 82.2427 144.382 82.0916 143.93 82.0916C143.629 81.9404 143.479 81.7892 143.479 81.4868C143.328 81.3357 143.177 81.3357 143.177 81.3357C143.027 81.3357 143.027 81.4868 143.027 81.638C143.027 81.638 143.027 81.7892 143.027 82.0916C143.027 82.2427 142.876 82.3939 142.726 82.3939C142.274 82.3939 142.124 82.2427 142.124 81.9404V81.7892H141.973V81.9404C141.973 82.0916 141.822 82.2427 141.672 82.3939C141.521 82.5451 141.22 82.5451 141.07 82.5451C140.919 82.6963 140.769 82.9986 140.769 83.301C140.769 83.7546 140.769 84.0569 140.618 84.2081C140.618 84.0569 140.468 83.9057 140.468 83.9057C140.468 83.7546 140.317 83.7546 140.166 83.7546C140.016 83.7546 139.865 83.9057 139.715 84.0569C139.715 84.0569 139.715 84.2081 139.865 84.3593C139.865 84.5105 140.016 84.5105 140.016 84.6616C140.016 84.6616 140.016 84.8128 139.865 84.964C139.865 85.1152 139.715 85.2664 139.715 85.4175C139.715 85.8711 139.715 86.627 139.865 87.5341C140.016 88.5924 140.166 89.1971 140.317 89.3483L140.618 89.0459C140.919 89.1971 141.07 89.4994 141.07 89.953C141.07 90.2553 141.22 90.5577 141.521 90.5577C141.521 90.5577 141.672 90.5577 141.822 90.4065C141.973 90.4065 141.973 90.2553 142.124 90.2553C142.425 90.2553 142.425 90.4065 142.575 90.5577C142.575 90.4065 142.575 90.5577 142.575 91.0113C142.575 91.1624 142.726 91.3136 143.027 91.3136C143.027 91.3136 143.177 91.3136 143.328 91.1624L143.479 90.5577C144.382 90.4065 144.984 90.2553 145.285 90.4065C145.285 90.2553 145.436 90.1042 145.586 90.1042C145.586 90.1042 145.737 90.1042 145.887 90.1042C146.038 90.1042 146.038 90.1042 146.189 90.1042C146.49 90.1042 146.49 89.953 146.49 89.6506C146.49 89.4994 146.189 89.3483 145.737 89.4994L145.285 89.1971C145.586 89.0459 145.887 89.0459 146.189 88.8947C146.49 88.7435 146.64 88.5924 146.791 88.29L147.393 88.7435L147.544 88.5924V88.4412C147.544 88.29 147.544 88.1388 147.393 87.9876C147.242 87.8364 147.092 87.8364 146.941 87.6853C146.941 87.5341 147.242 87.3829 147.544 87.2317V86.627C147.242 86.4758 147.393 86.1735 147.694 86.0223ZM139.564 81.3357V81.1845H139.414V81.3357H139.564ZM148.447 86.1735C148.447 86.0223 148.447 86.0223 148.296 86.0223C148.146 86.0223 148.146 86.0223 147.995 86.1735L148.146 86.3246H148.296C148.447 86.1735 148.447 86.1735 148.447 86.1735ZM146.941 82.5451C146.941 82.3939 146.791 82.3939 146.64 82.3939C146.339 82.3939 146.339 82.5451 146.339 82.6963C146.49 82.6963 146.49 82.8475 146.64 82.8475C146.941 82.6963 146.941 82.5451 146.941 82.5451ZM144.231 80.1262V79.975H144.081V80.1262H144.231ZM147.092 81.1845C147.092 81.0333 146.941 80.8821 146.791 80.8821C146.64 80.8821 146.49 81.0333 146.49 81.1845C146.49 81.3357 146.49 81.4868 146.64 81.4868C146.941 81.4868 147.092 81.3357 147.092 81.1845ZM149.2 86.9294C149.2 86.9294 149.2 87.0805 149.049 87.3829C149.049 87.6853 149.049 87.9876 149.049 87.9876C149.049 88.7435 148.748 89.4994 147.995 90.2553C147.544 90.4065 147.242 90.7089 146.791 91.1624C146.339 91.616 145.887 91.7672 145.285 91.7672C145.135 91.7672 144.984 91.9183 144.834 92.0695C144.683 92.2207 144.532 92.3719 144.532 92.3719C144.382 92.3719 144.382 92.2207 144.231 92.0695C144.081 91.9183 144.081 91.7672 143.93 91.7672L143.479 92.3719C143.328 92.2207 143.177 92.0695 142.876 91.7672C142.726 91.9183 142.575 92.0695 142.726 92.3719H142.575C142.425 92.3719 142.274 92.2207 141.973 91.9183C141.823 91.616 141.672 91.4648 141.371 91.4648C141.22 91.4648 141.07 91.4648 140.919 91.616L141.07 91.0113L140.919 90.7089L140.317 90.8601L140.618 91.1624L140.317 91.3136L140.166 90.8601L139.865 91.1624C139.865 91.1624 139.715 91.0113 139.564 90.5577C139.414 90.4065 139.263 90.2553 139.113 90.2553C139.113 90.2553 138.962 90.2553 138.811 90.2553L138.661 89.953L139.113 89.8018L139.414 89.4994L139.113 89.0459L138.51 89.4994C138.36 89.1971 138.209 88.7435 138.059 88.1388C137.908 87.5341 137.758 87.0805 137.607 86.7782C137.758 86.627 137.908 86.4758 137.908 86.1735C137.908 86.0223 137.908 85.8711 137.758 85.5687C137.607 85.2664 137.607 85.1152 137.607 84.964C137.607 84.8128 137.607 84.8128 137.607 84.6616C137.456 84.5105 137.456 84.3593 137.456 84.3593C137.456 84.2081 137.456 83.9057 137.607 83.6034C137.758 83.1498 137.758 82.9987 137.758 82.8475H137.908C137.908 82.8475 138.209 82.6963 138.51 82.5451V82.0916C138.51 81.4868 138.661 81.1845 138.962 80.8821C139.113 80.7309 139.564 80.5798 140.166 80.4286C140.769 80.2774 141.07 80.1262 141.371 79.8238C141.521 80.1262 141.672 80.2774 141.973 80.2774C142.124 80.2774 142.274 79.975 142.425 79.5215C142.575 79.5215 142.575 79.6727 142.726 79.975C142.876 80.2774 143.027 80.2774 143.177 80.2774C143.479 80.1262 143.479 79.8238 143.479 79.5215C144.532 79.5215 145.135 79.8239 145.586 80.4286C145.887 80.2774 146.038 80.1262 146.038 80.1262C146.189 80.1262 146.339 80.1262 146.64 80.2774C146.941 80.4286 147.092 80.4286 147.242 80.4286C147.242 80.8821 147.544 81.1845 147.995 81.4868C148.447 81.7892 148.748 82.2427 148.899 82.5451L149.35 85.4175C149.049 86.0223 149.049 86.0223 149.049 86.0223C149.049 86.1735 149.049 86.1735 149.2 86.4758C149.2 86.627 149.2 86.7782 149.2 86.9294Z" fill="#333333"/>
<path d="M169.675 95.2432L169.525 95.0921H169.374L169.675 95.2432ZM171.331 95.2432C171.181 95.0921 171.03 94.9409 170.88 94.9409C170.729 94.9409 170.579 95.0921 170.428 95.2432C170.428 95.3944 170.428 95.5456 170.579 95.6968C170.428 95.848 170.277 95.9992 170.277 95.9992C170.428 95.848 170.579 95.848 170.729 95.848C170.729 95.848 170.729 95.848 170.88 95.848H171.03C171.181 95.848 171.181 95.848 171.331 95.6968C171.482 95.5456 171.331 95.2432 171.331 95.2432ZM172.235 95.0921C172.235 94.9409 172.084 94.9409 172.084 94.9409C171.783 94.9409 171.783 95.0921 171.783 95.2432C171.783 95.3944 171.783 95.3944 171.934 95.5456C172.084 95.5456 172.235 95.3944 172.235 95.0921ZM174.644 95.3944V95.2432H174.493V95.3944H174.644ZM172.385 92.6732C172.235 92.522 172.235 92.3708 172.084 92.3708H171.934V92.6732H172.084C172.235 92.6732 172.235 92.6732 172.385 92.6732ZM172.235 88.7425C172.235 88.5913 172.235 88.5913 172.235 88.5913C172.084 88.5913 171.934 88.4401 171.783 88.4401C171.632 88.4401 171.482 88.5913 171.482 88.7425V88.8936C171.632 89.0448 171.632 89.0448 171.783 89.0448H171.934C171.934 89.0448 171.934 89.0448 172.084 89.0448C172.084 88.8936 172.235 88.8936 172.235 88.7425ZM173.59 85.7188C173.59 85.5677 173.439 85.4165 173.289 85.4165C172.987 85.4165 172.837 85.5677 172.837 86.0212C172.837 86.3236 172.987 86.3236 173.138 86.3236H173.289C173.59 86.1724 173.59 86.0212 173.59 85.7188ZM171.934 84.3582C171.934 84.3582 171.783 84.207 171.632 84.207V84.5094H171.934V84.3582ZM172.084 83.1488C172.084 82.9976 171.934 82.9976 171.783 82.9976C171.632 82.9976 171.632 82.9976 171.632 83.1488C171.632 83.2999 171.783 83.4511 171.934 83.4511C172.084 83.4511 172.084 83.2999 172.084 83.1488ZM175.697 86.0212V85.7188C175.697 85.7188 175.697 85.5677 175.547 85.5677C175.396 85.5677 175.396 85.5677 175.246 85.5677V85.87H175.697V86.0212ZM170.579 79.3692C170.579 79.2181 170.428 79.0669 170.127 79.0669C169.976 79.0669 169.675 79.2181 169.224 79.3692C169.224 79.6716 169.525 79.8228 169.826 79.8228H170.127C170.428 79.5204 170.579 79.5204 170.579 79.3692ZM171.934 81.0322V80.5787H171.482V81.0322H171.934ZM181.418 81.0322L180.816 81.1834L180.515 81.0322L180.816 80.5787C180.816 80.1251 180.666 79.974 180.515 79.974C180.515 79.974 180.214 79.974 179.913 80.1251L179.461 79.974L179.612 79.6716L179.913 79.8228L180.515 79.6716V79.2181L180.214 79.0669C180.214 79.0669 180.064 79.0669 179.913 79.2181C179.762 79.3692 179.612 79.3692 179.612 79.3692C179.461 79.3692 179.461 79.3692 179.311 79.2181C179.16 79.2181 178.859 79.2181 178.709 79.2181C178.257 79.2181 178.106 79.2181 178.106 79.2181C177.504 79.2181 177.203 79.5204 177.354 80.1251L176.902 79.5204C176.751 79.6716 176.3 79.6716 175.848 79.5204C175.396 79.3692 175.095 79.5204 174.945 79.974V80.1251L175.095 80.2763H174.644C174.794 80.1251 174.794 79.974 174.794 79.974L174.342 79.3692C174.192 79.3692 173.891 79.5204 173.439 79.5204C172.987 79.5204 172.837 79.6716 172.686 79.8228C172.837 80.1251 172.837 80.2763 172.837 80.2763C172.837 80.4275 172.686 80.7299 172.536 80.881C172.385 81.1834 172.235 81.3346 172.235 81.4858V81.6369C171.934 81.6369 171.934 81.4858 171.934 81.4858C171.632 81.4858 171.331 81.6369 171.331 81.7881L171.783 82.2417H171.934L172.536 81.7881C172.536 82.3929 172.686 82.9976 172.686 83.4511C172.837 84.3582 172.987 84.8117 173.289 84.8117C173.439 84.8117 173.74 84.6606 174.041 84.207L173.74 83.7535H173.59L174.041 83.6023V84.6606C174.192 84.6606 174.342 84.5094 174.644 84.5094C174.794 84.5094 175.095 84.5094 175.547 84.6606C175.848 84.6606 176.149 84.8117 176.45 84.8117C176.902 84.8117 177.203 84.6606 177.504 84.3582C177.504 84.0558 177.203 84.0558 176.601 84.0558L176.3 83.7535C176.601 83.7535 176.751 83.6023 177.052 83.6023C177.354 83.6023 177.504 83.4511 177.504 83.1488C177.504 82.9976 177.354 82.6952 177.203 82.3929L177.504 82.0905C177.655 82.0905 177.956 82.2417 178.407 82.544C178.257 82.6952 177.956 82.8464 177.655 83.1488L178.106 83.6023H178.709C178.709 83.6023 178.859 83.6023 179.311 83.7535C179.311 83.9047 179.01 84.0558 178.558 84.0558C178.106 84.0558 177.956 84.207 177.956 84.5094C177.956 84.5094 177.956 84.6606 178.106 84.8117L178.407 85.1141C178.407 85.2653 178.407 85.4165 178.257 85.5677C178.106 85.7188 178.106 85.87 178.106 86.0212L179.01 86.6259C178.558 86.6259 178.407 86.7771 178.407 87.2307C178.407 87.6842 178.257 87.9866 178.257 88.2889L177.504 87.8354L177.655 87.3818L177.052 86.7771C176.902 86.7771 176.601 86.7771 176.3 86.6259C175.848 86.4747 175.697 86.3236 175.547 86.3236V86.0212C175.547 85.7188 175.396 85.5677 174.945 85.5677C174.945 85.5677 174.794 85.7188 174.493 85.87L174.644 86.6259C173.74 86.6259 173.289 86.7771 173.289 86.9283C173.289 87.3818 173.289 87.9866 173.289 88.4401L173.138 89.196C172.536 89.196 172.235 89.4984 172.084 89.8007C172.084 90.1031 172.385 90.2543 172.686 90.2543C172.987 90.2543 173.138 90.2543 173.439 90.4055V90.7078H172.837L172.385 91.0102L172.686 91.6149H172.987C173.289 91.6149 173.439 91.9173 173.439 92.3708C173.59 92.8243 173.74 93.1267 173.891 93.1267L173.439 93.7314L173.891 94.185C174.041 94.185 174.192 94.185 174.342 94.0338C174.493 93.8826 174.644 93.8826 174.794 93.8826L175.246 94.3362C176.149 94.3362 176.601 94.6385 176.601 95.0921C176.601 95.2432 176.45 95.3944 176.3 95.5456C176.149 95.6968 175.999 95.848 176.149 95.9992C175.848 95.9992 175.697 96.1503 175.697 96.1503C175.396 96.1503 175.095 95.9992 174.644 95.848C174.644 95.2432 174.493 94.9409 174.041 94.9409C173.891 94.9409 173.59 95.0921 173.439 95.5456L173.74 96.1503C173.289 96.1503 172.987 96.3015 172.536 96.3015C171.934 96.3015 170.88 96.1503 169.675 95.9992C169.675 95.848 169.675 95.848 169.675 95.6968C169.675 95.6968 169.675 95.5456 169.675 95.3944C169.675 95.2432 169.675 95.2432 169.675 95.2432C169.675 94.7897 169.976 94.4873 170.428 94.4873C170.579 94.4873 170.729 94.4873 171.03 94.6385C171.331 94.7897 171.482 94.7897 171.632 94.7897L171.934 94.3362V94.0338L171.331 93.5803H171.181L171.331 93.4291L171.482 93.5803C171.934 93.4291 172.084 93.2779 172.084 92.9755C172.084 92.8243 171.934 92.6732 171.632 92.3708C171.482 92.2196 171.181 92.0684 171.03 91.9173C171.03 91.9173 171.331 91.7661 171.632 91.6149C171.934 91.6149 171.934 91.4637 171.934 91.1614V91.0102L171.482 90.7078L171.934 89.9519C171.934 89.8007 171.783 89.6495 171.482 89.4984C171.331 89.4984 171.03 89.3472 170.88 89.3472C170.88 89.3472 171.181 89.196 171.482 89.0448C171.632 88.8936 171.783 88.7425 171.934 88.5913C171.632 88.4401 171.482 88.2889 171.482 88.1377C171.482 87.9866 171.482 87.8354 171.632 87.6842C171.632 87.533 171.783 87.2306 171.783 87.0795L171.181 86.6259C171.632 86.4747 171.783 86.1724 171.783 85.87C171.783 85.7188 171.783 85.5677 171.632 85.4165C171.632 85.2653 171.482 84.9629 171.482 84.6606C171.482 84.3582 171.331 84.0558 170.88 83.9047L171.482 83.4511V83.1488C171.482 82.9976 171.331 82.8464 171.03 82.8464C170.729 82.6952 170.579 82.6952 170.579 82.544V82.2417L171.181 82.3929L171.331 82.0905L170.127 81.6369L169.675 81.1834C169.675 81.1834 169.976 81.1834 170.277 81.0322C170.579 81.0322 170.729 80.881 170.729 80.7299C170.729 80.4275 170.428 80.2763 169.976 80.1251C170.127 80.1251 169.675 80.1251 169.073 80.1251C168.471 80.1251 168.17 79.974 168.019 79.5204V79.2181C168.019 79.0669 167.869 78.9157 167.718 78.7645C167.417 78.6133 167.266 78.4621 167.266 78.4621C167.718 78.1598 168.621 78.0086 169.976 78.0086C170.729 78.0086 171.03 78.0086 171.331 78.1598C171.632 78.1598 171.934 78.0086 172.084 77.8574C172.235 77.8574 172.536 77.8574 172.686 78.0086C172.987 78.0086 173.138 78.1598 173.289 78.1598L173.439 78.0086C173.59 78.1598 173.891 78.311 174.041 78.311C174.192 78.311 174.493 78.311 174.794 78.1598C175.095 78.0086 175.396 78.0086 175.547 78.0086C175.848 78.0086 176.149 78.1598 176.3 78.311L176.601 78.0086C176.902 78.0086 177.354 78.0086 177.956 78.0086C178.709 78.0086 179.16 77.8574 179.311 77.8574C179.913 77.8574 180.365 78.0086 180.816 78.1598L180.666 78.7645L181.117 79.3692C180.666 79.6716 180.515 79.8228 180.515 79.974C180.515 80.1251 180.515 80.2763 180.666 80.4275C180.967 80.881 181.117 80.881 181.418 81.0322ZM180.967 83.9047H180.666L180.816 83.6023C180.967 83.6023 180.967 83.7535 180.967 83.9047ZM181.418 82.3929C181.268 82.544 181.117 82.6952 180.816 82.6952H180.666V82.0905C180.967 82.0905 181.117 82.2417 181.418 82.3929Z" fill="#333333"/>
<path d="M185.333 89.0454C185.333 88.7431 185.182 88.5919 185.032 88.5919C184.881 88.5919 184.731 88.7431 184.731 88.8942C184.731 88.8942 184.731 89.0454 184.881 89.1966C185.032 89.3478 185.032 89.3478 185.182 89.3478C185.182 89.3478 185.333 89.3478 185.333 89.1966C185.333 89.1966 185.333 89.0454 185.333 89.0454ZM190.151 92.6738C190.151 92.5226 190 92.3714 189.85 92.3714C189.548 92.3714 189.398 92.5226 189.398 92.825C189.398 93.1273 189.548 93.1273 189.85 93.1273C190 93.1273 190 93.1273 190 92.9761C190.151 92.6738 190.151 92.6738 190.151 92.6738ZM185.483 86.4753C185.483 86.3242 185.333 86.3242 185.333 86.3242C185.182 86.173 185.032 86.0218 184.881 86.0218C184.731 86.0218 184.731 86.0218 184.731 86.0218V86.7777H185.182C185.483 86.6265 185.483 86.6265 185.483 86.4753ZM194.366 91.4643V91.3131H194.216L194.366 91.4643ZM184.43 81.184V81.4864C184.43 81.4864 184.43 81.4864 184.43 81.3352V81.184ZM186.688 82.6958C186.688 82.5446 186.537 82.3935 186.387 82.3935C186.236 82.3935 186.086 82.3935 186.086 82.5446C186.086 82.6958 186.236 82.847 186.387 82.847C186.537 82.847 186.688 82.847 186.688 82.6958ZM194.968 90.1037V89.9525C194.818 89.8013 194.667 89.6501 194.517 89.6501H194.366L194.216 90.2549C194.517 90.4061 194.667 90.5572 194.667 90.5572C194.818 90.5572 194.968 90.4061 194.968 90.1037ZM193.764 87.6848C193.764 87.3824 193.613 87.2313 193.463 87.2313C193.312 87.2313 193.162 87.2313 193.011 87.3824C192.861 87.5336 192.861 87.5336 192.861 87.6848C192.861 87.836 193.011 87.836 193.162 87.836H193.312H193.463H193.613C193.613 87.9872 193.613 87.9872 193.764 87.6848C193.764 87.836 193.764 87.836 193.764 87.6848ZM193.764 85.5683C193.764 85.4171 193.764 85.4171 193.764 85.2659C193.764 85.2659 193.764 85.2659 193.764 85.1147C193.764 85.1147 193.764 85.1147 193.764 84.9635C193.764 84.9635 193.764 84.9635 193.764 84.8124C193.613 84.6612 193.613 84.6612 193.463 84.6612C193.162 84.6612 193.011 84.8124 193.011 85.2659L193.764 85.5683ZM193.613 83.6029C193.613 83.4517 193.613 83.4517 193.463 83.4517C193.162 83.4517 193.011 83.6029 193.011 83.7541C193.011 83.7541 193.011 83.7541 193.011 83.9053C193.011 83.9053 193.162 83.9053 193.162 84.0564C193.312 84.0564 193.312 84.2076 193.312 84.2076C193.613 83.9053 193.613 83.7541 193.613 83.6029ZM193.914 82.5446C193.914 82.2423 193.764 81.9399 193.312 81.9399C193.011 81.9399 192.861 82.0911 192.861 82.3935C193.162 82.6958 193.312 82.847 193.613 82.847H193.764C193.764 82.847 193.764 82.6958 193.914 82.6958C193.914 82.6958 193.914 82.6958 193.914 82.5446ZM197.076 92.2202V92.5226L196.624 92.0691C196.474 92.2202 196.323 92.3714 196.323 92.6738C196.323 92.9761 196.173 93.1273 195.721 93.1273L194.667 93.2785V93.1273C194.667 92.825 194.517 92.6738 194.216 92.5226L193.914 92.825L194.065 93.2785C193.463 93.2785 193.162 93.1273 193.162 92.6738L193.011 92.3714L192.71 92.6738C192.559 92.6738 192.409 92.5226 192.258 92.3714C192.108 92.2202 191.957 92.0691 191.807 92.0691C191.656 92.2202 191.656 92.2202 191.506 92.5226C191.355 92.6738 191.355 92.825 191.204 92.9761C191.204 92.6738 191.054 92.5226 190.903 92.3714C190.452 92.3714 190.301 92.6738 190.301 93.1273C190.301 93.4297 190.151 93.5809 189.699 93.5809C189.247 93.5809 188.946 93.732 188.796 93.732C188.495 93.5809 188.344 93.4297 188.344 93.4297C188.193 93.4297 187.892 93.5809 187.591 93.732L187.29 93.5809C187.441 93.4297 187.441 93.1273 187.591 92.825L187.441 92.5226L187.14 92.3714L186.537 93.2785C186.387 92.825 186.236 92.6738 185.785 92.6738C185.483 92.6738 185.182 92.3714 185.182 91.9179C185.182 91.7667 185.182 91.6155 185.032 91.4643C184.881 91.3131 184.881 91.162 184.881 91.0108L185.182 90.5572L185.032 90.1037L184.43 89.8013C184.43 89.6502 184.43 89.499 184.279 89.3478C184.279 89.1966 184.128 89.0454 184.128 88.8942C184.128 88.8942 184.128 88.7431 184.279 88.5919H184.58C184.881 88.5919 185.032 88.4407 185.182 88.2895C185.182 88.1383 185.182 87.9872 185.182 87.836C185.182 87.6848 185.032 87.5336 184.881 87.5336C184.731 87.5336 184.58 87.6848 184.279 88.1383V85.5683L184.881 86.0218L185.333 85.4171C185.182 85.1147 185.032 84.9635 184.881 84.9635C184.881 84.9635 184.58 85.1147 184.279 85.2659C184.279 85.1147 184.128 84.9635 184.128 84.6612C184.128 84.51 184.128 84.3588 184.279 84.0564C184.279 83.7541 184.43 83.6029 184.43 83.4517C184.43 83.1494 184.279 82.847 183.978 82.6958L183.225 82.847L182.773 82.5446C182.924 82.3935 182.924 82.0911 183.075 81.9399C183.225 81.7887 183.225 81.4864 183.225 81.3352C183.526 81.3352 183.677 81.4864 183.677 81.4864C183.827 81.4864 184.128 81.4864 184.43 81.3352C184.731 81.184 185.032 81.184 185.333 81.184C185.634 81.184 185.935 81.3352 186.236 81.4864L185.935 82.0911C185.935 82.2423 186.086 82.3935 186.236 82.2423L186.838 82.0911C186.537 82.5446 186.537 83.1494 186.688 83.7541C186.537 83.7541 186.236 83.9053 186.086 83.9053C185.935 83.9053 185.785 84.0565 185.634 84.2076C185.785 84.3588 185.785 84.51 185.785 84.8124C185.785 84.9635 185.785 84.9635 185.785 85.1147C185.785 85.2659 185.785 85.4171 185.785 85.4171C185.785 85.7194 185.935 85.8706 186.086 86.0218C186.086 86.0218 185.935 86.173 185.935 86.3242C185.785 86.4753 185.785 86.6265 185.785 86.7777C185.785 86.9289 185.935 87.0801 186.086 87.0801C186.236 87.0801 186.387 87.2313 186.387 87.3824L185.785 87.836C185.785 88.2895 185.935 88.5919 186.387 88.7431L186.086 89.1966L186.387 89.8013C185.935 89.8013 185.785 89.9525 185.634 90.2549C185.935 90.8596 186.387 91.162 187.14 91.0108L186.989 91.4643L187.29 91.6155L187.591 91.162C187.742 91.3131 187.742 91.4643 187.892 91.6155C187.892 91.7667 187.892 91.9179 187.892 92.2202C187.892 92.5226 187.892 92.6738 187.892 92.6738C187.892 93.1273 188.043 93.4297 188.495 93.4297C188.645 93.4297 188.796 93.2785 188.796 93.1273C188.796 92.9761 188.796 92.825 188.645 92.6738C188.645 92.5226 188.495 92.3714 188.495 92.2202C188.495 92.069 188.495 92.069 188.645 91.9179C188.796 91.9179 188.946 91.9179 189.097 91.9179C189.247 91.9179 189.398 91.9179 189.398 91.9179C189.85 91.9179 190 91.6155 190 90.8596H190.151C190.151 91.3131 190.301 91.6155 190.602 91.7667C190.753 91.6155 190.903 91.162 190.903 90.7084C190.903 90.1037 191.054 89.6502 191.054 89.499C191.807 89.1966 192.108 88.8942 192.258 88.5919C192.409 88.4407 192.409 87.836 192.409 87.0801C192.409 86.6265 192.409 86.0218 192.258 85.2659C192.258 84.51 192.108 83.9053 192.108 83.4517C191.807 83.4517 191.506 83.1494 191.054 82.847C190.602 82.3935 190.301 82.2423 190 82.2423C189.85 81.9399 189.85 81.6376 189.85 81.6376C190.151 81.7887 190.452 81.9399 190.602 81.9399C190.753 81.9399 190.903 81.7887 191.054 81.4864C191.205 81.184 191.204 81.0328 191.355 81.0328C191.355 81.0328 191.506 81.184 191.506 81.3352C191.506 81.4864 191.656 81.6376 191.807 81.6376C191.957 81.6376 191.957 81.6376 192.108 81.4864C192.258 81.3352 192.409 81.3352 192.409 81.3352L192.71 81.6376C192.861 81.6376 193.011 81.4864 193.162 81.184C193.312 80.8816 193.463 80.8816 193.463 80.8816C193.463 80.8816 193.613 80.8816 193.764 81.0328C193.764 81.184 193.613 81.3352 193.463 81.6376C193.613 81.7887 193.914 81.9399 194.216 82.2423L193.914 82.6958C193.914 82.6958 194.065 82.847 194.366 82.9982C194.517 83.1494 194.667 83.3005 194.667 83.4517H194.517C193.914 83.4517 193.764 83.6029 193.764 84.0564C193.764 84.3588 193.914 84.51 194.366 84.51C194.667 84.51 194.968 84.6612 194.968 84.8124H194.667C194.216 84.8124 193.914 84.9635 193.914 85.4171C193.914 86.3242 193.914 86.7777 193.914 86.7777C194.216 87.0801 194.366 87.2313 194.667 87.0801C194.517 87.2313 194.216 87.3824 193.914 87.836C194.065 88.1383 194.216 88.2895 194.216 88.2895C194.216 88.4407 194.216 88.5919 194.065 88.7431C193.914 88.8942 193.914 89.0454 193.914 89.1966C193.914 89.499 194.065 89.6501 194.216 89.6501C193.914 89.6501 194.216 89.6501 194.818 89.6501C194.968 89.6501 195.119 89.9525 195.119 90.4061C195.119 90.7084 195.269 90.8596 195.42 91.0108L195.119 91.162V91.4643L195.42 91.9179L196.022 91.7667V91.3131C196.022 91.4643 196.173 91.7667 196.624 91.9179C196.926 91.7667 197.076 91.9179 197.076 92.2202ZM186.989 80.8816L186.838 80.7305H186.989V80.8816Z" fill="#333333"/>
<path d="M201.593 92.9764C201.593 92.8252 201.593 92.8252 201.593 92.8252C201.593 92.8252 201.593 92.8252 201.442 92.8252C201.292 92.8252 201.292 92.9764 201.292 93.1275L201.593 92.9764C201.593 93.1276 201.593 93.1276 201.593 92.9764ZM202.797 92.2205V91.7669C202.797 91.7669 202.797 91.7669 202.647 91.7669C202.647 91.7669 202.647 91.7669 202.496 91.7669H202.346C202.195 91.7669 202.195 91.7669 202.195 91.9181V92.0693C202.195 92.3716 202.346 92.5228 202.496 92.5228C202.647 92.3716 202.647 92.3716 202.797 92.2205ZM205.658 92.2205C205.658 92.2205 205.658 92.0693 205.507 91.9181C205.357 91.7669 205.357 91.6157 205.357 91.6157V91.4646C205.357 91.3134 205.206 91.3134 205.056 91.3134H204.905H204.754C204.604 91.4646 204.453 91.6157 204.453 91.7669C204.453 91.9181 204.604 92.0693 204.905 92.0693C205.206 92.2205 205.357 92.3716 205.357 92.5228C205.658 92.3716 205.658 92.2205 205.658 92.2205ZM204.002 90.4063C204.002 90.1039 203.851 90.1039 203.701 90.1039C203.399 90.1039 203.249 90.2551 203.249 90.4063L203.399 90.5575C203.399 90.5575 203.399 90.5575 203.55 90.5575C203.55 90.5575 203.701 90.5575 203.701 90.4063C204.002 90.5575 204.002 90.4063 204.002 90.4063ZM206.561 91.3134C206.41 91.1622 206.411 91.1622 206.26 91.1622C205.959 91.1622 205.808 91.3134 205.808 91.4646C205.808 91.6157 205.959 91.6157 206.109 91.6157C206.41 91.6157 206.561 91.4646 206.561 91.3134ZM203.701 86.3244C203.55 86.3244 203.55 86.3244 203.701 86.3244C203.399 86.3244 203.399 86.3244 203.399 86.4756C203.399 86.4756 203.399 86.4756 203.55 86.4756C203.55 86.6268 203.55 86.4756 203.701 86.3244ZM204.002 84.0567C204.002 83.9055 203.851 83.7543 203.701 83.7543C203.399 83.7543 203.249 83.9055 203.249 84.0567C203.249 84.2079 203.249 84.2079 203.399 84.359C203.55 84.359 203.55 84.5102 203.701 84.6614C203.851 84.2079 204.002 84.0567 204.002 84.0567ZM205.357 83.9055C205.357 83.7543 205.357 83.7543 205.206 83.6031C205.056 83.6031 205.056 83.452 204.905 83.452C205.206 83.1496 205.357 82.9984 205.357 82.6961C205.357 82.5449 205.206 82.3937 205.056 82.3937C204.754 82.2425 204.604 82.2425 204.604 82.0913C204.604 82.2425 204.604 82.2425 204.453 82.3937C204.453 82.5449 204.303 82.6961 204.303 82.6961C204.303 82.8472 204.453 82.9984 204.604 82.9984H204.453C204.453 82.9984 204.453 83.1496 204.604 83.1496C204.754 83.1496 204.754 83.1496 204.754 83.3008C204.754 83.3008 204.604 83.452 204.453 83.6031C204.303 83.7543 204.303 83.9055 204.303 83.9055C204.303 84.0567 204.453 84.0567 204.604 84.0567C204.905 84.0567 205.056 83.9055 205.206 83.7543C205.357 84.0567 205.357 84.0567 205.357 83.9055ZM211.68 83.3008C211.379 83.9055 211.228 84.359 211.228 84.5102C211.078 84.5102 210.927 84.6614 210.626 84.6614C210.325 84.8126 210.174 84.8126 210.024 84.8126C210.024 84.8126 209.873 84.8126 209.572 84.6614V84.5102L210.024 83.9055L210.174 84.2079H210.475C210.777 84.2079 210.927 84.0567 211.078 83.7543C211.078 83.6031 211.078 83.452 211.078 83.3008C211.078 82.9984 211.078 82.8472 211.078 82.8472C211.078 82.5449 210.927 82.2425 210.626 82.2425C210.174 82.2425 209.873 82.6961 210.024 83.6031L209.873 82.9984L210.024 82.8472L209.873 82.2425C209.422 82.0913 209.12 82.0913 208.819 82.0913C208.368 82.0913 208.067 82.2425 207.765 82.5449C207.464 82.3937 207.314 82.2425 207.013 82.2425H206.862L206.712 82.6961C206.411 82.5449 206.26 82.3937 206.109 82.3937C205.808 82.3937 205.658 82.5449 205.658 82.6961C205.507 82.9984 205.507 83.3008 205.357 83.3008L205.808 83.452C205.658 83.6031 205.507 83.7543 205.507 84.0567C205.357 84.359 205.206 84.5102 204.905 84.5102L204.453 84.9638C204.453 85.115 204.453 85.2661 204.604 85.4173C204.754 85.5685 204.754 85.7197 204.754 85.8709L204.453 86.3244C204.604 86.6268 204.754 86.7779 204.754 86.7779C204.754 86.9291 204.754 87.0803 204.604 87.3827C204.453 87.685 204.453 87.8362 204.453 87.9874L205.056 88.5921L204.604 89.0457L204.152 88.8945L203.55 89.348C203.55 89.6504 203.701 89.8016 203.851 89.8016C204.002 89.8016 204.002 89.8016 204.303 89.6504C204.453 89.6504 204.604 89.4992 204.754 89.4992L205.056 89.6504C204.754 89.9527 204.604 90.2551 204.604 90.2551C204.905 90.4063 205.357 90.5575 206.26 90.7087C207.013 90.8598 207.615 91.011 207.765 91.1622C208.217 91.4646 208.518 91.9181 208.518 92.5228C208.518 92.5228 208.368 92.8252 208.217 93.2787C208.067 93.2787 207.765 93.1276 207.314 92.9764C206.862 92.8252 206.561 92.674 206.26 92.5228H206.109L205.959 92.8252L206.109 92.9764C205.959 92.9764 205.658 93.1275 205.357 93.1275C204.905 93.1275 204.754 92.9764 204.604 92.674C204.453 92.3716 204.303 92.2205 204.002 92.2205C204.002 92.2205 203.851 92.2205 203.701 92.2205C203.399 92.8252 202.647 93.1275 201.292 93.1275C200.388 93.1275 199.937 93.1275 199.937 93.1275C199.786 93.1275 199.636 92.8252 199.636 92.2205C199.636 91.9181 199.636 91.7669 199.485 91.4646C199.636 91.4646 199.786 91.4646 200.087 91.6157C200.388 91.7669 200.539 91.7669 200.689 91.7669C200.84 91.7669 200.84 91.7669 200.991 91.7669C201.141 91.9181 201.442 92.0693 201.593 92.0693C201.743 91.9181 202.044 91.4646 202.195 91.011C202.044 90.7087 202.044 90.5575 202.044 90.4063C202.346 90.4063 202.647 90.5575 202.647 90.5575C202.647 90.5575 202.797 90.5575 203.249 90.4063C203.249 90.1039 203.249 89.6504 203.399 89.1968C203.399 88.5921 203.55 88.2898 203.55 87.9874C203.55 87.3827 203.399 86.9291 203.098 86.6268C203.249 86.4756 203.399 86.3244 203.399 86.022C203.399 85.7197 203.399 85.5685 203.399 85.2661V84.9638L203.851 85.115L204.303 84.9638L204.453 84.6614L203.851 84.359L203.701 84.5102C203.55 84.359 203.399 84.0567 203.399 83.9055C203.399 83.7543 203.399 83.452 203.55 83.3008C203.701 82.9984 203.701 82.6961 203.851 82.6961L204.303 82.8472L204.604 82.3937L204.453 81.6378C204.303 81.6378 204.152 81.4866 204.152 81.4866C203.851 81.4866 203.55 81.6378 203.399 81.9402V82.0913L202.797 81.789C202.647 81.789 202.346 81.9401 202.195 81.789C201.743 81.789 201.442 81.789 201.442 81.789L201.141 82.0913C201.141 81.9401 201.141 81.789 200.991 81.6378C200.84 81.4866 200.84 81.3354 200.84 81.1842C200.84 81.1842 200.84 81.0331 200.991 80.8819C201.141 80.7307 201.141 80.5795 201.141 80.4283L200.238 80.2772L199.937 80.7307L200.087 80.8819L200.388 81.1842L200.238 81.6378L200.388 81.789C200.238 81.6378 200.087 81.4866 199.786 81.4866C199.786 81.3354 199.786 81.1842 199.636 80.8819C199.636 80.5795 199.485 80.4283 199.485 80.4283C199.636 80.2772 199.937 80.2772 200.388 80.2772C200.539 80.2772 200.689 80.2772 200.991 80.2772C201.292 80.2772 201.442 80.2772 201.593 80.2772C201.442 80.4283 201.292 80.5795 201.292 80.8819L201.593 81.1842C201.743 81.1842 201.894 81.0331 202.195 80.7307V80.2772C202.346 80.2772 202.346 80.4283 202.496 80.7307C202.496 81.0331 202.647 81.1842 202.797 81.1842C202.948 81.1842 203.249 81.1842 203.55 81.1842C204.002 81.1842 204.152 81.3354 204.303 81.3354C204.604 81.3354 204.754 81.1842 204.905 81.0331C205.056 81.1842 205.206 81.1842 205.507 81.1842H205.658L206.109 80.7307L206.26 81.0331C206.26 81.1842 206.109 81.4866 205.808 81.6378L205.959 81.9402C206.26 81.789 206.561 81.4866 206.862 81.3354C207.163 81.1842 207.314 80.8819 207.163 80.4283L207.314 80.126H207.464C207.765 80.126 207.916 80.2772 207.916 80.5795C207.916 80.7307 207.916 81.0331 207.765 81.3354C207.916 81.4866 208.067 81.6378 208.368 81.6378C208.97 81.6378 209.271 81.6378 209.271 81.6378C209.422 81.4866 209.723 81.1842 210.174 81.1842L210.024 80.8819H209.723V80.2772L210.325 80.126C210.475 80.2772 210.475 80.5795 210.626 81.0331C210.777 81.4866 210.777 81.789 210.927 81.9402L211.68 81.6378C211.68 81.6378 211.83 81.9401 211.83 82.3937C211.379 83.3008 211.529 83.452 211.68 83.3008ZM202.195 83.452C202.044 83.452 202.044 83.452 202.195 83.452C202.044 83.6031 202.044 83.6031 202.044 83.6031H201.894C201.743 83.6031 201.743 83.6031 201.743 83.452L201.894 83.3008L202.195 83.452ZM206.712 83.6031H206.411L206.561 83.3008C206.561 83.3008 206.561 83.3008 206.712 83.6031ZM208.368 81.4866H208.067V81.3354C208.067 81.1842 208.067 81.1842 208.217 81.1842C208.368 81.1842 208.368 81.1842 208.368 81.3354V81.4866Z" fill="#333333"/>
<path d="M219.81 89.8013C219.81 89.6502 219.81 89.6502 219.659 89.499C219.358 89.499 219.208 89.6502 219.208 89.8013C219.208 90.1037 219.358 90.2549 219.509 90.2549C219.659 90.1037 219.81 90.1037 219.81 89.8013ZM222.219 92.2202V92.0691C222.068 91.9179 222.068 91.9179 222.068 91.9179C221.918 92.2202 221.918 92.2202 221.918 92.2202V92.3714L222.219 92.2202C222.219 92.3714 222.219 92.3714 222.219 92.2202ZM219.509 88.5919C219.358 88.4407 219.358 88.4407 219.208 88.4407H219.057V88.7431H219.358C219.509 88.7431 219.509 88.5919 219.509 88.5919ZM219.358 86.4754L219.208 86.3242V86.4754H219.358ZM217.25 82.0911C217.25 81.9399 217.25 81.9399 217.1 81.9399C217.1 81.9399 216.949 82.0911 216.949 82.2423C216.949 82.3935 217.1 82.3935 217.1 82.3935C217.1 82.3935 217.1 82.3935 217.25 82.0911ZM219.509 84.3588H219.208V84.6612H219.358C219.509 84.6612 219.509 84.51 219.509 84.3588ZM219.81 83.3005C219.81 83.1494 219.659 82.9982 219.358 82.9982C219.057 82.9982 218.906 83.1494 218.906 83.4517C218.906 83.6029 219.057 83.7541 219.358 83.7541C219.509 83.7541 219.509 83.7541 219.659 83.6029C219.81 83.4517 219.81 83.4517 219.81 83.3005ZM218.605 82.2423C218.605 82.0911 218.605 82.0911 218.455 82.0911C218.304 82.0911 218.154 82.2423 218.154 82.3935L218.304 82.5446C218.455 82.3935 218.605 82.3935 218.605 82.2423ZM219.659 82.0911C219.509 81.7887 219.509 81.7887 219.358 81.7887C219.358 81.7887 219.208 81.9399 219.208 82.3935H219.509C219.659 82.3935 219.659 82.2423 219.659 82.0911ZM219.81 80.8816C219.81 80.7305 219.659 80.7305 219.509 80.7305C219.358 80.7305 219.208 80.8816 219.208 81.0328V81.184C219.208 81.3352 219.208 81.3352 219.358 81.3352C219.659 81.3352 219.81 81.184 219.81 80.8816ZM221.315 82.0911C221.315 81.7887 221.165 81.7887 220.864 81.7887H220.713C220.412 81.7887 220.261 81.9399 220.261 82.3935V82.5446H220.412C220.563 82.5446 220.563 82.5446 220.563 82.5446C220.713 82.5446 220.713 82.5446 220.864 82.3935C221.165 82.2423 221.315 82.2423 221.315 82.0911ZM221.014 80.7305L220.864 80.5793C220.864 80.5793 220.713 80.5793 220.563 80.7305C220.412 80.7305 220.412 80.8816 220.261 80.8816C220.412 81.0328 220.563 81.184 220.713 81.184C220.864 81.184 221.014 81.0328 221.014 80.7305ZM219.96 79.6722C219.81 79.521 219.659 79.3698 219.659 79.3698C219.358 79.3698 219.358 79.521 219.358 79.9746C219.509 80.1257 219.659 80.1257 219.659 80.1257H219.81L219.96 79.9746C219.96 79.9746 219.96 79.8234 219.96 79.6722ZM219.81 78.6139C219.659 78.3116 219.659 78.1604 219.509 78.1604C219.509 78.1604 219.509 78.1604 219.358 78.1604V78.6139H219.81C219.81 78.7651 219.81 78.7651 219.81 78.6139ZM225.531 89.0454C225.531 89.3478 225.38 89.8013 225.38 90.7084C225.38 92.0691 225.079 92.825 224.326 92.9761C224.176 93.2785 224.025 93.4297 223.574 93.4297C223.122 93.4297 222.67 93.4297 222.52 93.5809C222.369 93.1273 222.219 92.9761 222.068 92.9761C221.918 92.9761 221.616 93.1273 221.466 93.2785C221.165 93.4297 221.014 93.5809 220.864 93.5809C220.864 93.5809 220.713 93.5809 220.563 93.4297L220.713 93.1273L220.563 92.9761L220.111 93.2785C219.358 93.2785 218.906 91.6155 218.906 88.4407C218.906 87.9872 218.906 87.5336 218.906 87.0801C218.906 86.6265 218.906 86.3242 218.906 86.173C218.906 84.9635 218.906 84.0565 218.756 83.3005C218.455 82.9982 218.003 82.847 217.25 82.6958C216.648 82.6958 216.046 82.6958 215.594 82.6958L215.895 82.2423C215.895 81.9399 215.745 81.6376 215.444 81.4864C215.895 81.3352 216.046 81.184 216.046 81.184C216.347 81.184 216.648 81.184 217.1 81.3352C217.551 81.4864 218.003 81.4864 218.154 81.4864C218.455 81.4864 218.756 81.3352 218.906 81.0328L218.756 80.7305C219.057 80.1257 219.208 79.0675 219.208 77.7068C219.96 77.7068 220.111 77.5557 219.96 77.5557C220.412 77.5557 220.713 77.858 220.713 78.3116C220.713 78.4628 220.713 78.7651 220.563 79.0675C220.563 79.3698 220.412 79.6722 220.412 79.6722C220.412 80.1257 220.563 80.4281 221.014 80.4281C221.315 80.8817 221.767 81.184 222.369 81.184C222.67 81.184 223.122 81.0328 223.875 80.8816C224.025 81.3352 224.176 81.6376 224.176 81.9399C224.176 81.9399 224.176 82.0911 224.025 82.5446H223.724V81.6376H223.574C223.273 81.6376 223.122 81.7887 223.122 82.0911C223.122 82.3935 222.821 82.5446 222.369 82.5446C222.369 82.5446 222.52 82.3935 222.67 82.2423C222.821 82.0911 222.821 82.0911 222.821 81.9399C222.821 81.9399 222.821 81.7887 222.67 81.6376C222.52 81.4864 222.52 81.3352 222.369 81.3352C221.918 81.4864 221.616 81.7887 221.616 82.2423L221.918 82.5446C221.767 82.6958 221.466 82.6958 221.014 82.847C220.563 82.847 220.412 82.9982 220.412 83.3005C220.412 83.6029 220.412 84.2076 220.563 84.8124C220.563 85.4171 220.713 86.0218 220.713 86.3242C220.713 86.4753 220.713 86.6265 220.864 86.9289C221.014 87.2313 221.014 87.3824 221.014 87.5336C221.014 87.6848 221.014 88.1383 220.864 88.4407C220.713 88.8942 220.713 89.1966 220.713 89.3478C220.713 89.8013 221.014 90.2549 221.466 90.7084C222.068 91.162 222.52 91.4643 222.971 91.4643C223.273 91.4643 223.423 91.6155 223.423 91.9179L223.724 92.0691C223.724 91.6155 223.875 91.3131 224.176 91.162C224.176 91.162 224.477 91.162 224.778 91.0108C224.929 91.0108 225.079 90.8596 225.079 90.7084C225.079 90.5572 225.079 90.4061 224.929 90.2549C224.929 89.9525 225.23 89.6502 225.531 89.0454Z" fill="#333333"/>
<path d="M230.048 91.9174C230.048 91.7662 230.048 91.7662 229.897 91.7662C229.897 91.7662 229.897 91.7662 229.747 91.7662H229.596C229.596 91.7662 229.596 91.7662 229.596 91.9174C229.596 92.0686 229.747 92.0686 229.897 92.0686C230.048 92.0686 230.048 92.0686 230.048 91.9174ZM239.984 92.2198V92.0686C239.984 92.0686 239.984 91.9174 239.834 91.9174C239.683 91.9174 239.683 91.9174 239.683 92.0686V92.2198H239.984ZM232.607 83.9048V83.7536C232.607 83.6024 232.457 83.6024 232.306 83.6024C232.156 83.6024 232.005 83.6024 232.005 83.7536C232.156 83.9048 232.306 84.056 232.457 84.056C232.457 83.9048 232.607 83.9048 232.607 83.9048ZM232.607 82.393C232.607 82.2418 232.457 82.0906 232.005 82.0906C231.855 82.0906 231.855 82.2418 231.855 82.393C231.855 82.5442 231.855 82.5442 232.005 82.6954C232.005 82.6954 232.005 82.6954 232.156 82.6954C232.306 82.6954 232.457 82.5442 232.607 82.393ZM242.845 91.9174L242.544 91.7662V92.2198H242.845C242.694 92.2198 242.845 92.2198 242.845 91.9174ZM231.252 80.1253V79.8229H231.102L231.252 80.1253ZM240.737 89.6497L240.587 89.4985V89.6497H240.737ZM232.607 81.0324C232.457 81.0324 232.457 80.8812 232.457 80.73C232.457 80.5788 232.306 80.4276 232.306 80.4276C232.306 80.5788 232.306 80.5788 232.457 80.73L232.156 81.0324L232.005 80.5788L231.855 81.0324C231.855 81.0324 231.855 81.1835 232.005 81.3347C232.005 81.4859 232.156 81.4859 232.156 81.4859H232.306C232.457 81.3347 232.607 81.1835 232.607 81.0324ZM241.49 89.952C241.339 89.8009 241.339 89.8009 241.339 89.4985V89.3473C241.339 89.1961 241.339 89.1961 241.339 89.1961H241.189C240.888 89.1961 240.737 89.3473 240.737 89.4985V89.6497C241.038 89.8009 241.189 89.952 241.49 89.952ZM229.295 77.2528V76.9505C229.295 76.9505 229.295 76.7993 229.145 76.7993C229.145 76.7993 229.145 76.7993 228.994 76.9505C229.145 77.1017 229.145 77.1017 229.295 77.2528ZM241.189 87.2308L241.038 86.3237C240.888 86.3237 240.737 86.4749 240.737 86.6261C240.737 86.6261 240.737 86.7772 240.888 86.9284C241.038 87.0796 241.038 87.2308 241.189 87.2308ZM244.351 92.6733V93.278L243.146 93.5804L242.544 93.1269L241.942 93.5804C241.641 93.5804 241.038 93.5804 240.436 93.5804C239.683 93.5804 239.232 93.7316 238.931 93.7316H238.027C238.027 93.5804 237.877 93.4292 237.726 93.278C237.576 93.1269 237.425 92.9757 237.425 92.8245L237.726 92.3709L237.576 92.0686L238.178 91.4639H238.328C238.479 91.1615 238.78 91.0103 239.081 91.0103L239.683 91.3127L240.286 90.708C239.834 90.708 239.533 90.5568 239.232 90.2544V90.1032H239.533C239.984 90.1032 240.286 89.8009 240.436 89.3473L239.984 88.8938L239.533 89.045V89.1961L239.232 89.045C239.232 88.8938 239.533 88.7426 239.984 88.5914C240.286 88.4402 240.436 88.2891 240.436 87.9867L240.286 87.8355L239.834 88.1379L239.382 87.382V87.2308L239.683 87.0796L240.286 87.5332C240.436 87.5332 240.587 87.2308 240.737 86.6261C240.587 86.6261 240.436 86.4749 240.286 86.3237C240.135 86.1725 239.984 86.1725 239.834 86.0213C239.834 85.8702 239.984 85.719 240.135 85.5678C240.286 85.4166 240.436 85.2654 240.436 85.1143C240.436 84.9631 240.286 84.6607 239.984 84.6607C239.683 84.5095 239.533 84.5095 239.533 84.2072H239.834C239.984 84.2072 240.135 84.2072 240.436 84.056C240.587 83.9048 240.737 83.9048 240.737 83.7536L240.286 83.1489C239.834 83.3001 239.683 83.4513 239.683 83.4513C239.533 83.4513 239.232 83.3001 238.931 83.1489C238.629 82.8465 238.328 82.8465 238.178 82.6954C238.629 82.6954 238.931 82.5442 239.081 82.393V82.0906C238.178 81.7883 237.274 81.6371 236.221 81.6371C236.07 81.6371 235.919 81.7883 235.919 82.2418H235.618V82.0906C235.618 81.7883 235.468 81.4859 235.016 81.4859C234.715 81.6371 234.565 82.0906 234.565 82.9977L234.263 82.6954L233.812 82.8465C233.812 82.9977 233.661 83.3001 233.661 83.7536C233.661 84.3584 233.511 84.6607 233.21 84.6607V84.5095L232.758 84.2072L232.607 84.6607L233.059 84.9631L233.21 84.8119L233.661 85.4166V86.1725C233.511 86.3237 233.36 86.3237 232.908 86.3237C232.607 86.3237 232.457 86.4749 232.457 86.9284L233.059 87.382C232.758 87.6843 232.607 87.9867 232.607 88.2891L233.36 88.7426C233.36 88.8938 233.21 89.045 233.059 89.1961C232.758 89.3473 232.758 89.4985 232.758 89.8009C233.059 89.9521 233.059 90.1032 233.059 90.2544C233.059 90.2544 233.059 90.5568 232.908 91.0103L233.36 91.3127L233.812 91.1615L234.414 91.615C234.263 91.9174 234.263 92.0686 234.263 92.0686C234.263 92.2198 234.414 92.3709 234.866 92.5221L235.167 92.0686L234.715 91.7662L235.167 91.615C235.167 91.615 235.317 91.7662 235.468 92.2198C235.618 92.5221 235.618 92.6733 235.919 92.6733H236.07L236.371 92.2198L235.919 91.7662L236.672 91.615L236.371 92.0686C236.522 92.6733 236.672 92.8245 236.672 92.8245C236.672 93.1269 236.522 93.278 236.07 93.278C235.618 93.4292 235.317 93.4292 235.317 93.5804C235.167 93.4292 235.016 93.4292 234.866 93.4292C234.715 93.4292 234.565 93.4292 234.414 93.5804C234.263 93.7316 233.962 93.7316 233.962 93.7316L233.511 93.278C233.21 93.278 232.607 93.4292 231.855 93.4292C231.102 93.4292 230.65 93.5804 230.198 93.7316C230.048 93.5804 229.897 93.4292 229.747 93.278C229.747 93.1269 229.596 92.9757 229.596 92.8245L229.145 93.4292C228.994 93.1269 228.994 92.8245 228.994 92.8245V92.5221H230.048L229.897 91.615C230.349 91.4639 230.951 91.3127 231.704 91.1615L232.156 91.3127L232.457 90.708C232.306 90.708 232.005 90.5568 231.403 90.4056V90.2544C231.403 90.1032 231.553 89.9521 232.005 89.8009C232.306 89.8009 232.607 89.6497 232.607 89.3473V89.1961C232.457 89.045 232.156 88.8938 232.005 88.7426C231.855 88.5914 231.704 88.4402 231.553 88.2891H231.704L232.306 88.5914L232.607 88.2891C232.607 87.9867 232.457 87.8355 232.306 87.6843C232.156 87.6843 232.005 87.6843 231.704 87.6843V87.5332C231.704 87.382 231.855 87.2308 232.156 87.0796C232.457 86.9284 232.607 86.7772 232.607 86.6261C232.607 86.4749 232.306 86.1725 231.855 86.1725C231.855 86.0213 232.005 85.8702 232.306 85.719C232.607 85.5678 232.758 85.4166 232.758 85.2654V85.1143C232.607 84.9631 232.457 84.6607 232.457 84.5095C232.457 84.2072 232.457 84.056 232.607 83.7536L232.005 83.1489C232.457 82.9977 232.607 82.6954 232.607 82.393C232.607 82.393 232.607 82.2418 232.457 82.0906L231.855 81.7883L232.457 81.1835L231.704 80.4276L232.005 79.9741V80.1253L232.156 79.6717L232.005 79.5206L231.704 79.6717C231.403 79.3694 231.252 78.9158 231.102 78.3111C230.951 77.7064 230.65 77.5552 230.198 77.5552C230.048 77.5552 229.897 77.5552 229.596 77.5552C228.994 77.2528 228.693 76.7993 228.693 76.1946C228.843 76.0434 228.994 75.8922 229.145 75.8922C229.295 75.8922 229.446 75.8922 229.747 75.8922C230.048 75.8922 230.198 75.8922 230.349 75.8922C230.349 75.8922 230.65 75.741 231.102 75.5898C231.102 75.741 231.403 75.741 232.005 75.8922C232.457 75.8922 232.908 76.0434 233.059 76.1946L232.908 76.7993L233.661 77.2528H233.812C233.812 77.404 233.511 77.404 233.21 77.7064C232.908 77.8576 232.758 78.0087 232.758 78.3111L233.36 78.7646V78.9158C233.36 79.067 233.21 79.2182 233.059 79.3694C232.908 79.5206 232.758 79.6717 232.758 79.8229C232.758 79.9741 232.908 80.1253 233.36 80.2765C233.962 80.4276 234.263 80.4276 234.263 80.5788C234.113 80.73 233.962 80.8812 233.812 81.0324C233.812 81.3347 233.661 81.4859 233.661 81.7883C233.661 81.7883 233.812 82.0906 234.113 82.5442C234.263 82.8465 234.414 82.9977 234.715 83.1489L234.866 82.8465L234.565 82.0906C234.565 81.9394 234.866 81.7883 235.317 81.7883C235.769 81.7883 236.07 81.6371 236.221 81.3347C236.672 81.4859 236.973 81.6371 236.973 81.6371C237.124 81.6371 237.425 81.4859 237.576 81.0324L237.877 81.7883L238.479 81.3347V81.1835C238.629 81.4859 238.78 81.6371 238.931 81.6371C239.081 81.6371 239.382 81.6371 239.683 81.6371C239.984 81.6371 240.286 81.7883 240.436 81.9395L239.984 82.5442C239.984 82.6954 240.286 82.9977 240.737 83.1489C241.189 83.3001 241.49 83.4513 241.791 83.4513C241.641 83.4513 241.641 83.6024 241.49 83.7536C241.339 83.9048 241.339 84.056 241.339 84.056C241.339 84.5095 241.49 84.6607 241.942 84.8119C242.393 84.9631 242.544 84.9631 242.544 85.1143V85.4166L241.942 85.1143L241.641 85.5678L242.092 86.3237L242.544 86.1725L242.845 86.4749L242.694 87.0796L242.845 87.8355H242.092L241.641 88.2891C241.641 88.7426 241.942 88.8938 242.694 88.8938C242.845 89.045 242.845 89.3473 242.845 89.6497V89.952C242.845 89.952 242.694 90.1032 242.544 90.4056C242.393 90.5568 242.243 90.708 242.092 90.708L241.942 91.0103C242.243 91.3127 242.694 91.4639 243.297 91.4639C244.2 91.4639 244.652 91.615 244.802 91.615L244.652 92.8245C244.953 92.8245 245.103 92.5221 245.103 92.0686C244.2 92.2198 244.351 92.3709 244.351 92.6733ZM235.468 80.73H235.317V80.5788L235.468 80.73Z" fill="#333333"/>
<path d="M248.114 86.4757C248.114 86.3245 248.114 86.3245 247.964 86.3245C247.964 86.3245 247.813 86.3245 247.813 86.4757C247.813 86.6269 247.662 86.6269 247.662 86.6269H247.512C247.512 86.6269 247.512 86.6269 247.512 86.7781V86.9293C247.512 87.0804 247.662 87.0804 247.813 87.0804C247.964 86.9293 248.114 86.7781 248.114 86.4757ZM254.287 92.6741C254.287 92.523 254.136 92.3718 253.986 92.3718C253.685 92.3718 253.534 92.523 253.534 92.6741C253.534 92.8253 253.685 92.8253 253.835 92.8253C253.835 92.8253 253.835 92.8253 253.986 92.8253H254.136C254.287 92.9765 254.287 92.8253 254.287 92.6741ZM247.512 84.6616C247.512 84.5104 247.361 84.3592 247.211 84.3592H246.91V84.9639H247.211L247.361 84.8127C247.512 84.8127 247.512 84.6616 247.512 84.6616ZM255.04 84.6616C255.04 84.5104 254.889 84.3592 254.739 84.0568C254.588 83.7545 254.437 83.6033 254.437 83.4521C254.437 83.3009 254.437 83.1497 254.588 82.9986C254.287 82.6962 253.986 82.545 253.384 82.545C253.384 82.545 252.932 82.545 252.029 82.545C252.029 82.3938 251.878 82.2427 251.878 82.2427C251.878 82.2427 251.878 82.0915 252.029 81.9403C252.029 81.7891 252.179 81.7891 252.179 81.6379C252.029 81.4867 251.878 81.4868 251.727 81.4868C251.577 81.4868 251.426 81.4867 251.426 81.6379C251.426 81.6379 251.426 81.7891 251.426 81.9403C251.426 82.0915 251.426 82.2427 251.426 82.2427C251.426 82.2427 251.426 82.3938 251.276 82.3938C249.77 82.3938 248.867 82.545 248.415 82.8474L248.265 82.6962C248.114 82.545 248.114 82.545 247.964 82.545C247.813 82.545 247.662 82.6962 247.662 82.9986C247.662 83.1497 247.964 83.3009 248.415 83.3009C248.415 83.4521 248.566 83.6033 248.566 83.6033C248.566 83.7545 248.415 83.9056 248.265 83.9056C248.114 84.0568 247.964 84.0568 247.813 84.208C247.813 84.8127 248.114 85.1151 248.566 85.1151C248.716 85.1151 249.017 85.1151 249.319 84.9639C249.62 84.9639 249.921 84.8127 250.071 84.8127C250.372 84.8127 250.523 84.8127 250.674 84.9639C250.372 85.2663 250.372 85.4175 250.372 85.5686C250.372 85.7198 250.523 85.871 250.975 85.871C251.426 85.871 251.727 85.7198 251.727 85.4175C251.727 85.5686 251.878 85.7198 252.029 85.7198H252.179C252.179 85.871 252.179 85.5686 252.33 85.1151H252.48C252.48 85.1151 252.631 85.1151 252.781 85.1151C252.932 85.1151 252.932 85.1151 253.082 85.1151C253.233 85.1151 253.384 85.1151 253.384 85.2663C253.233 85.2663 253.082 85.4175 252.932 85.4175C252.781 85.4175 252.781 85.5686 252.781 85.5686C252.781 85.7198 252.932 85.7198 253.082 85.7198C253.082 85.7198 253.384 85.5686 253.685 85.4175L253.835 85.5686C254.136 85.7198 254.287 85.7198 254.437 85.7198C254.739 85.7198 254.889 85.5686 254.889 85.4175C254.889 85.2663 254.889 85.2663 254.739 85.1151C254.588 84.9639 254.588 84.9639 254.588 84.9639C254.889 85.1151 255.04 84.9639 255.04 84.6616ZM249.921 81.9403C249.921 81.9403 249.921 81.7891 249.77 81.6379C249.62 81.4867 249.62 81.4868 249.62 81.4868C249.469 81.7891 249.319 81.9403 249.319 81.9403C249.319 82.0915 249.469 82.2427 249.62 82.2427C249.77 82.2427 249.921 82.2427 249.921 82.2427C249.77 82.0915 249.921 81.9403 249.921 81.9403ZM255.943 85.7198C255.943 85.5686 255.792 85.5686 255.792 85.5686V85.7198H255.943ZM255.943 84.208C255.792 84.208 255.792 84.0568 255.642 84.0568C255.491 84.0568 255.341 84.208 255.341 84.3592C255.341 84.5104 255.341 84.5104 255.491 84.5104C255.642 84.5104 255.792 84.5104 255.792 84.5104V84.3592V84.208H255.943ZM257.599 89.197C257.599 89.3482 257.449 89.3482 257.298 89.4993C257.147 89.6505 256.997 89.6505 256.846 89.8017C256.846 89.9529 256.846 90.1041 256.846 90.2553C256.846 90.5576 256.997 90.7088 256.997 90.7088C256.997 90.7088 256.846 90.86 256.696 91.1623C256.696 91.1623 256.545 91.1623 256.395 91.1623C256.244 91.1623 256.094 91.1623 255.943 91.1623C255.792 91.1623 255.642 91.3135 255.642 91.4647C255.642 91.6159 255.642 91.7671 255.792 92.0694L255.642 92.3718H255.04C254.588 92.3718 254.287 92.6741 254.136 93.1277C254.136 93.2789 253.835 93.4301 253.534 93.4301C253.233 93.4301 253.082 93.5812 252.932 93.7324C252.781 93.7324 252.33 93.5812 251.577 93.5812C250.975 93.5812 250.674 93.4301 250.372 93.2789C250.372 93.1277 250.523 92.9765 250.523 92.9765C250.523 92.6741 250.372 92.523 250.071 92.3718H249.62C249.168 92.3718 248.566 92.2206 248.114 91.7671C248.114 91.4647 247.813 91.1623 247.361 90.86C247.361 90.7088 247.361 90.7088 247.512 90.5576C247.662 90.4064 247.662 90.4064 247.662 90.2553C247.662 90.1041 247.361 89.9529 246.91 89.9529C246.759 89.9529 246.609 89.9529 246.609 89.8017C246.609 89.8017 246.609 89.6505 246.609 89.3482C246.609 89.197 246.609 89.0458 246.458 88.7434C246.307 88.4411 246.307 88.2899 246.307 88.1387C246.307 88.1387 246.307 87.9875 246.458 87.8364C246.609 87.6852 246.609 87.3828 246.609 87.3828C246.609 87.2316 246.609 86.9293 246.458 86.4757C246.307 86.0222 246.307 85.871 246.307 85.5686C246.307 85.2663 246.458 84.9639 246.759 84.8127C246.609 84.5104 246.609 84.3592 246.609 84.3592C246.609 84.0568 246.759 83.9056 247.211 83.7545C247.662 83.6033 247.813 83.3009 247.813 82.9986C247.813 82.8474 247.813 82.6962 247.662 82.545C247.813 82.545 248.114 82.3938 248.415 82.3938C248.716 82.2427 248.867 82.2427 248.867 81.9403V81.7891C248.867 81.4867 249.168 81.1844 249.77 81.1844C250.523 81.1844 250.975 81.0332 251.125 81.0332C251.426 81.1844 252.029 81.1844 252.932 81.1844C253.835 81.1844 254.437 81.3356 254.739 81.4868C255.341 81.7891 255.491 82.2427 255.491 82.8474C255.491 82.9986 255.491 83.3009 255.341 83.4521L255.642 83.6033L256.094 83.4521C255.943 83.6033 255.943 83.7545 255.943 83.7545C255.943 83.9056 256.094 84.208 256.395 84.5104C256.696 84.8127 256.997 84.9639 257.147 84.9639L257.298 85.7198L256.997 85.4175C256.696 85.4175 256.545 85.5686 256.545 85.871C256.545 86.0222 256.696 86.1734 256.997 86.3245C257.298 86.4757 257.449 86.4757 257.449 86.6269V86.7781C257.298 86.9293 256.997 86.9293 256.696 87.0804C256.545 87.2316 256.395 87.3828 256.395 87.534C256.395 87.6852 256.395 87.8364 256.395 87.9875H256.094C256.244 87.6852 256.244 87.534 256.244 87.534C256.244 87.2316 256.094 86.9293 255.642 86.9293C255.341 87.0804 255.04 87.0805 254.437 87.2316C253.986 87.2316 253.534 87.3828 253.233 87.3828C253.082 87.2316 252.932 87.0804 252.631 87.0804C252.179 87.0804 251.878 86.9293 251.878 86.9293C251.727 87.0804 251.577 87.2316 251.276 87.534C250.975 87.3828 250.372 87.3828 249.62 87.0804C248.716 86.9293 248.265 86.7781 248.114 86.7781C247.813 86.7781 247.662 87.2316 247.662 88.2899L247.211 88.1387L247.06 88.4411C247.06 88.5923 247.211 88.7434 247.512 88.7434C247.813 88.8946 247.813 89.0458 247.813 89.197C247.964 89.197 247.964 89.4993 248.114 89.9529C248.114 90.2553 248.265 90.4064 248.566 90.4064L249.168 90.2553C249.168 90.2553 249.319 90.5576 249.469 91.0112C249.62 91.3135 249.77 91.4647 250.071 91.4647V91.7671V91.9182C250.222 91.6159 250.523 91.4647 251.276 91.4647C251.577 91.4647 251.878 91.4647 252.48 91.6159C252.932 91.6159 253.233 91.7671 253.384 91.7671C254.136 91.7671 254.739 91.6159 255.19 91.1623C255.19 90.86 255.04 90.86 255.04 90.86C255.04 90.7088 255.19 90.4064 255.341 90.1041L255.943 90.2553L256.094 89.9529L255.642 89.3482C255.792 89.197 255.943 89.0458 256.094 89.0458C256.244 88.8946 256.395 88.8946 256.545 88.8946C256.545 88.8946 256.696 88.8946 256.846 89.0458C256.997 89.197 257.298 89.197 257.449 89.0458L257.599 89.197Z" fill="#333333"/>
<path d="M263.621 92.9764C263.621 92.8252 263.621 92.8252 263.621 92.8252C263.621 92.8252 263.621 92.8252 263.471 92.8252C263.32 92.8252 263.32 92.9764 263.32 93.1275L263.621 92.9764C263.621 93.1276 263.621 93.1276 263.621 92.9764ZM264.675 92.2205V91.7669C264.675 91.7669 264.675 91.7669 264.525 91.7669C264.525 91.7669 264.525 91.7669 264.374 91.7669H264.223C264.073 91.7669 264.073 91.7669 264.073 91.9181V92.0693C264.073 92.3716 264.223 92.5228 264.374 92.5228C264.525 92.3716 264.675 92.3716 264.675 92.2205ZM267.686 92.2205C267.686 92.2205 267.686 92.0693 267.536 91.9181C267.385 91.7669 267.385 91.6157 267.385 91.6157V91.4646C267.385 91.3134 267.235 91.3134 267.084 91.3134H266.933H266.783C266.632 91.4646 266.482 91.6157 266.482 91.7669C266.482 91.9181 266.632 92.0693 266.933 92.0693C267.235 92.2205 267.385 92.3716 267.385 92.5228C267.536 92.3716 267.686 92.2205 267.686 92.2205ZM266.03 90.4063C266.03 90.1039 265.88 90.1039 265.729 90.1039C265.428 90.1039 265.277 90.2551 265.277 90.4063L265.428 90.5575C265.428 90.5575 265.428 90.5575 265.578 90.5575C265.578 90.5575 265.729 90.5575 265.729 90.4063C265.88 90.5575 266.03 90.4063 266.03 90.4063ZM268.439 91.3134C268.288 91.1622 268.288 91.1622 268.138 91.1622C267.837 91.1622 267.686 91.3134 267.686 91.4646C267.686 91.6157 267.837 91.6157 267.987 91.6157C268.288 91.6157 268.439 91.4646 268.439 91.3134ZM265.578 86.3244C265.277 86.3244 265.277 86.3244 265.277 86.4756C265.277 86.4756 265.277 86.4756 265.428 86.4756C265.428 86.6268 265.578 86.4756 265.578 86.3244ZM265.88 84.0567C265.88 83.9055 265.729 83.7543 265.578 83.7543C265.277 83.7543 265.127 83.9055 265.127 84.0567C265.127 84.2079 265.127 84.2079 265.277 84.359C265.428 84.359 265.428 84.5102 265.578 84.6614C265.88 84.2079 265.88 84.0567 265.88 84.0567ZM267.235 83.9055C267.235 83.7543 267.235 83.7543 267.084 83.6031C266.933 83.6031 266.933 83.452 266.783 83.452C267.084 83.1496 267.235 82.9984 267.235 82.6961C267.235 82.5449 267.084 82.3937 266.933 82.3937C266.632 82.2425 266.482 82.2425 266.482 82.0913C266.482 82.2425 266.482 82.2425 266.331 82.3937C266.331 82.5449 266.181 82.6961 266.181 82.6961C266.181 82.8472 266.331 82.9984 266.482 82.9984H266.331C266.331 82.9984 266.331 83.1496 266.482 83.1496C266.632 83.1496 266.632 83.1496 266.632 83.3008C266.632 83.3008 266.482 83.452 266.331 83.6031C266.181 83.7543 266.181 83.9055 266.181 83.9055C266.181 84.0567 266.331 84.0567 266.482 84.0567C266.783 84.0567 266.933 83.9055 267.084 83.7543C267.235 84.0567 267.235 84.0567 267.235 83.9055ZM273.708 83.3008C273.407 83.9055 273.257 84.359 273.257 84.5102C273.106 84.5102 272.956 84.6614 272.654 84.6614C272.353 84.8126 272.203 84.8126 272.052 84.8126C272.052 84.8126 271.902 84.8126 271.601 84.6614V84.5102L272.052 83.9055L272.203 84.2079H272.504C272.805 84.2079 272.956 84.0567 273.106 83.7543C273.106 83.6031 273.106 83.452 273.106 83.3008C273.106 82.9984 273.106 82.8472 273.106 82.8472C273.106 82.5449 272.956 82.2425 272.654 82.2425C272.203 82.2425 271.902 82.6961 272.052 83.6031L271.902 82.9984L272.052 82.8472L271.902 82.2425C271.45 82.0913 271.149 82.0913 270.848 82.0913C270.396 82.0913 270.095 82.2425 269.794 82.5449C269.493 82.3937 269.342 82.2425 269.041 82.2425H268.891L268.74 82.6961C268.439 82.5449 268.288 82.3937 268.138 82.3937C267.837 82.3937 267.686 82.5449 267.686 82.6961C267.536 82.9984 267.536 83.3008 267.385 83.3008L267.837 83.452C267.686 83.6031 267.536 83.7543 267.536 84.0567C267.385 84.359 267.235 84.5102 266.933 84.5102L266.482 84.9638C266.482 85.115 266.482 85.2661 266.632 85.4173C266.783 85.5685 266.783 85.7197 266.783 85.8709L266.482 86.3244C266.632 86.6268 266.783 86.7779 266.783 86.7779C266.783 86.9291 266.783 87.0803 266.632 87.3827C266.482 87.685 266.482 87.8362 266.482 87.9874L267.084 88.5921L266.632 89.0457L266.181 88.8945L265.578 89.348C265.578 89.6504 265.729 89.8016 265.88 89.8016C266.03 89.8016 266.03 89.8016 266.331 89.6504C266.482 89.6504 266.632 89.4992 266.783 89.4992L267.084 89.6504C266.783 89.9527 266.632 90.2551 266.632 90.2551C266.933 90.4063 267.385 90.5575 268.288 90.7087C269.041 90.8598 269.643 91.011 269.794 91.1622C270.246 91.4646 270.547 91.9181 270.547 92.5228C270.547 92.5228 270.396 92.8252 270.246 93.2787C270.095 93.2787 269.794 93.1276 269.342 92.9764C268.891 92.8252 268.589 92.674 268.288 92.5228H268.138L267.987 92.8252L268.138 92.9764C267.987 92.9764 267.686 93.1275 267.385 93.1275C266.933 93.1275 266.783 92.9764 266.632 92.674C266.482 92.3716 266.331 92.2205 266.03 92.2205C266.03 92.2205 265.88 92.2205 265.729 92.2205C265.428 92.8252 264.675 93.1275 263.32 93.1275C262.417 93.1275 261.965 93.1275 261.965 93.1275C261.815 93.1275 261.664 92.8252 261.664 92.2205C261.664 91.9181 261.664 91.7669 261.513 91.4646C261.664 91.4646 261.815 91.4646 262.116 91.6157C262.417 91.7669 262.567 91.7669 262.718 91.7669C262.868 91.7669 262.868 91.7669 263.019 91.7669C263.17 91.9181 263.471 92.0693 263.621 92.0693C263.772 91.9181 264.073 91.4646 264.223 91.011C264.073 90.7087 264.073 90.5575 264.073 90.4063C264.374 90.4063 264.675 90.5575 264.675 90.5575C264.675 90.5575 264.826 90.5575 265.277 90.4063C265.277 90.1039 265.277 89.6504 265.428 89.1968C265.428 88.5921 265.578 88.2898 265.578 87.9874C265.578 87.3827 265.428 86.9291 265.127 86.6268C265.277 86.4756 265.428 86.3244 265.428 86.022C265.428 85.7197 265.428 85.5685 265.428 85.2661V84.9638L265.88 85.115L266.331 84.9638L266.482 84.6614L265.88 84.359L265.729 84.5102C265.578 84.359 265.428 84.0567 265.428 83.9055C265.428 83.7543 265.428 83.452 265.578 83.3008C265.729 82.9984 265.729 82.6961 265.88 82.6961L266.331 82.8472L266.632 82.3937L266.482 81.6378C266.331 81.6378 266.181 81.4866 266.181 81.4866C265.88 81.4866 265.578 81.6378 265.428 81.9402V82.0913L264.826 81.789C264.675 81.789 264.374 81.9401 264.223 81.789C263.772 81.789 263.471 81.789 263.471 81.789L263.17 82.0913C263.17 81.9401 263.17 81.789 263.019 81.6378C262.868 81.4866 262.868 81.3354 262.868 81.1842C262.868 81.1842 262.868 81.0331 263.019 80.8819C263.17 80.7307 263.17 80.5795 263.17 80.4283L262.266 80.2772L261.965 80.7307L262.116 80.8819L262.417 81.1842L262.266 81.6378L262.417 81.789C262.266 81.6378 262.116 81.4866 261.815 81.4866C261.815 81.3354 261.815 81.1842 261.664 80.8819C261.664 80.5795 261.513 80.4283 261.513 80.4283C261.664 80.2772 261.965 80.2772 262.417 80.2772C262.567 80.2772 262.718 80.2772 263.019 80.2772C263.32 80.2772 263.471 80.2772 263.621 80.2772C263.471 80.4283 263.32 80.5795 263.32 80.8819L263.621 81.1842C263.772 81.1842 263.922 81.0331 264.223 80.7307V80.2772C264.374 80.2772 264.374 80.4283 264.525 80.7307C264.525 81.0331 264.675 81.1842 264.826 81.1842C264.976 81.1842 265.277 81.1842 265.578 81.1842C266.03 81.1842 266.181 81.3354 266.331 81.3354C266.632 81.3354 266.783 81.1842 266.933 81.0331C267.084 81.1842 267.235 81.1842 267.536 81.1842H267.686L268.138 80.7307L268.288 81.0331C268.288 81.1842 268.138 81.4866 267.837 81.6378L267.987 81.9402C268.288 81.789 268.59 81.4866 268.891 81.3354C269.192 81.1842 269.342 80.8819 269.192 80.4283L269.342 80.126H269.493C269.794 80.126 269.944 80.2772 269.944 80.5795C269.944 80.7307 269.944 81.0331 269.794 81.3354C269.944 81.4866 270.095 81.6378 270.396 81.6378C270.998 81.6378 271.299 81.6378 271.299 81.6378C271.45 81.4866 271.751 81.1842 272.203 81.1842L272.052 80.8819H270.998V80.2772L271.601 80.126C271.751 80.2772 271.751 80.5795 271.902 81.0331C272.052 81.4866 272.052 81.789 272.203 81.9402L272.956 81.6378C272.956 81.6378 273.106 81.9401 273.106 82.3937C273.257 83.3008 273.407 83.452 273.708 83.3008ZM264.073 83.452C263.922 83.452 263.922 83.452 264.073 83.452C263.922 83.6031 263.922 83.6031 263.922 83.6031H263.772C263.621 83.6031 263.621 83.6031 263.621 83.452L263.772 83.3008L264.073 83.452ZM268.589 83.6031H268.288L268.439 83.3008C268.439 83.3008 268.439 83.3008 268.589 83.6031ZM270.246 81.4866H269.944V81.3354C269.944 81.1842 269.944 81.1842 270.095 81.1842C270.246 81.1842 270.246 81.1842 270.246 81.3354V81.4866Z" fill="#333333"/>
<path d="M283.495 92.0681C283.344 92.0681 283.194 92.0681 283.194 92.2193V92.3705H283.344C283.495 92.3705 283.495 92.3705 283.495 92.0681ZM283.946 91.0099C283.946 92.2193 283.796 92.9752 283.495 93.1264C283.344 93.1264 283.194 93.2776 283.043 93.2776C282.893 93.2776 282.742 93.2776 282.591 93.2776C282.441 93.2776 282.29 93.2776 282.14 93.2776C281.839 93.2776 281.538 93.4288 281.387 93.7311C281.086 93.7311 280.785 93.4288 280.484 93.1264V92.9752C280.484 92.824 280.634 92.824 280.785 92.6728C280.935 92.5217 281.086 92.5217 281.086 92.3705C281.086 92.2193 281.086 92.0681 280.935 91.7658C280.785 91.4634 280.785 91.3122 280.785 91.161C280.785 91.0099 280.785 90.8587 280.935 90.5563C281.086 90.254 281.086 90.1028 281.086 89.9516C281.086 89.9516 281.387 89.9516 281.688 89.8004C281.989 89.8004 282.14 89.6492 282.14 89.498C283.495 89.9516 283.946 90.4051 283.946 91.0099Z" fill="#333333"/>
</g>
<defs>
<clipPath id="clip0_72_1292">
<rect width="380" height="96" fill="white"/>
</clipPath>
</defs>
</svg>
