<svg width="184" height="46" viewBox="0 0 184 46" fill="none" xmlns="http://www.w3.org/2000/svg">
<g clip-path="url(#clip0_85_11)">
<path d="M34.1174 12.46L31.7117 26.6585H29.8892L32.951 9.5624L33.4613 6.375L34.7006 9.27264L40.0952 22.2396L45.5627 9.27264L46.7291 6.375L47.3123 9.5624L50.3012 26.6585H48.5516L46.073 12.46L41.0429 24.4128L40.0952 26.6585L39.1475 24.4128L34.1174 12.46Z" fill="white"/>
<path d="M57.4453 18.2553H65.4643L61.4548 10.2868L57.4453 18.2553ZM66.2662 19.9215H56.5705L53.2171 26.6585H51.2488L60.5071 8.33091L61.4548 6.375L62.4754 8.33091L71.6608 26.6585H69.6925L66.2662 19.9215Z" fill="white"/>
<path d="M88.8653 18.2551H80.5547V16.589H90.7607C90.7607 19.4142 89.7401 21.8047 87.7718 23.7607C85.8035 25.7166 83.3978 26.7307 80.5547 26.7307C77.7115 26.7307 75.3058 25.7166 73.3375 23.7607C71.3692 21.8047 70.3486 19.4142 70.3486 16.589C70.3486 13.7638 71.3692 11.3733 73.3375 9.41734C75.3058 7.46144 77.7115 6.44727 80.5547 6.44727C83.3978 6.44727 85.8035 7.46144 87.7718 9.41734C88.7924 10.4315 89.5214 11.5181 90.0317 12.7496L88.5008 13.474C88.0634 12.3874 87.4073 11.4457 86.6054 10.5764C84.9287 8.91026 82.9604 8.11341 80.6276 8.11341C78.2947 8.11341 76.2535 8.91026 74.6497 10.5764C72.973 12.2425 72.1711 14.1984 72.1711 16.5166C72.1711 18.8347 72.973 20.863 74.6497 22.4567C76.3264 24.1229 78.2947 24.9197 80.6276 24.9197C82.9604 24.9197 85.0016 24.1229 86.6054 22.4567C87.7718 21.2977 88.5737 19.8488 88.8653 18.2551Z" fill="white"/>
<path d="M94.5517 6.375H92.875V26.6585H94.5517V6.375Z" fill="white"/>
<path d="M115.255 19.6317L116.786 20.3561C116.276 21.5876 115.547 22.6742 114.526 23.6884C112.558 25.6443 110.152 26.6585 107.309 26.6585C104.466 26.6585 102.06 25.6443 100.092 23.6884C98.1236 21.7325 97.103 19.3419 97.103 16.5167C97.103 13.6915 98.1236 11.301 100.092 9.34508C102.06 7.38917 104.466 6.375 107.309 6.375C110.152 6.375 112.558 7.38917 114.526 9.34508C115.547 10.3593 116.276 11.4459 116.786 12.6774L115.255 13.4018C114.818 12.3152 114.162 11.3734 113.36 10.5041C111.683 8.83799 109.715 8.04114 107.382 8.04114C105.049 8.04114 103.008 8.83799 101.404 10.5041C99.7274 12.1703 98.9255 14.1262 98.9255 16.4443C98.9255 18.7624 99.7274 20.7907 101.404 22.3844C103.081 24.0506 105.049 24.8474 107.382 24.8474C109.715 24.8474 111.756 24.0506 113.36 22.3844C114.235 21.66 114.891 20.6459 115.255 19.6317Z" fill="white"/>
<path d="M122.691 15.575C121.452 14.9955 120.65 14.0537 120.212 12.8222C119.994 12.3152 119.921 11.7356 119.921 11.2285C119.921 10.5041 120.066 9.85217 120.431 9.12776C121.014 7.89626 121.962 7.09941 123.274 6.66476C123.784 6.44744 124.368 6.375 124.878 6.375C125.607 6.375 126.263 6.51988 126.992 6.88209C128.013 7.38917 128.742 8.11358 129.252 9.12776L127.794 10.0695C127.502 9.34508 126.992 8.76555 126.263 8.40335C125.826 8.18602 125.315 8.04114 124.878 8.04114C124.513 8.04114 124.076 8.11358 123.493 8.33091C122.91 8.54823 122.399 9.05532 122.035 9.85217C121.816 10.2868 121.67 10.7939 121.67 11.2285C121.67 11.5907 121.743 12.0254 121.962 12.6049C122.181 13.1844 122.691 13.6915 123.493 14.0537L127.138 15.8648C128.523 16.5892 129.543 17.6758 130.054 19.1246C130.272 19.7766 130.345 20.3561 130.345 21.0081C130.345 21.8049 130.127 22.6742 129.762 23.4711C129.033 24.9199 127.94 25.8616 126.482 26.3687C125.826 26.586 125.242 26.6585 124.586 26.6585C123.784 26.6585 122.91 26.4411 122.108 26.0789C120.795 25.427 119.848 24.4128 119.337 23.0364L120.795 22.0222C120.795 22.0947 120.868 22.1671 120.868 22.2396C121.233 23.3262 121.889 24.0506 122.91 24.5577C123.493 24.8474 124.076 24.9923 124.659 24.9923C125.097 24.9923 125.68 24.8474 126.482 24.6301C127.211 24.3404 127.867 23.7608 128.377 22.7467C128.669 22.1671 128.814 21.5876 128.814 21.0081C128.814 20.5734 128.742 20.1388 128.596 19.7041C128.231 18.69 127.575 17.8931 126.555 17.386L122.691 15.575Z" fill="#FFD101"/>
<path d="M134.282 24.9923H146.165V26.6585H132.605V6.375H146.165V8.11358H134.282V15.7199H146.165V17.386H134.282V24.9923Z" fill="#FFD101"/>
<path d="M153.528 18.2553H161.547L157.537 10.2868L153.528 18.2553ZM162.349 19.9215H152.653L149.227 26.6585H147.258L156.517 8.33091L157.464 6.375L158.485 8.33091L167.67 26.6585H165.702L162.349 19.9215Z" fill="#FFD101"/>
<path d="M168.764 26.6585V6.375H170.513V24.9923H180.646V26.6585H168.764Z" fill="#FFD101"/>
<path d="M181.594 10.3592C180.938 10.3592 180.355 10.1419 179.917 9.63482C179.48 9.20017 179.188 8.62064 179.188 7.96868C179.188 7.31671 179.407 6.73718 179.917 6.30253C180.355 5.86789 180.938 5.57812 181.594 5.57812C182.25 5.57812 182.833 5.79545 183.271 6.30253C183.708 6.73718 184 7.31671 184 7.96868C184 8.62064 183.781 9.20017 183.271 9.63482C182.833 10.1419 182.25 10.3592 181.594 10.3592ZM181.594 10.0695C182.177 10.0695 182.615 9.85214 183.052 9.48994C183.417 9.12773 183.635 8.62065 183.635 8.04112C183.635 7.46159 183.417 7.02694 183.052 6.5923C182.688 6.23009 182.177 6.01277 181.594 6.01277C181.011 6.01277 180.574 6.23009 180.136 6.5923C179.772 6.9545 179.553 7.46159 179.553 8.04112C179.553 8.62065 179.772 9.05529 180.136 9.48994C180.574 9.85214 181.084 10.0695 181.594 10.0695ZM180.938 8.33088V9.34505H180.574V6.66474H181.959C182.396 6.66474 182.615 6.88206 182.615 7.31671V7.67891C182.615 8.11356 182.396 8.33088 181.959 8.33088L182.615 9.34505H182.25L181.594 8.33088H180.938ZM180.938 7.02694V8.04112H181.959C182.177 8.04112 182.323 7.89624 182.323 7.67891V7.31671C182.323 7.09939 182.177 6.9545 181.959 6.9545H180.938V7.02694Z" fill="white"/>
<path fill-rule="evenodd" clip-rule="evenodd" d="M0.0729305 3.91181C-0.29157 10.7213 0.218731 16.9512 2.91604 22.3118C4.66564 25.7165 7.14425 28.6866 10.3519 30.7874C10.9351 31.1496 13.2679 32.6709 13.924 32.6709C14.653 32.6709 16.9129 31.2945 17.4232 30.9323C23.1094 27.0205 26.5357 21.2252 27.4834 14.3433C27.8479 11.9528 28.1395 6.44724 27.775 3.98425C25.1506 1.88346 18.5896 0.0724409 14.0698 0C10.4977 0 6.19654 1.08661 2.98894 2.39055C1.82253 2.89764 1.23933 3.33228 0.0729305 3.91181ZM13.924 5.57795C14.4343 6.51968 14.5801 7.38898 15.1633 8.40315C16.6942 11.1559 18.9541 13.5465 19.8289 15.937C21.5056 20.7181 18.9541 25.2819 14.2156 25.4268C9.25835 25.5717 6.26944 20.863 8.16485 15.937C9.47705 12.3874 13.0492 9.41732 13.924 5.57795Z" fill="#FFD101"/>
<path fill-rule="evenodd" clip-rule="evenodd" d="M9.33134 16.9512C8.82103 18.6173 9.25843 21.3701 10.4977 22.6016C10.8622 22.9638 10.7164 22.8913 11.2267 22.9638L11.737 22.3118C11.5183 21.5874 10.4977 21.2976 9.91454 20.0661C9.33134 18.9071 9.62294 17.748 9.33134 16.9512Z" fill="#FFD101"/>
<path d="M60.4342 44.2616C60.4342 44.1168 60.3613 44.1168 60.2884 44.1168C60.1426 44.1168 60.0697 44.1168 60.0697 44.0443C59.9968 44.1168 59.9968 44.1168 59.9968 44.1892C59.9968 44.2616 60.0697 44.3341 60.2155 44.479L60.4342 44.2616ZM59.122 42.4506C59.122 42.3782 59.0491 42.3057 58.9762 42.3057C58.8304 42.3057 58.7575 42.3782 58.7575 42.4506C58.8304 42.5231 58.8304 42.5231 58.9762 42.5231C59.0491 42.5955 59.122 42.5231 59.122 42.4506ZM59.851 43.0302C59.851 42.9577 59.7781 42.8853 59.7052 42.8853C59.5594 42.8853 59.4865 42.9577 59.4865 43.1026L59.5594 43.175C59.6323 43.175 59.7052 43.1026 59.851 43.0302ZM61.3819 44.1892C61.3819 44.1168 61.3819 44.1168 61.309 44.1168V44.2616H61.3819C61.3819 44.2616 61.3819 44.2616 61.3819 44.1892ZM59.0491 40.6396C59.0491 40.5672 58.9762 40.5672 58.9762 40.5672C58.9033 40.5672 58.8304 40.6396 58.8304 40.712H58.9762C59.0491 40.712 59.0491 40.6396 59.0491 40.6396ZM59.0491 39.4081V39.3357C58.9762 39.3357 58.9762 39.3357 58.9033 39.3357C58.8304 39.3357 58.8304 39.4081 58.7575 39.4081C58.8304 39.4805 58.9033 39.553 58.9762 39.553C58.9762 39.4805 59.0491 39.4805 59.0491 39.4081ZM63.9334 43.6821C63.8605 43.6097 63.7876 43.6097 63.7147 43.6097C63.5689 43.6097 63.496 43.6821 63.496 43.7546C63.496 43.827 63.6418 43.827 63.7876 43.8994C63.8605 43.827 63.9334 43.7546 63.9334 43.6821ZM58.9033 38.901V38.7561H58.7575V38.901H58.9033ZM61.8922 40.7845C61.8193 40.712 61.7464 40.712 61.6735 40.712C61.6006 40.712 61.5277 40.7845 61.5277 40.8569L61.6006 40.9294H61.6735C61.7464 40.9294 61.8193 40.9294 61.8922 40.7845ZM63.6418 41.9435C63.6418 41.7987 63.6418 41.7987 63.5689 41.7987C63.496 41.7987 63.4231 41.8711 63.4231 41.9435C63.4231 42.016 63.496 42.016 63.5689 42.016C63.5689 42.016 63.5689 42.016 63.6418 42.016V41.9435ZM62.6941 40.7845C62.6941 40.6396 62.6212 40.5672 62.4754 40.5672C62.3296 40.5672 62.2567 40.6396 62.1838 40.712L62.2567 40.8569C62.4754 40.9294 62.5483 40.9294 62.5483 40.9294C62.6212 40.9294 62.6941 40.8569 62.6941 40.7845ZM59.6323 37.8144C59.6323 37.742 59.6323 37.6695 59.5594 37.6695C59.4136 37.6695 59.3407 37.742 59.3407 37.8144C59.3407 37.8144 59.3407 37.8144 59.3407 37.8868C59.3407 37.9593 59.4136 37.9593 59.5594 37.9593C59.6323 37.9593 59.6323 37.8868 59.6323 37.8144ZM63.2773 40.7845C63.2773 40.712 63.2044 40.6396 63.0586 40.6396C62.9857 40.6396 62.9128 40.712 62.9128 40.7845C62.9128 40.8569 62.9128 40.8569 62.9857 40.9294C63.0586 40.9294 63.0586 41.0018 63.1315 40.9294H63.2044C63.2773 40.9294 63.2773 40.8569 63.2773 40.7845ZM64.1521 41.4365V41.2916H64.0792C64.0792 41.2916 64.0063 41.2916 64.0063 41.364C64.1521 41.4365 64.1521 41.4365 64.1521 41.4365ZM60.3613 37.2349C60.3613 37.1624 60.2884 37.09 60.2155 37.09C60.1426 37.09 60.0697 37.1624 59.9968 37.2349C59.9968 37.3073 60.0697 37.3798 60.1426 37.3798C60.2155 37.3798 60.2884 37.3798 60.2884 37.4522C60.2884 37.3798 60.3613 37.3073 60.3613 37.2349ZM64.6624 40.7845C64.6624 40.712 64.6624 40.712 64.5895 40.712L64.6624 40.7845C64.5895 40.712 64.5895 40.712 64.6624 40.7845ZM61.8193 37.5246V37.3798H61.6735V37.5246H61.8193ZM62.4025 37.3073V37.2349H62.2567V37.3073H62.4025ZM62.9857 37.8144H62.9128V37.9593C62.9128 37.8868 62.9857 37.8144 62.9857 37.8144ZM62.9857 41.6538H62.767V41.5813L62.9857 41.6538ZM65.4643 40.7845C65.3914 40.9294 65.3185 41.0018 65.0998 41.0742C64.954 41.0742 64.8082 41.1467 64.5895 41.1467C64.5166 41.1467 64.4437 41.2916 64.3708 41.4365C64.3708 41.6538 64.2979 41.7262 64.1521 41.7262C64.0792 41.7262 64.0063 41.7262 63.9334 41.6538V42.016C64.1521 42.0884 64.225 42.1609 64.2979 42.2333V42.3057C64.225 42.3057 64.0792 42.4506 63.8605 42.5955C63.9334 42.6679 63.9334 42.7404 63.9334 42.8128C63.9334 42.8853 63.9334 42.8853 63.9334 42.9577C63.9334 43.0302 63.9334 43.1026 63.9334 43.1026C63.9334 43.2475 64.0063 43.3199 64.1521 43.3199L64.225 43.6821H64.1521C64.225 43.7546 64.225 43.827 64.225 43.8994C64.225 43.9719 64.1521 44.0443 64.0063 44.1892C63.8605 44.3341 63.7876 44.4065 63.7876 44.479C63.7876 44.479 63.8605 44.5514 63.9334 44.6963L63.7876 44.9861C63.5689 44.8412 63.4231 44.7687 63.2044 44.6963L63.2773 44.5514L63.1315 44.1892L62.8399 44.3341V44.4065C62.8399 44.5514 62.6941 44.6239 62.4025 44.7687C62.1838 44.8412 61.9651 44.8412 61.8193 44.8412C61.6006 44.8412 61.4548 44.7687 61.3819 44.6963C61.2361 44.7687 61.1632 44.8412 61.1632 44.8412C61.0903 44.8412 61.0174 44.8412 60.8716 44.7687C60.7987 44.6963 60.6529 44.6963 60.6529 44.6963C60.58 44.6963 60.5071 44.6963 60.5071 44.7687C60.5071 44.7687 60.3613 44.6963 60.1426 44.6239C59.9968 44.5514 59.9239 44.479 59.9239 44.3341L59.7781 44.1892V44.1168L59.5594 44.0443L59.7052 43.8994L59.4865 43.827L59.6323 43.6821V43.4648C59.4136 43.5372 59.2678 43.5372 59.2678 43.5372C59.122 43.5372 59.122 43.3924 59.122 43.0302C58.8304 42.8853 58.6846 42.7404 58.6846 42.5231C58.6846 42.3057 58.6117 42.2333 58.4659 42.1609C58.5388 42.0884 58.6117 42.016 58.6117 41.8711C58.6117 41.7262 58.6117 41.6538 58.5388 41.5089L58.6846 41.2191C58.6117 41.0742 58.4659 41.0018 58.3201 41.0018C58.393 40.9294 58.4659 40.9294 58.5388 40.8569C58.6117 40.7845 58.6846 40.7845 58.6846 40.712C58.6846 40.6396 58.6117 40.5672 58.5388 40.4947C58.4659 40.4223 58.393 40.3498 58.393 40.2774L58.5388 39.9152L58.393 39.7703L58.6117 39.553C58.6117 39.4805 58.6117 39.4081 58.5388 39.3357C58.4659 39.2632 58.4659 39.1908 58.4659 39.1183C58.4659 39.1183 58.4659 39.0459 58.5388 38.9735C58.6117 38.901 58.6117 38.8286 58.6117 38.8286C58.6117 38.7561 58.5388 38.6837 58.4659 38.5388L58.9762 38.4664L59.0491 38.249C59.0491 38.1766 58.9762 38.1766 58.9033 38.1042C58.8304 38.1042 58.7575 38.0317 58.7575 37.9593V37.8868C58.9033 37.8868 59.0491 37.742 59.1949 37.6695V37.3073C59.4136 37.3073 59.5594 37.2349 59.6323 37.0176C59.6323 36.8727 59.851 36.7278 60.1426 36.7278L60.3613 36.5829C60.58 36.6553 60.6529 36.7278 60.7258 36.7278H60.8716L60.9445 36.5105L60.7258 36.2931C60.8716 36.2931 60.9445 36.2207 60.9445 36.2207C61.0174 36.2207 61.0903 36.2207 61.1632 36.2931C61.2361 36.2931 61.309 36.3656 61.3819 36.3656C61.4548 36.3656 61.4548 36.3656 61.5277 36.3656V36.5105L61.7464 36.7278L62.038 36.5829C62.1109 36.7278 62.3296 36.8002 62.6941 36.8002C62.8399 36.8002 62.9857 36.8727 63.0586 36.9451L63.3502 36.8727V36.9451L63.4231 37.3798C63.6418 37.4522 63.7876 37.5246 63.7876 37.5246L63.9334 37.3798L64.0792 37.5246C64.0063 37.6695 63.9334 37.8144 63.9334 37.9593L64.0792 38.1766C64.0063 38.3939 63.9334 38.4664 63.9334 38.4664C63.9334 38.5388 64.0063 38.6113 64.225 38.7561C64.1521 38.8286 64.0792 38.8286 64.0063 38.901C63.9334 38.9735 63.9334 39.0459 63.9334 39.1183L64.1521 39.3357H64.225H64.2979C64.1521 39.3357 64.0063 39.4081 63.7876 39.6254L63.6418 39.553C63.5689 39.553 63.4231 39.553 63.3502 39.4805C63.2773 39.4081 63.1315 39.4081 63.0586 39.3357C63.1315 39.2632 63.2044 39.1908 63.2044 39.0459C63.2044 38.901 63.2044 38.7561 63.2044 38.6837C63.2044 38.6113 63.2044 38.5388 63.2773 38.5388C63.2044 38.4664 63.1315 38.3939 62.9128 38.3215C62.767 38.2491 62.6941 38.1766 62.6941 38.1042C62.6941 38.0317 62.6941 37.9593 62.767 37.8868C62.5483 37.6695 62.3296 37.6695 62.038 37.6695C61.8193 37.6695 61.6735 37.5971 61.6006 37.3798C61.4548 37.1624 61.3819 37.09 61.309 37.09C61.1632 37.09 61.0903 37.1624 61.0903 37.3798C61.0903 37.4522 61.0903 37.4522 61.1632 37.5246C61.0903 37.5971 61.0174 37.5971 60.9445 37.5971C60.8716 37.5971 60.7987 37.5971 60.6529 37.5971C60.5071 37.5971 60.4342 37.5971 60.4342 37.5971C60.2155 37.5971 60.0697 37.6695 59.9968 37.8868L60.2155 38.0317L59.9968 38.249L59.6323 38.1766C59.5594 38.2491 59.4865 38.3939 59.5594 38.6837L59.4136 38.901C59.4865 39.0459 59.4865 39.2632 59.4136 39.4805L59.5594 39.7703L59.4136 40.0601C59.1949 39.9876 59.122 39.9876 59.122 39.9876L59.0491 40.205C59.0491 40.2774 59.1949 40.3498 59.4136 40.2774C59.4136 40.3498 59.4136 40.4947 59.4136 40.6396C59.4136 40.7845 59.4136 40.9294 59.4136 41.0018C59.4136 41.0018 59.4136 41.0742 59.3407 41.2916C59.1949 41.2191 59.122 41.1467 59.0491 41.2191L58.9033 41.5089C58.9033 41.5813 58.9762 41.6538 59.0491 41.6538C59.122 41.6538 59.1949 41.6538 59.3407 41.6538L59.2678 41.7987C59.2678 41.8711 59.3407 42.016 59.4136 42.0884C59.4865 42.2333 59.5594 42.3057 59.5594 42.3782L59.3407 42.5955C59.3407 42.7404 59.4865 42.8128 59.6323 42.8128C59.851 42.8128 59.9239 42.8853 59.9239 42.9577C59.9239 43.0302 59.9239 43.1026 59.851 43.175C59.9239 43.3924 59.9968 43.4648 60.0697 43.4648V43.3924H60.2155V43.4648H59.9239V43.5372L60.1426 43.827C60.3613 43.827 60.5071 43.7546 60.58 43.6821L60.8716 43.8994H60.9445L61.1632 43.7546C61.309 43.7546 61.4548 43.7546 61.6735 43.827C61.8922 43.8994 62.1109 43.8994 62.1838 43.8994C62.4754 43.8994 62.6941 43.827 62.9128 43.6821L63.1315 43.7546L63.2773 43.5372L62.9857 43.3199L63.3502 43.0302L63.0586 42.7404C63.3502 42.6679 63.4231 42.5955 63.4231 42.3782C63.4231 42.3057 63.4231 42.2333 63.3502 42.0884C63.3502 41.9435 63.2773 41.8711 63.2773 41.7987L63.0586 41.5813C63.2044 41.5089 63.2773 41.4365 63.2773 41.2916C63.2773 41.1467 63.1315 41.0742 62.9128 41.0742C62.8399 41.0742 62.6941 41.0742 62.4754 41.1467C62.2567 41.2191 62.1838 41.2191 62.038 41.2191C61.9651 41.2191 61.8193 41.1467 61.4548 41.0742V40.6396C61.4548 40.6396 61.4548 40.5672 61.5277 40.3498C61.6006 40.2774 62.038 40.2774 62.6212 40.2774C62.6941 40.2774 62.767 40.2774 62.9128 40.3498C63.0586 40.4223 63.1315 40.4223 63.2044 40.4223C63.496 40.4223 63.7147 40.3498 63.7147 40.1325L63.1315 39.8428H63.4231C63.4231 39.8428 63.5689 39.8428 63.7876 39.7703C63.7876 39.9152 63.7876 40.0601 63.8605 40.1325C63.8605 40.2774 63.9334 40.3498 64.0792 40.3498C64.3708 40.2774 64.5166 40.2774 64.5166 40.2774C64.5895 40.2774 64.7353 40.2774 64.954 40.3498C65.1727 40.3498 65.3185 40.3498 65.3914 40.3498L65.4643 40.4947L65.3185 40.4223L65.0269 40.6396L65.2456 40.8569L65.4643 40.7845ZM64.0792 36.9451L63.9334 37.1624L63.6418 36.8727L63.8605 36.7278L64.0792 36.9451Z" fill="white"/>
<path d="M68.3804 43.3917C68.3804 43.2468 68.3804 43.2468 68.3075 43.1744C68.2346 43.3193 68.1617 43.3917 68.0888 43.3917C68.0888 43.3917 68.0888 43.3917 68.0159 43.3917C68.0159 43.3917 68.0159 43.3917 68.0159 43.4641V43.5366C68.0159 43.5366 68.0159 43.609 68.0888 43.609L68.3804 43.5366C68.3804 43.4641 68.3804 43.4641 68.3804 43.3917ZM67.4327 41.8704C67.3598 41.798 67.3598 41.7256 67.2869 41.7256C67.214 41.7256 67.214 41.7256 67.214 41.798V41.8704V41.9429H67.2869C67.3598 42.0153 67.4327 41.9429 67.4327 41.8704ZM67.3598 41.2909C67.3598 41.2185 67.3598 41.146 67.2869 41.146V41.2909H67.3598ZM69.6926 43.5366C69.6926 43.3917 69.6197 43.3917 69.5468 43.3917C69.4739 43.3917 69.401 43.4641 69.401 43.5366C69.4739 43.609 69.5468 43.6815 69.6197 43.6815C69.6926 43.609 69.6926 43.5366 69.6926 43.5366ZM70.2758 43.4641C70.2758 43.3917 70.2029 43.3917 70.13 43.3917C70.0571 43.3917 70.0571 43.3917 70.0571 43.4641C70.0571 43.4641 70.0571 43.4641 70.0571 43.5366C70.0571 43.5366 70.0571 43.609 70.13 43.609C70.13 43.609 70.2029 43.609 70.2758 43.5366V43.4641ZM67.2869 40.2043C67.2869 40.1319 67.214 40.0594 67.1411 40.0594C67.0682 40.0594 66.9953 40.1319 66.9953 40.2043C66.9953 40.2767 67.0682 40.3492 67.214 40.3492C67.214 40.3492 67.2869 40.3492 67.2869 40.2043ZM70.859 43.4641H70.7132H70.6403V43.6815H70.7861C70.7861 43.6815 70.7861 43.6815 70.859 43.609C70.859 43.5366 70.859 43.5366 70.859 43.4641ZM71.5151 41.2185L71.1506 41.0736C71.2964 41.0736 71.2964 40.9287 71.2964 40.7838C71.2964 40.7114 71.2235 40.6389 71.1506 40.5665C71.0777 40.4941 71.0048 40.4941 70.9319 40.4216C70.9319 40.3492 70.859 40.2043 70.7132 40.0594C70.5674 39.9145 70.4945 39.7697 70.4945 39.6972C70.4945 39.6248 70.4945 39.5523 70.5674 39.4799H70.0571C70.0571 39.4075 69.9113 39.335 69.6926 39.335C69.5468 39.2626 69.4739 39.1901 69.4739 39.0453C69.401 38.9728 69.3281 38.9728 69.3281 38.9728C69.2552 38.9728 69.2552 39.0452 69.2552 39.1177C69.2552 39.1177 69.2552 39.1901 69.2552 39.335C69.2552 39.4075 69.1823 39.4799 69.1094 39.4799C68.8907 39.4799 68.8178 39.4075 68.8178 39.2626V39.1901H68.7449V39.2626C68.7449 39.335 68.672 39.4075 68.5991 39.4799C68.5262 39.5523 68.3804 39.5523 68.3075 39.5523C68.2346 39.6248 68.1617 39.7697 68.1617 39.9145C68.1617 40.1319 68.1617 40.2767 68.0888 40.3492C68.0888 40.2767 68.0159 40.2043 68.0159 40.2043C68.0159 40.1319 67.943 40.1319 67.8701 40.1319C67.7972 40.1319 67.7243 40.2043 67.6514 40.2767C67.6514 40.2767 67.6514 40.3492 67.7243 40.4216C67.7243 40.4941 67.7972 40.4941 67.7972 40.5665C67.7972 40.5665 67.7972 40.639 67.7243 40.7114C67.7243 40.7838 67.6514 40.8563 67.6514 40.9287C67.6514 41.146 67.6514 41.5082 67.7243 41.9429C67.7972 42.45 67.8701 42.7397 67.943 42.8122L68.0888 42.6673C68.2346 42.7397 68.3075 42.8846 68.3075 43.1019C68.3075 43.2468 68.3804 43.3917 68.5262 43.3917C68.5262 43.3917 68.5991 43.3917 68.672 43.3193C68.7449 43.3193 68.7449 43.2468 68.8178 43.2468C68.9636 43.2468 68.9636 43.3193 69.0365 43.3917C69.0365 43.3193 69.0365 43.3917 69.0365 43.609C69.0365 43.6815 69.1094 43.7539 69.2552 43.7539C69.2552 43.7539 69.3281 43.7539 69.401 43.6815L69.4739 43.3917C69.9113 43.3193 70.2029 43.2468 70.3487 43.3193C70.3487 43.2468 70.4216 43.1744 70.4945 43.1744C70.4945 43.1744 70.5674 43.1744 70.6403 43.1744C70.7132 43.1744 70.7132 43.1744 70.7861 43.1744C70.9319 43.1744 70.9319 43.1019 70.9319 42.9571C70.9319 42.8846 70.7861 42.8122 70.5674 42.8846L70.3487 42.7397C70.4945 42.6673 70.6403 42.6673 70.7861 42.5949C70.9319 42.5224 71.0048 42.45 71.0777 42.3051L71.3693 42.5224L71.4422 42.45V42.3775C71.4422 42.3051 71.4422 42.2327 71.3693 42.1602C71.2964 42.0878 71.2235 42.0878 71.1506 42.0153C71.1506 41.9429 71.2964 41.8704 71.4422 41.798V41.5082C71.2964 41.4358 71.3693 41.2909 71.5151 41.2185ZM67.5785 38.9728V38.9004H67.5056V38.9728H67.5785ZM71.8796 41.2909C71.8796 41.2185 71.8796 41.2185 71.8067 41.2185C71.7338 41.2185 71.7338 41.2185 71.6609 41.2909L71.7338 41.3634H71.8067C71.8796 41.2909 71.8796 41.2909 71.8796 41.2909ZM71.1506 39.5523C71.1506 39.4799 71.0777 39.4799 71.0048 39.4799C70.859 39.4799 70.859 39.5523 70.859 39.6248C70.9319 39.6248 70.9319 39.6972 71.0048 39.6972C71.1506 39.6248 71.1506 39.5523 71.1506 39.5523ZM69.8384 38.3933V38.3208H69.7655V38.3933H69.8384ZM71.2235 38.9004C71.2235 38.8279 71.1506 38.7555 71.0777 38.7555C71.0048 38.7555 70.9319 38.8279 70.9319 38.9004C70.9319 38.9728 70.9319 39.0453 71.0048 39.0453C71.1506 39.0453 71.2235 38.9728 71.2235 38.9004ZM72.2441 41.6531C72.2441 41.6531 72.2441 41.7256 72.1712 41.8704C72.1712 42.0153 72.1712 42.1602 72.1712 42.1602C72.1712 42.5224 72.0254 42.8846 71.6609 43.2468C71.4422 43.3193 71.2964 43.4641 71.0777 43.6815C70.859 43.8988 70.6403 43.9712 70.3487 43.9712C70.2758 43.9712 70.2029 44.0437 70.13 44.1161C70.0571 44.1886 69.9842 44.261 69.9842 44.261C69.9113 44.261 69.9113 44.1886 69.8384 44.1161C69.7655 44.0437 69.7655 43.9712 69.6926 43.9712L69.4739 44.261C69.401 44.1886 69.3281 44.1161 69.1823 43.9712C69.1094 44.0437 69.0365 44.1161 69.1094 44.261H69.0365C68.9636 44.261 68.8907 44.1886 68.7449 44.0437C68.672 43.8988 68.5991 43.8264 68.4533 43.8264C68.3804 43.8264 68.3075 43.8264 68.2346 43.8988L68.3075 43.609L68.2346 43.4641L67.943 43.5366L68.0888 43.6815L67.943 43.7539L67.8701 43.5366L67.7243 43.6815C67.7243 43.6815 67.6514 43.609 67.5785 43.3917C67.5056 43.3193 67.4327 43.2468 67.3598 43.2468C67.3598 43.2468 67.2869 43.2468 67.214 43.2468L67.1411 43.1019L67.3598 43.0295L67.5056 42.8846L67.3598 42.6673L67.0682 42.8846C66.9953 42.7397 66.9224 42.5224 66.8495 42.2327C66.7766 41.9429 66.7037 41.7256 66.6308 41.5807C66.7037 41.5082 66.7766 41.4358 66.7766 41.2909C66.7766 41.2185 66.7766 41.146 66.7037 41.0012C66.6308 40.8563 66.6308 40.7838 66.6308 40.7114C66.6308 40.639 66.6308 40.6389 66.6308 40.5665C66.5579 40.4941 66.5579 40.4216 66.5579 40.4216C66.5579 40.3492 66.5579 40.2043 66.6308 40.0594C66.7037 39.8421 66.7037 39.7697 66.7037 39.6972H66.7766C66.7766 39.6972 66.9224 39.6248 67.0682 39.5523V39.335C67.0682 39.0452 67.1411 38.9004 67.2869 38.7555C67.3598 38.683 67.5785 38.6106 67.8701 38.5382C68.1617 38.4657 68.3075 38.3933 68.4533 38.2484C68.5262 38.3933 68.5991 38.4657 68.7449 38.4657C68.8178 38.4657 68.8907 38.3208 68.9636 38.1035C69.0365 38.1035 69.0365 38.176 69.1094 38.3208C69.1823 38.4657 69.2552 38.4657 69.3281 38.4657C69.4739 38.3933 69.4739 38.2484 69.4739 38.1035C69.9842 38.1035 70.2758 38.2484 70.4945 38.5382C70.6403 38.4657 70.7132 38.3933 70.7132 38.3933C70.7861 38.3933 70.859 38.3933 71.0048 38.4657C71.1506 38.5382 71.2235 38.5382 71.2964 38.5382C71.2964 38.7555 71.4422 38.9004 71.6609 39.0453C71.8796 39.1901 72.0254 39.4075 72.0983 39.5523L72.317 40.9287C72.1712 41.2185 72.1712 41.2185 72.1712 41.2185C72.1712 41.2909 72.1712 41.2909 72.2441 41.4358C72.2441 41.5082 72.2441 41.5807 72.2441 41.6531Z" fill="white"/>
<path d="M82.1586 45.6373L82.0857 45.5649H82.0128L82.1586 45.6373ZM82.9605 45.6373C82.8876 45.5649 82.8147 45.4925 82.7418 45.4925C82.6689 45.4925 82.596 45.5649 82.5231 45.6373C82.5231 45.7098 82.5231 45.7822 82.596 45.8547C82.5231 45.9271 82.4502 45.9996 82.4502 45.9996C82.5231 45.9271 82.596 45.9271 82.6689 45.9271C82.6689 45.9271 82.6689 45.9271 82.7418 45.9271H82.8147C82.8876 45.9271 82.8876 45.9271 82.9605 45.8547C83.0334 45.7822 82.9605 45.6373 82.9605 45.6373ZM83.3979 45.5649C83.3979 45.4925 83.325 45.4925 83.325 45.4925C83.1792 45.4925 83.1792 45.5649 83.1792 45.6373C83.1792 45.7098 83.1792 45.7098 83.2521 45.7822C83.325 45.7822 83.3979 45.7098 83.3979 45.5649ZM84.5643 45.7098V45.6373H84.4914V45.7098H84.5643ZM83.4708 44.4059C83.3979 44.3334 83.3979 44.261 83.325 44.261H83.2521V44.4059H83.325C83.3979 44.4059 83.3979 44.4059 83.4708 44.4059ZM83.3979 42.5224C83.3979 42.4499 83.3979 42.4499 83.3979 42.4499C83.325 42.4499 83.2521 42.3775 83.1792 42.3775C83.1063 42.3775 83.0334 42.4499 83.0334 42.5224V42.5948C83.1063 42.6673 83.1063 42.6673 83.1792 42.6673H83.2521C83.2521 42.6673 83.2521 42.6673 83.325 42.6673C83.325 42.5948 83.3979 42.5948 83.3979 42.5224ZM84.054 41.0736C84.054 41.0011 83.9811 40.9287 83.9082 40.9287C83.7624 40.9287 83.6895 41.0011 83.6895 41.2185C83.6895 41.3633 83.7624 41.3633 83.8353 41.3633H83.9082C84.054 41.2909 84.054 41.2185 84.054 41.0736ZM83.2521 40.4216C83.2521 40.4216 83.1792 40.3492 83.1063 40.3492V40.494H83.2521V40.4216ZM83.325 39.8421C83.325 39.7696 83.2521 39.7696 83.1792 39.7696C83.1063 39.7696 83.1063 39.7696 83.1063 39.8421C83.1063 39.9145 83.1792 39.987 83.2521 39.987C83.325 39.987 83.325 39.9145 83.325 39.8421ZM85.0746 41.2185V41.0736C85.0746 41.0736 85.0746 41.0011 85.0017 41.0011C84.9288 41.0011 84.9288 41.0011 84.8559 41.0011V41.146H85.0746V41.2185ZM82.596 38.0311C82.596 37.9586 82.5231 37.8862 82.3773 37.8862C82.3044 37.8862 82.1586 37.9586 81.9399 38.0311C81.9399 38.1759 82.0857 38.2484 82.2315 38.2484H82.3773C82.5231 38.1035 82.596 38.1035 82.596 38.0311ZM83.2521 38.8279V38.6106H83.0334V38.8279H83.2521ZM87.8448 38.8279L87.5532 38.9003L87.4074 38.8279L87.5532 38.6106C87.5532 38.3933 87.4803 38.3208 87.4074 38.3208C87.4074 38.3208 87.2616 38.3208 87.1158 38.3933L86.8971 38.3208L86.97 38.1759L87.1158 38.2484L87.4074 38.1759V37.9586L87.2616 37.8862C87.2616 37.8862 87.1887 37.8862 87.1158 37.9586C87.0429 38.0311 86.97 38.0311 86.97 38.0311C86.8971 38.0311 86.8971 38.0311 86.8242 37.9586C86.7513 37.9586 86.6055 37.9586 86.5326 37.9586C86.3139 37.9586 86.241 37.9586 86.241 37.9586C85.9494 37.9586 85.8036 38.1035 85.8765 38.3933L85.6578 38.1035C85.5849 38.1759 85.3662 38.1759 85.1475 38.1035C84.9288 38.031 84.783 38.1035 84.7101 38.3208V38.3933L84.783 38.4657H84.5643C84.6372 38.3933 84.6372 38.3208 84.6372 38.3208L84.4185 38.0311C84.3456 38.0311 84.1998 38.1035 83.9811 38.1035C83.7624 38.1035 83.6895 38.1759 83.6166 38.2484C83.6895 38.3933 83.6895 38.4657 83.6895 38.4657C83.6895 38.5381 83.6166 38.683 83.5437 38.7555C83.4708 38.9003 83.3979 38.9728 83.3979 39.0452V39.1177C83.2521 39.1177 83.2521 39.0452 83.2521 39.0452C83.1063 39.0452 82.9605 39.1177 82.9605 39.1901L83.1792 39.4074H83.2521L83.5437 39.1901C83.5437 39.4799 83.6166 39.7696 83.6166 39.987C83.6895 40.4216 83.7624 40.6389 83.9082 40.6389C83.9811 40.6389 84.1269 40.5665 84.2727 40.3492L84.1269 40.1318H84.054L84.2727 40.0594V40.5665C84.3456 40.5665 84.4185 40.494 84.5643 40.494C84.6372 40.494 84.783 40.494 85.0017 40.5665C85.1475 40.5665 85.2933 40.6389 85.4391 40.6389C85.6578 40.6389 85.8036 40.5665 85.9494 40.4216C85.9494 40.2767 85.8036 40.2767 85.512 40.2767L85.3662 40.1318C85.512 40.1318 85.5849 40.0594 85.7307 40.0594C85.8765 40.0594 85.9494 39.987 85.9494 39.8421C85.9494 39.7696 85.8765 39.6248 85.8036 39.4799L85.9494 39.335C86.0223 39.335 86.1681 39.4074 86.3868 39.5523C86.3139 39.6247 86.1681 39.6972 86.0223 39.8421L86.241 40.0594H86.5326C86.5326 40.0594 86.6055 40.0594 86.8242 40.1318C86.8242 40.2043 86.6784 40.2767 86.4597 40.2767C86.241 40.2767 86.1681 40.3492 86.1681 40.494C86.1681 40.494 86.1681 40.5665 86.241 40.6389L86.3868 40.7838C86.3868 40.8562 86.3868 40.9287 86.3139 41.0011C86.241 41.0736 86.241 41.146 86.241 41.2185L86.6784 41.5082C86.4597 41.5082 86.3868 41.5807 86.3868 41.798C86.3868 42.0153 86.3139 42.1602 86.3139 42.3051L85.9494 42.0877L86.0223 41.8704L85.7307 41.5807C85.6578 41.5807 85.512 41.5807 85.3662 41.5082C85.1475 41.4358 85.0746 41.3633 85.0017 41.3633V41.2185C85.0017 41.0736 84.9288 41.0011 84.7101 41.0011C84.7101 41.0011 84.6372 41.0736 84.4914 41.146L84.5643 41.5082C84.1269 41.5082 83.9082 41.5807 83.9082 41.6531C83.9082 41.8704 83.9082 42.1602 83.9082 42.3775L83.8353 42.7397C83.5437 42.7397 83.3979 42.8846 83.325 43.0295C83.325 43.1744 83.4708 43.2468 83.6166 43.2468C83.7624 43.2468 83.8353 43.2468 83.9811 43.3192V43.4641H83.6895L83.4708 43.609L83.6166 43.8988H83.7624C83.9082 43.8988 83.9811 44.0436 83.9811 44.261C84.054 44.4783 84.1269 44.6232 84.1998 44.6232L83.9811 44.9129L84.1998 45.1303C84.2727 45.1303 84.3456 45.1303 84.4185 45.0578C84.4914 44.9854 84.5643 44.9854 84.6372 44.9854L84.8559 45.2027C85.2933 45.2027 85.512 45.3476 85.512 45.5649C85.512 45.6374 85.4391 45.7098 85.3662 45.7822C85.2933 45.8547 85.2204 45.9271 85.2933 45.9996C85.1475 45.9996 85.0746 46.072 85.0746 46.072C84.9288 46.072 84.783 45.9996 84.5643 45.9271C84.5643 45.6374 84.4914 45.4925 84.2727 45.4925C84.1998 45.4925 84.054 45.5649 83.9811 45.7822L84.1269 46.072C83.9082 46.072 83.7624 46.1444 83.5437 46.1444C83.2521 46.1444 82.7418 46.072 82.1586 45.9996C82.1586 45.9271 82.1586 45.9271 82.1586 45.8547C82.1586 45.8547 82.1586 45.7822 82.1586 45.7098C82.1586 45.6373 82.1586 45.6373 82.1586 45.6373C82.1586 45.42 82.3044 45.2751 82.5231 45.2751C82.596 45.2751 82.6689 45.2751 82.8147 45.3476C82.9605 45.42 83.0334 45.42 83.1063 45.42L83.2521 45.2027V45.0578L82.9605 44.8405H82.8876L82.9605 44.7681L83.0334 44.8405C83.2521 44.7681 83.325 44.6956 83.325 44.5507C83.325 44.4783 83.2521 44.4059 83.1063 44.261C83.0334 44.1885 82.8876 44.1161 82.8147 44.0436C82.8147 44.0436 82.9605 43.9712 83.1063 43.8988C83.2521 43.8988 83.2521 43.8263 83.2521 43.6814V43.609L83.0334 43.4641L83.2521 43.1019C83.2521 43.0295 83.1792 42.957 83.0334 42.8846C82.9605 42.8846 82.8147 42.8122 82.7418 42.8122C82.7418 42.8122 82.8876 42.7397 83.0334 42.6673C83.1063 42.5948 83.1792 42.5224 83.2521 42.4499C83.1063 42.3775 83.0334 42.3051 83.0334 42.2326C83.0334 42.1602 83.0334 42.0877 83.1063 42.0153C83.1063 41.9429 83.1792 41.798 83.1792 41.7255L82.8876 41.5082C83.1063 41.4358 83.1792 41.2909 83.1792 41.146C83.1792 41.0736 83.1792 41.0011 83.1063 40.9287C83.1063 40.8562 83.0334 40.7114 83.0334 40.5665C83.0334 40.4216 82.9605 40.2767 82.7418 40.2043L83.0334 39.987V39.8421C83.0334 39.7696 82.9605 39.6972 82.8147 39.6972C82.6689 39.6248 82.596 39.6247 82.596 39.5523V39.4074L82.8876 39.4799L82.9605 39.335L82.3773 39.1177L82.1586 38.9003C82.1586 38.9003 82.3044 38.9003 82.4502 38.8279C82.596 38.8279 82.6689 38.7555 82.6689 38.683C82.6689 38.5381 82.5231 38.4657 82.3044 38.3933C82.3773 38.3933 82.1586 38.3933 81.867 38.3933C81.5754 38.3933 81.4296 38.3208 81.3567 38.1035V37.9586C81.3567 37.8862 81.2838 37.8137 81.2109 37.7413C81.0651 37.6688 80.9922 37.5964 80.9922 37.5964C81.2109 37.4515 81.6483 37.3791 82.3044 37.3791C82.6689 37.3791 82.8147 37.3791 82.9605 37.4515C83.1063 37.4515 83.2521 37.3791 83.325 37.3066C83.3979 37.3066 83.5437 37.3066 83.6166 37.3791C83.7624 37.3791 83.8353 37.4515 83.9082 37.4515L83.9811 37.3791C84.054 37.4515 84.1998 37.524 84.2727 37.524C84.3456 37.524 84.4914 37.524 84.6372 37.4515C84.783 37.3791 84.9288 37.3791 85.0017 37.3791C85.1475 37.3791 85.2933 37.4515 85.3662 37.524L85.512 37.3791C85.6578 37.3791 85.8765 37.3791 86.1681 37.3791C86.5326 37.3791 86.7513 37.3066 86.8242 37.3066C87.1158 37.3066 87.3345 37.3791 87.5532 37.4515L87.4803 37.7413L87.699 38.0311C87.4803 38.1759 87.4074 38.2484 87.4074 38.3208C87.4074 38.3933 87.4074 38.4657 87.4803 38.5381C87.6261 38.7555 87.699 38.7555 87.8448 38.8279ZM87.6261 40.2043H87.4803L87.5532 40.0594C87.6261 40.0594 87.6261 40.1318 87.6261 40.2043ZM87.8448 39.4799C87.7719 39.5523 87.699 39.6248 87.5532 39.6248H87.4803V39.335C87.6261 39.335 87.699 39.4074 87.8448 39.4799Z" fill="white"/>
<path d="M89.74 42.6678C89.74 42.523 89.6671 42.4505 89.5942 42.4505C89.5213 42.4505 89.4484 42.523 89.4484 42.5954C89.4484 42.5954 89.4484 42.6678 89.5213 42.7403C89.5942 42.8127 89.5942 42.8127 89.6671 42.8127C89.6671 42.8127 89.74 42.8127 89.74 42.7403V42.6678ZM92.0728 44.4064C92.0728 44.334 91.9999 44.2615 91.927 44.2615C91.7812 44.2615 91.7083 44.334 91.7083 44.4789C91.7083 44.6238 91.7812 44.6237 91.927 44.6237C91.9999 44.6237 91.9999 44.6237 91.9999 44.5513C92.0728 44.4064 92.0728 44.4064 92.0728 44.4064ZM89.8129 41.4363C89.8129 41.3639 89.74 41.3639 89.74 41.3639C89.6671 41.2915 89.5942 41.219 89.5213 41.219C89.4484 41.219 89.4484 41.219 89.4484 41.219V41.5812H89.6671C89.8129 41.5088 89.8129 41.5088 89.8129 41.4363ZM94.114 43.8269V43.7545H94.0411L94.114 43.8269ZM89.3026 38.9009V39.0458C89.3026 39.0458 89.3026 39.0458 89.3026 38.9734V38.9009ZM90.3961 39.6253C90.3961 39.5529 90.3232 39.4804 90.2503 39.4804C90.1774 39.4804 90.1045 39.4804 90.1045 39.5529C90.1045 39.6253 90.1774 39.6978 90.2503 39.6978C90.3232 39.6978 90.3961 39.6978 90.3961 39.6253ZM94.4056 43.1749V43.1025C94.3327 43.03 94.2598 42.9576 94.1869 42.9576H94.114L94.0411 43.2474C94.1869 43.3198 94.2598 43.3923 94.2598 43.3923C94.3327 43.3923 94.4056 43.3198 94.4056 43.1749ZM93.8224 42.0159C93.8224 41.871 93.7495 41.7986 93.6766 41.7986C93.6037 41.7986 93.5308 41.7986 93.4579 41.871C93.385 41.9434 93.385 41.9434 93.385 42.0159C93.385 42.0883 93.4579 42.0883 93.5308 42.0883H93.6037H93.6766H93.7495C93.7495 42.1608 93.7495 42.1608 93.8224 42.0159C93.8224 42.0883 93.8224 42.0883 93.8224 42.0159ZM93.8224 41.0017C93.8224 40.9293 93.8224 40.9293 93.8224 40.8568C93.8224 40.8568 93.8224 40.8568 93.8224 40.7844C93.8224 40.7844 93.8224 40.7844 93.8224 40.7119C93.8224 40.7119 93.8224 40.7119 93.8224 40.6395C93.7495 40.5671 93.7495 40.5671 93.6766 40.5671C93.5308 40.5671 93.4579 40.6395 93.4579 40.8568L93.8224 41.0017ZM93.7495 40.06C93.7495 39.9875 93.7495 39.9875 93.6766 39.9875C93.5308 39.9875 93.4579 40.06 93.4579 40.1324C93.4579 40.1324 93.4579 40.1324 93.4579 40.2049C93.4579 40.2049 93.5308 40.2049 93.5308 40.2773C93.6037 40.2773 93.6037 40.3497 93.6037 40.3497C93.7495 40.2049 93.7495 40.1324 93.7495 40.06ZM93.8953 39.5529C93.8953 39.408 93.8224 39.2631 93.6037 39.2631C93.4579 39.2631 93.385 39.3356 93.385 39.4804C93.5308 39.6253 93.6037 39.6978 93.7495 39.6978H93.8224C93.8224 39.6978 93.8224 39.6253 93.8953 39.6253C93.8953 39.6253 93.8953 39.6253 93.8953 39.5529ZM95.4262 44.1891V44.334L95.2076 44.1167C95.1347 44.1891 95.0617 44.2615 95.0617 44.4064C95.0617 44.5513 94.9888 44.6237 94.7701 44.6237L94.2598 44.6962V44.6237C94.2598 44.4789 94.1869 44.4064 94.0411 44.334L93.8953 44.4789L93.9682 44.6962C93.6766 44.6962 93.5308 44.6237 93.5308 44.4064L93.4579 44.2615L93.3121 44.4064C93.2392 44.4064 93.1663 44.334 93.0934 44.2615C93.0205 44.1891 92.9476 44.1167 92.8747 44.1167C92.8018 44.1891 92.8018 44.1891 92.7289 44.334C92.656 44.4064 92.656 44.4789 92.5831 44.5513C92.5831 44.4064 92.5102 44.334 92.4373 44.2615C92.2186 44.2615 92.1457 44.4064 92.1457 44.6237C92.1457 44.7686 92.0728 44.8411 91.8541 44.8411C91.6354 44.8411 91.4896 44.9135 91.4167 44.9135C91.2709 44.8411 91.198 44.7686 91.198 44.7686C91.1251 44.7686 90.9793 44.8411 90.8335 44.9135L90.6877 44.8411C90.7606 44.7686 90.7606 44.6238 90.8335 44.4789L90.7606 44.334L90.6148 44.2615L90.3232 44.6962C90.2503 44.4789 90.1774 44.4064 89.9587 44.4064C89.8129 44.4064 89.6671 44.2615 89.6671 44.0442C89.6671 43.9718 89.6671 43.8993 89.5942 43.8269C89.5213 43.7545 89.5213 43.682 89.5213 43.6096L89.6671 43.3923L89.5942 43.1749L89.3026 43.0301C89.3026 42.9576 89.3026 42.8852 89.2297 42.8127C89.2297 42.7403 89.1568 42.6678 89.1568 42.5954C89.1568 42.5954 89.1568 42.523 89.2297 42.4505H89.3755C89.5213 42.4505 89.5942 42.3781 89.6671 42.3056C89.6671 42.2332 89.6671 42.1608 89.6671 42.0883C89.6671 42.0159 89.5942 41.9434 89.5213 41.9434C89.4484 41.9434 89.3755 42.0159 89.2297 42.2332V41.0017L89.5213 41.219L89.74 40.9293C89.6671 40.7844 89.5942 40.7119 89.5213 40.7119C89.5213 40.7119 89.3755 40.7844 89.2297 40.8568C89.2297 40.7844 89.1568 40.7119 89.1568 40.5671C89.1568 40.4946 89.1568 40.4222 89.2297 40.2773C89.2297 40.1324 89.3026 40.06 89.3026 39.9875C89.3026 39.8426 89.2297 39.6978 89.0839 39.6253L88.7194 39.6978L88.5007 39.5529C88.5736 39.4804 88.5736 39.3356 88.6465 39.2631C88.7194 39.1907 88.7194 39.0458 88.7194 38.9734C88.8652 38.9734 88.9381 39.0458 88.9381 39.0458C89.011 39.0458 89.1568 39.0458 89.3026 38.9734C89.4484 38.9009 89.5942 38.9009 89.74 38.9009C89.8858 38.9009 90.0316 38.9734 90.1774 39.0458L90.0316 39.3356C90.0316 39.408 90.1045 39.4804 90.1774 39.408L90.469 39.3356C90.3232 39.5529 90.3232 39.8426 90.3961 40.1324C90.3232 40.1324 90.1774 40.2049 90.1045 40.2049C90.0316 40.2049 89.9587 40.2773 89.8858 40.3497C89.9587 40.4222 89.9587 40.4946 89.9587 40.6395C89.9587 40.7119 89.9587 40.7119 89.9587 40.7844C89.9587 40.8568 89.9587 40.9293 89.9587 40.9293C89.9587 41.0741 90.0316 41.1466 90.1045 41.219C90.1045 41.219 90.0316 41.2915 90.0316 41.3639C89.9587 41.4363 89.9587 41.5088 89.9587 41.5812C89.9587 41.6537 90.0316 41.7261 90.1045 41.7261C90.1774 41.7261 90.2503 41.7986 90.2503 41.871L89.9587 42.0883C89.9587 42.3056 90.0316 42.4505 90.2503 42.523L90.1045 42.7403L90.2503 43.0301C90.0316 43.0301 89.9587 43.1025 89.8858 43.2474C90.0316 43.5371 90.2503 43.682 90.6148 43.6096L90.5419 43.8269L90.6877 43.8993L90.8335 43.682C90.9064 43.7545 90.9064 43.8269 90.9793 43.8993C90.9793 43.9718 90.9793 44.0442 90.9793 44.1891C90.9793 44.334 90.9793 44.4064 90.9793 44.4064C90.9793 44.6237 91.0522 44.7686 91.2709 44.7686C91.3438 44.7686 91.4167 44.6962 91.4167 44.6237C91.4167 44.5513 91.4167 44.4789 91.3438 44.4064C91.3438 44.334 91.2709 44.2615 91.2709 44.1891C91.2709 44.1167 91.2709 44.1167 91.3438 44.0442C91.4167 44.0442 91.4896 44.0442 91.5625 44.0442C91.6354 44.0442 91.7083 44.0442 91.7083 44.0442C91.927 44.0442 91.9999 43.8993 91.9999 43.5371H92.0728C92.0728 43.7545 92.1457 43.8993 92.2915 43.9718C92.3644 43.8993 92.4373 43.682 92.4373 43.4647C92.4373 43.1749 92.5102 42.9576 92.5102 42.8852C92.8747 42.7403 93.0205 42.5954 93.0934 42.4505C93.1663 42.3781 93.1663 42.0883 93.1663 41.7261C93.1663 41.5088 93.1663 41.219 93.0934 40.8568C93.0934 40.4946 93.0205 40.2049 93.0205 39.9875C92.8747 39.9875 92.7289 39.8426 92.5102 39.6978C92.2915 39.4804 92.1457 39.408 91.9999 39.408C91.927 39.2631 91.927 39.1182 91.927 39.1182C92.0728 39.1907 92.2186 39.2631 92.2915 39.2631C92.3644 39.2631 92.4373 39.1907 92.5102 39.0458C92.5831 38.9009 92.5831 38.8285 92.656 38.8285C92.656 38.8285 92.7289 38.9009 92.7289 38.9734C92.7289 39.0458 92.8018 39.1182 92.8747 39.1182C92.9476 39.1182 92.9476 39.1182 93.0205 39.0458C93.0934 38.9734 93.1663 38.9734 93.1663 38.9734L93.3121 39.1182C93.385 39.1182 93.4579 39.0458 93.5308 38.9009C93.6037 38.756 93.6766 38.756 93.6766 38.756C93.6766 38.756 93.7495 38.756 93.8224 38.8285C93.8224 38.9009 93.7495 38.9734 93.6766 39.1182C93.7495 39.1907 93.8953 39.2631 94.0411 39.408L93.8953 39.6253C93.8953 39.6253 93.9682 39.6978 94.114 39.7702C94.1869 39.8426 94.2598 39.9151 94.2598 39.9875H94.1869C93.8953 39.9875 93.8224 40.06 93.8224 40.2773C93.8224 40.4222 93.8953 40.4946 94.114 40.4946C94.2598 40.4946 94.4056 40.5671 94.4056 40.6395H94.2598C94.0411 40.6395 93.8953 40.7119 93.8953 40.9293C93.8953 41.3639 93.8953 41.5812 93.8953 41.5812C94.0411 41.7261 94.114 41.7986 94.2598 41.7261C94.1869 41.7986 94.0411 41.871 93.8953 42.0883C93.9682 42.2332 94.0411 42.3056 94.0411 42.3056C94.0411 42.3781 94.0411 42.4505 93.9682 42.523C93.8953 42.5954 93.8953 42.6678 93.8953 42.7403C93.8953 42.8852 93.9682 42.9576 94.0411 42.9576C93.8953 42.9576 94.0411 42.9576 94.3327 42.9576C94.4056 42.9576 94.4785 43.1025 94.4785 43.3198C94.4785 43.4647 94.5514 43.5371 94.6243 43.6096L94.4785 43.682V43.8269L94.6243 44.0442L94.9159 43.9718V43.7545C94.9159 43.8269 94.9889 43.9718 95.2076 44.0442C95.3534 43.9718 95.4262 44.0442 95.4262 44.1891ZM90.5419 38.756L90.469 38.6836H90.5419V38.756Z" fill="white"/>
<path d="M97.6134 44.552C97.6134 44.4796 97.6134 44.4796 97.6134 44.4796C97.6134 44.4796 97.6134 44.4796 97.5405 44.4796C97.4676 44.4796 97.4676 44.552 97.4676 44.6245L97.6134 44.552C97.6134 44.6245 97.6134 44.6245 97.6134 44.552ZM98.1966 44.1898V43.9725C98.1966 43.9725 98.1966 43.9725 98.1237 43.9725C98.1237 43.9725 98.1237 43.9725 98.0508 43.9725H97.9779C97.905 43.9725 97.905 43.9725 97.905 44.0449V44.1174C97.905 44.2622 97.9779 44.3347 98.0508 44.3347C98.1237 44.2622 98.1237 44.2622 98.1966 44.1898ZM99.5817 44.1898C99.5817 44.1898 99.5817 44.1174 99.5088 44.0449C99.4359 43.9725 99.4359 43.9 99.4359 43.9V43.8276C99.4359 43.7552 99.363 43.7552 99.2901 43.7552H99.2172H99.1443C99.0714 43.8276 98.9985 43.9 98.9985 43.9725C98.9985 44.0449 99.0714 44.1174 99.2172 44.1174C99.363 44.1898 99.4359 44.2622 99.4359 44.3347C99.5817 44.2622 99.5817 44.1898 99.5817 44.1898ZM98.7798 43.3205C98.7798 43.1756 98.7069 43.1756 98.634 43.1756C98.4882 43.1756 98.4153 43.2481 98.4153 43.3205L98.4882 43.393C98.4882 43.393 98.4882 43.393 98.5611 43.393C98.5611 43.393 98.634 43.393 98.634 43.3205C98.7798 43.393 98.7798 43.3205 98.7798 43.3205ZM100.019 43.7552C99.9462 43.6827 99.9462 43.6827 99.8733 43.6827C99.7275 43.6827 99.6546 43.7552 99.6546 43.8276C99.6546 43.9 99.7275 43.9 99.8004 43.9C99.9462 43.9 100.019 43.8276 100.019 43.7552ZM98.634 41.3646C98.5611 41.3646 98.5611 41.3646 98.634 41.3646C98.4882 41.3646 98.4882 41.3646 98.4882 41.4371C98.4882 41.4371 98.4882 41.4371 98.5611 41.4371C98.5611 41.5095 98.5611 41.437 98.634 41.3646ZM98.7798 40.278C98.7798 40.2056 98.7069 40.1331 98.634 40.1331C98.4882 40.1331 98.4153 40.2056 98.4153 40.278C98.4153 40.3504 98.4153 40.3504 98.4882 40.4229C98.5611 40.4229 98.5611 40.4953 98.634 40.5678C98.7069 40.3504 98.7798 40.278 98.7798 40.278ZM99.4359 40.2056C99.4359 40.1331 99.4359 40.1331 99.363 40.0607C99.2901 40.0607 99.2901 39.9882 99.2172 39.9882C99.363 39.8434 99.4359 39.7709 99.4359 39.626C99.4359 39.5536 99.363 39.4811 99.2901 39.4811C99.1443 39.4087 99.0714 39.4087 99.0714 39.3363C99.0714 39.4087 99.0714 39.4087 98.9985 39.4811C98.9985 39.5536 98.9256 39.626 98.9256 39.626C98.9256 39.6985 98.9985 39.7709 99.0714 39.7709H98.9985C98.9985 39.7709 98.9985 39.8434 99.0714 39.8434C99.1443 39.8434 99.1443 39.8433 99.1443 39.9158C99.1443 39.9158 99.0714 39.9882 98.9985 40.0607C98.9256 40.1331 98.9256 40.2056 98.9256 40.2056C98.9256 40.278 98.9985 40.278 99.0714 40.278C99.2172 40.278 99.2901 40.2056 99.363 40.1331C99.4359 40.278 99.4359 40.278 99.4359 40.2056ZM102.498 39.9158C102.352 40.2056 102.279 40.4229 102.279 40.4953C102.206 40.4953 102.133 40.5678 101.987 40.5678C101.842 40.6402 101.769 40.6402 101.696 40.6402C101.696 40.6402 101.623 40.6402 101.477 40.5678V40.4953L101.696 40.2056L101.769 40.3504H101.914C102.06 40.3504 102.133 40.278 102.206 40.1331C102.206 40.0607 102.206 39.9882 102.206 39.9158C102.206 39.7709 102.206 39.6985 102.206 39.6985C102.206 39.5536 102.133 39.4087 101.987 39.4087C101.769 39.4087 101.623 39.626 101.696 40.0607L101.623 39.7709L101.696 39.6985L101.623 39.4087C101.404 39.3363 101.258 39.3363 101.113 39.3363C100.894 39.3363 100.748 39.4087 100.602 39.5536C100.456 39.4811 100.384 39.4087 100.238 39.4087H100.165L100.092 39.626C99.9462 39.5536 99.8733 39.4811 99.8004 39.4811C99.6546 39.4811 99.5817 39.5536 99.5817 39.626C99.5088 39.7709 99.5088 39.9158 99.4359 39.9158L99.6546 39.9882C99.5817 40.0607 99.5088 40.1331 99.5088 40.278C99.4359 40.4229 99.363 40.4953 99.2172 40.4953L98.9985 40.7126C98.9985 40.7851 98.9985 40.8575 99.0714 40.93C99.1443 41.0024 99.1443 41.0748 99.1443 41.1473L98.9985 41.3646C99.0714 41.5095 99.1443 41.5819 99.1443 41.5819C99.1443 41.6544 99.1443 41.7268 99.0714 41.8717C98.9985 42.0166 98.9985 42.089 98.9985 42.1615L99.2901 42.4512L99.0714 42.6685L98.8527 42.5961L98.5611 42.8134C98.5611 42.9583 98.634 43.0308 98.7069 43.0308C98.7798 43.0308 98.7798 43.0308 98.9256 42.9583C98.9985 42.9583 99.0714 42.8859 99.1443 42.8859L99.2901 42.9583C99.1443 43.1032 99.0714 43.2481 99.0714 43.2481C99.2172 43.3205 99.4359 43.393 99.8733 43.4654C100.238 43.5378 100.529 43.6103 100.602 43.6827C100.821 43.8276 100.967 44.0449 100.967 44.3347C100.967 44.3347 100.894 44.4796 100.821 44.6969C100.748 44.6969 100.602 44.6245 100.384 44.552C100.165 44.4796 100.019 44.4071 99.8733 44.3347H99.8004L99.7275 44.4796L99.8004 44.552C99.7275 44.552 99.5817 44.6245 99.4359 44.6245C99.2172 44.6245 99.1443 44.552 99.0714 44.4071C98.9985 44.2622 98.9256 44.1898 98.7798 44.1898C98.7798 44.1898 98.7069 44.1898 98.634 44.1898C98.4882 44.4796 98.1237 44.6245 97.4676 44.6245C97.0302 44.6245 96.8115 44.6245 96.8115 44.6245C96.7386 44.6245 96.6657 44.4796 96.6657 44.1898C96.6657 44.0449 96.6657 43.9725 96.5928 43.8276C96.6657 43.8276 96.7386 43.8276 96.8844 43.9C97.0302 43.9725 97.1031 43.9725 97.176 43.9725C97.2489 43.9725 97.2489 43.9725 97.3218 43.9725C97.3947 44.0449 97.5405 44.1174 97.6134 44.1174C97.6863 44.0449 97.8321 43.8276 97.905 43.6103C97.8321 43.4654 97.8321 43.393 97.8321 43.3205C97.9779 43.3205 98.1237 43.393 98.1237 43.393C98.1237 43.393 98.1966 43.393 98.4153 43.3205C98.4153 43.1756 98.4153 42.9583 98.4882 42.741C98.4882 42.4512 98.5611 42.3063 98.5611 42.1615C98.5611 41.8717 98.4882 41.6544 98.3424 41.5095C98.4153 41.4371 98.4882 41.3646 98.4882 41.2197C98.4882 41.0748 98.4882 41.0024 98.4882 40.8575V40.7126L98.7069 40.7851L98.9256 40.7126L98.9985 40.5678L98.7069 40.4229L98.634 40.4953C98.5611 40.4229 98.4882 40.278 98.4882 40.2056C98.4882 40.1331 98.4882 39.9882 98.5611 39.9158C98.634 39.7709 98.634 39.626 98.7069 39.626L98.9256 39.6985L99.0714 39.4811L98.9985 39.1189C98.9256 39.1189 98.8527 39.0465 98.8527 39.0465C98.7069 39.0465 98.5611 39.1189 98.4882 39.2638V39.3363L98.1966 39.1914C98.1237 39.1914 97.9779 39.2638 97.905 39.1914C97.6863 39.1914 97.5405 39.1914 97.5405 39.1914L97.3947 39.3363C97.3947 39.2638 97.3947 39.1914 97.3218 39.1189C97.2489 39.0465 97.2489 38.9741 97.2489 38.9016C97.2489 38.9016 97.2489 38.8292 97.3218 38.7567C97.3947 38.6843 97.3947 38.6119 97.3947 38.5394L96.9573 38.467L96.8115 38.6843L96.8844 38.7567L97.0302 38.9016L96.9573 39.1189L97.0302 39.1914C96.9573 39.1189 96.8844 39.0465 96.7386 39.0465C96.7386 38.9741 96.7386 38.9016 96.6657 38.7567C96.6657 38.6119 96.5928 38.5394 96.5928 38.5394C96.6657 38.467 96.8115 38.467 97.0302 38.467C97.1031 38.467 97.176 38.467 97.3218 38.467C97.4676 38.467 97.5405 38.467 97.6134 38.467C97.5405 38.5394 97.4676 38.6119 97.4676 38.7567L97.6134 38.9016C97.6863 38.9016 97.7592 38.8292 97.905 38.6843V38.467C97.9779 38.467 97.9779 38.5394 98.0508 38.6843C98.0508 38.8292 98.1237 38.9016 98.1966 38.9016C98.2695 38.9016 98.4153 38.9016 98.5611 38.9016C98.7798 38.9016 98.8527 38.9741 98.9256 38.9741C99.0714 38.9741 99.1443 38.9016 99.2172 38.8292C99.2901 38.9016 99.363 38.9016 99.5088 38.9016H99.5817L99.8004 38.6843L99.8733 38.8292C99.8733 38.9016 99.8004 39.0465 99.6546 39.1189L99.7275 39.2638C99.8733 39.1914 100.019 39.0465 100.165 38.9741C100.311 38.9016 100.384 38.7567 100.311 38.5394L100.384 38.3945H100.456C100.602 38.3945 100.675 38.467 100.675 38.6119C100.675 38.6843 100.675 38.8292 100.602 38.9741C100.675 39.0465 100.748 39.1189 100.894 39.1189C101.185 39.1189 101.331 39.1189 101.331 39.1189C101.404 39.0465 101.55 38.9016 101.769 38.9016L101.696 38.7567H101.55V38.467L101.842 38.3945C101.914 38.467 101.914 38.6119 101.987 38.8292C102.06 39.0465 102.06 39.1914 102.133 39.2638L102.498 39.1189C102.498 39.1189 102.571 39.2638 102.571 39.4811C102.352 39.9158 102.425 39.9882 102.498 39.9158ZM97.905 39.9882C97.8321 39.9882 97.8321 39.9882 97.905 39.9882C97.8321 40.0607 97.8321 40.0607 97.8321 40.0607H97.7592C97.6863 40.0607 97.6863 40.0607 97.6863 39.9882L97.7592 39.9158L97.905 39.9882ZM100.092 40.0607H99.9462L100.019 39.9158C100.019 39.9158 100.019 39.9158 100.092 40.0607ZM100.894 39.0465H100.748V38.9741C100.748 38.9016 100.748 38.9016 100.821 38.9016C100.894 38.9016 100.894 38.9016 100.894 38.9741V39.0465Z" fill="white"/>
<path d="M106.434 43.0298C106.434 42.9574 106.434 42.9574 106.361 42.8849C106.215 42.8849 106.143 42.9574 106.143 43.0298C106.143 43.1747 106.215 43.2471 106.288 43.2471C106.361 43.1747 106.434 43.1747 106.434 43.0298ZM107.601 44.1889V44.1164C107.528 44.044 107.528 44.044 107.528 44.044C107.455 44.1889 107.455 44.1889 107.455 44.1889V44.2613L107.601 44.1889C107.601 44.2613 107.601 44.2613 107.601 44.1889ZM106.288 42.4503C106.215 42.3779 106.215 42.3779 106.143 42.3779H106.07V42.5227H106.215C106.288 42.5227 106.288 42.4503 106.288 42.4503ZM106.215 41.4361L106.143 41.3637V41.4361H106.215ZM105.195 39.3353C105.195 39.2629 105.195 39.2629 105.122 39.2629C105.122 39.2629 105.049 39.3353 105.049 39.4078C105.049 39.4802 105.122 39.4802 105.122 39.4802C105.122 39.4802 105.122 39.4802 105.195 39.3353ZM106.288 40.422H106.143V40.5668H106.215C106.288 40.5668 106.288 40.4944 106.288 40.422ZM106.434 39.9149C106.434 39.8424 106.361 39.77 106.215 39.77C106.07 39.77 105.997 39.8424 105.997 39.9873C105.997 40.0597 106.07 40.1322 106.215 40.1322C106.288 40.1322 106.288 40.1322 106.361 40.0597C106.434 39.9873 106.434 39.9873 106.434 39.9149ZM105.851 39.4078C105.851 39.3353 105.851 39.3353 105.778 39.3353C105.705 39.3353 105.632 39.4078 105.632 39.4802L105.705 39.5527C105.778 39.4802 105.851 39.4802 105.851 39.4078ZM106.361 39.3353C106.288 39.1905 106.288 39.1905 106.215 39.1905C106.215 39.1905 106.143 39.2629 106.143 39.4802H106.288C106.361 39.4802 106.361 39.4078 106.361 39.3353ZM106.434 38.7558C106.434 38.6834 106.361 38.6834 106.288 38.6834C106.215 38.6834 106.143 38.7558 106.143 38.8283V38.9007C106.143 38.9731 106.143 38.9731 106.215 38.9731C106.361 38.9731 106.434 38.9007 106.434 38.7558ZM107.163 39.3353C107.163 39.1905 107.09 39.1905 106.944 39.1905H106.872C106.726 39.1905 106.653 39.2629 106.653 39.4802V39.5527H106.726C106.799 39.5527 106.799 39.5527 106.799 39.5527C106.872 39.5527 106.872 39.5527 106.944 39.4802C107.09 39.4078 107.163 39.4078 107.163 39.3353ZM107.017 38.6834L106.944 38.6109C106.944 38.6109 106.872 38.6109 106.799 38.6834C106.726 38.6834 106.726 38.7558 106.653 38.7558C106.726 38.8283 106.799 38.9007 106.872 38.9007C106.944 38.9007 107.017 38.8283 107.017 38.6834ZM106.507 38.1763C106.434 38.1038 106.361 38.0314 106.361 38.0314C106.215 38.0314 106.215 38.1038 106.215 38.3212C106.288 38.3936 106.361 38.3936 106.361 38.3936H106.434L106.507 38.3212C106.507 38.3212 106.507 38.2487 106.507 38.1763ZM106.434 37.6692C106.361 37.5243 106.361 37.4519 106.288 37.4519C106.288 37.4519 106.288 37.4519 106.215 37.4519V37.6692H106.434C106.434 37.7416 106.434 37.7416 106.434 37.6692ZM109.204 42.6676C109.204 42.8125 109.131 43.0298 109.131 43.4645C109.131 44.1164 108.986 44.4786 108.621 44.5511C108.548 44.696 108.475 44.7684 108.257 44.7684C108.038 44.7684 107.819 44.7684 107.746 44.8409C107.673 44.6235 107.601 44.5511 107.528 44.5511C107.455 44.5511 107.309 44.6235 107.236 44.696C107.09 44.7684 107.017 44.8409 106.944 44.8409C106.944 44.8409 106.872 44.8408 106.799 44.7684L106.872 44.6235L106.799 44.5511L106.58 44.696C106.215 44.696 105.997 43.8991 105.997 42.3779C105.997 42.1605 105.997 41.9432 105.997 41.7259C105.997 41.5086 105.997 41.3637 105.997 41.2912C105.997 40.7117 105.997 40.2771 105.924 39.9149C105.778 39.77 105.559 39.6975 105.195 39.6251C104.903 39.6251 104.612 39.6251 104.393 39.6251L104.539 39.4078C104.539 39.2629 104.466 39.118 104.32 39.0456C104.539 38.9731 104.612 38.9007 104.612 38.9007C104.757 38.9007 104.903 38.9007 105.122 38.9731C105.341 39.0456 105.559 39.0456 105.632 39.0456C105.778 39.0456 105.924 38.9731 105.997 38.8283L105.924 38.6834C106.07 38.3936 106.143 37.8865 106.143 37.2346C106.507 37.2346 106.58 37.1621 106.507 37.1621C106.726 37.1621 106.872 37.307 106.872 37.5243C106.872 37.5968 106.872 37.7416 106.799 37.8865C106.799 38.0314 106.726 38.1763 106.726 38.1763C106.726 38.3936 106.799 38.5385 107.017 38.5385C107.163 38.7558 107.382 38.9007 107.673 38.9007C107.819 38.9007 108.038 38.8283 108.402 38.7558C108.475 38.9731 108.548 39.118 108.548 39.2629C108.548 39.2629 108.548 39.3353 108.475 39.5527H108.33V39.118H108.257C108.111 39.118 108.038 39.1905 108.038 39.3353C108.038 39.4802 107.892 39.5527 107.673 39.5527C107.673 39.5527 107.746 39.4802 107.819 39.4078C107.892 39.3353 107.892 39.3353 107.892 39.2629C107.892 39.2629 107.892 39.1905 107.819 39.118C107.746 39.0456 107.746 38.9731 107.673 38.9731C107.455 39.0456 107.309 39.1905 107.309 39.4078L107.455 39.5527C107.382 39.6251 107.236 39.6251 107.017 39.6975C106.799 39.6975 106.726 39.77 106.726 39.9149C106.726 40.0597 106.726 40.3495 106.799 40.6393C106.799 40.929 106.872 41.2188 106.872 41.3637C106.872 41.4361 106.872 41.5086 106.944 41.6534C107.017 41.7983 107.017 41.8708 107.017 41.9432C107.017 42.0157 107.017 42.233 106.944 42.3779C106.872 42.5952 106.872 42.7401 106.872 42.8125C106.872 43.0298 107.017 43.2471 107.236 43.4645C107.528 43.6818 107.746 43.8267 107.965 43.8267C108.111 43.8267 108.184 43.8991 108.184 44.044L108.33 44.1164C108.33 43.8991 108.402 43.7542 108.548 43.6818C108.548 43.6818 108.694 43.6818 108.84 43.6094C108.913 43.6094 108.986 43.5369 108.986 43.4645C108.986 43.392 108.986 43.3196 108.913 43.2471C108.913 43.1023 109.059 42.9574 109.204 42.6676Z" fill="white"/>
<path d="M111.392 44.0443C111.392 43.9719 111.392 43.9719 111.319 43.9719C111.319 43.9719 111.319 43.9719 111.246 43.9719H111.173C111.173 43.9719 111.173 43.9719 111.173 44.0443C111.173 44.1168 111.246 44.1168 111.319 44.1168C111.392 44.1168 111.392 44.1168 111.392 44.0443ZM116.203 44.1892V44.1168C116.203 44.1168 116.203 44.0443 116.13 44.0443C116.057 44.0443 116.057 44.0443 116.057 44.1168V44.1892H116.203ZM112.631 40.205V40.1325C112.631 40.0601 112.558 40.0601 112.485 40.0601C112.412 40.0601 112.339 40.0601 112.339 40.1325C112.412 40.205 112.485 40.2774 112.558 40.2774C112.558 40.205 112.631 40.205 112.631 40.205ZM112.631 39.4805C112.631 39.4081 112.558 39.3357 112.339 39.3357C112.267 39.3357 112.267 39.4081 112.267 39.4805C112.267 39.553 112.267 39.553 112.339 39.6254C112.339 39.6254 112.339 39.6254 112.412 39.6254C112.485 39.6254 112.558 39.553 112.631 39.4805ZM117.588 44.0443L117.442 43.9719V44.1892H117.588C117.515 44.1892 117.588 44.1892 117.588 44.0443ZM111.975 38.3939V38.249H111.902L111.975 38.3939ZM116.568 42.9577L116.495 42.8853V42.9577H116.568ZM112.631 38.8286C112.558 38.8286 112.558 38.7561 112.558 38.6837C112.558 38.6113 112.485 38.5388 112.485 38.5388C112.485 38.6113 112.485 38.6113 112.558 38.6837L112.412 38.8286L112.339 38.6113L112.267 38.8286C112.267 38.8286 112.267 38.901 112.339 38.9735C112.339 39.0459 112.412 39.0459 112.412 39.0459H112.485C112.558 38.9735 112.631 38.901 112.631 38.8286ZM116.932 43.1026C116.859 43.0302 116.859 43.0302 116.859 42.8853V42.8128C116.859 42.7404 116.859 42.7404 116.859 42.7404H116.786C116.641 42.7404 116.568 42.8128 116.568 42.8853V42.9577C116.713 43.0302 116.786 43.1026 116.932 43.1026ZM111.027 37.0176V36.8727C111.027 36.8727 111.027 36.8002 110.954 36.8002C110.954 36.8002 110.954 36.8002 110.881 36.8727C110.954 36.9451 110.954 36.9451 111.027 37.0176ZM116.786 41.7987L116.713 41.364C116.641 41.364 116.568 41.4365 116.568 41.5089C116.568 41.5089 116.568 41.5813 116.641 41.6538C116.713 41.7262 116.713 41.7987 116.786 41.7987ZM118.317 44.4065V44.6963L117.734 44.8412L117.442 44.6239L117.151 44.8412C117.005 44.8412 116.713 44.8412 116.422 44.8412C116.057 44.8412 115.839 44.9136 115.693 44.9136H115.255C115.255 44.8412 115.183 44.7687 115.11 44.6963C115.037 44.6239 114.964 44.5514 114.964 44.479L115.11 44.2616L115.037 44.1168L115.328 43.827H115.401C115.474 43.6821 115.62 43.6097 115.766 43.6097L116.057 43.7546L116.349 43.4648C116.13 43.4648 115.984 43.3924 115.839 43.2475V43.175H115.984C116.203 43.175 116.349 43.0302 116.422 42.8128L116.203 42.5955L115.984 42.6679V42.7404L115.839 42.6679C115.839 42.5955 115.984 42.5231 116.203 42.4506C116.349 42.3782 116.422 42.3057 116.422 42.1609L116.349 42.0884L116.13 42.2333L115.912 41.8711V41.7987L116.057 41.7262L116.349 41.9435C116.422 41.9435 116.495 41.7987 116.568 41.5089C116.495 41.5089 116.422 41.4364 116.349 41.364C116.276 41.2916 116.203 41.2916 116.13 41.2191C116.13 41.1467 116.203 41.0742 116.276 41.0018C116.349 40.9294 116.422 40.8569 116.422 40.7845C116.422 40.712 116.349 40.5672 116.203 40.5672C116.057 40.4947 115.984 40.4947 115.984 40.3498H116.13C116.203 40.3498 116.276 40.3498 116.422 40.2774C116.495 40.205 116.568 40.205 116.568 40.1325L116.349 39.8428C116.13 39.9152 116.057 39.9876 116.057 39.9876C115.984 39.9876 115.839 39.9152 115.693 39.8428C115.547 39.6979 115.401 39.6979 115.328 39.6254C115.547 39.6254 115.693 39.553 115.766 39.4805V39.3357C115.328 39.1908 114.891 39.1183 114.381 39.1183C114.308 39.1183 114.235 39.1908 114.235 39.4081H114.089V39.3357C114.089 39.1908 114.016 39.0459 113.797 39.0459C113.652 39.1183 113.579 39.3357 113.579 39.7703L113.433 39.6254L113.214 39.6979C113.214 39.7703 113.141 39.9152 113.141 40.1325C113.141 40.4223 113.068 40.5672 112.923 40.5672V40.4947L112.704 40.3498L112.631 40.5672L112.85 40.712L112.923 40.6396L113.141 40.9294V41.2916C113.068 41.364 112.996 41.364 112.777 41.364C112.631 41.364 112.558 41.4365 112.558 41.6538L112.85 41.8711C112.704 42.016 112.631 42.1609 112.631 42.3057L112.996 42.5231C112.996 42.5955 112.923 42.6679 112.85 42.7404C112.704 42.8128 112.704 42.8853 112.704 43.0302C112.85 43.1026 112.85 43.175 112.85 43.2475C112.85 43.2475 112.85 43.3924 112.777 43.6097L112.996 43.7546L113.214 43.6821L113.506 43.8994C113.433 44.0443 113.433 44.1168 113.433 44.1168C113.433 44.1892 113.506 44.2616 113.725 44.3341L113.87 44.1168L113.652 43.9719L113.87 43.8994C113.87 43.8994 113.943 43.9719 114.016 44.1892C114.089 44.3341 114.089 44.4065 114.235 44.4065H114.308L114.454 44.1892L114.235 43.9719L114.599 43.8994L114.454 44.1168C114.526 44.4065 114.599 44.479 114.599 44.479C114.599 44.6239 114.526 44.6963 114.308 44.6963C114.089 44.7687 113.943 44.7687 113.943 44.8412C113.87 44.7687 113.797 44.7687 113.725 44.7687C113.652 44.7687 113.579 44.7687 113.506 44.8412C113.433 44.9136 113.287 44.9136 113.287 44.9136L113.068 44.6963C112.923 44.6963 112.631 44.7687 112.267 44.7687C111.902 44.7687 111.683 44.8412 111.465 44.9136C111.392 44.8412 111.319 44.7687 111.246 44.6963C111.246 44.6239 111.173 44.5514 111.173 44.479L110.954 44.7687C110.881 44.6239 110.881 44.479 110.881 44.479V44.3341H111.392L111.319 43.8994C111.537 43.827 111.829 43.7546 112.194 43.6821L112.412 43.7546L112.558 43.4648C112.485 43.4648 112.339 43.3924 112.048 43.3199V43.2475C112.048 43.175 112.121 43.1026 112.339 43.0302C112.485 43.0302 112.631 42.9577 112.631 42.8128V42.7404C112.558 42.6679 112.412 42.5955 112.339 42.5231C112.267 42.4506 112.194 42.3782 112.121 42.3057H112.194L112.485 42.4506L112.631 42.3057C112.631 42.1609 112.558 42.0884 112.485 42.016C112.412 42.016 112.339 42.016 112.194 42.016V41.9435C112.194 41.8711 112.267 41.7987 112.412 41.7262C112.558 41.6538 112.631 41.5813 112.631 41.5089C112.631 41.4365 112.485 41.2916 112.267 41.2916C112.267 41.2191 112.339 41.1467 112.485 41.0742C112.631 41.0018 112.704 40.9294 112.704 40.8569V40.7845C112.631 40.712 112.558 40.5672 112.558 40.4947C112.558 40.3498 112.558 40.2774 112.631 40.1325L112.339 39.8428C112.558 39.7703 112.631 39.6254 112.631 39.4805C112.631 39.4805 112.631 39.4081 112.558 39.3357L112.267 39.1908L112.558 38.901L112.194 38.5388L112.339 38.3215V38.3939L112.412 38.1766L112.339 38.1042L112.194 38.1766C112.048 38.0317 111.975 37.8144 111.902 37.5246C111.829 37.2349 111.683 37.1624 111.465 37.1624C111.392 37.1624 111.319 37.1624 111.173 37.1624C110.881 37.0176 110.736 36.8002 110.736 36.5105C110.808 36.438 110.881 36.3656 110.954 36.3656C111.027 36.3656 111.1 36.3656 111.246 36.3656C111.392 36.3656 111.465 36.3656 111.538 36.3656C111.538 36.3656 111.683 36.2931 111.902 36.2207C111.902 36.2931 112.048 36.2931 112.339 36.3656C112.558 36.3656 112.777 36.438 112.85 36.5105L112.777 36.8002L113.141 37.0176H113.214C113.214 37.09 113.068 37.09 112.923 37.2349C112.777 37.3073 112.704 37.3798 112.704 37.5246L112.996 37.742V37.8144C112.996 37.8868 112.923 37.9593 112.85 38.0317C112.777 38.1042 112.704 38.1766 112.704 38.249C112.704 38.3215 112.777 38.3939 112.996 38.4664C113.287 38.5388 113.433 38.5388 113.433 38.6113C113.36 38.6837 113.287 38.7561 113.214 38.8286C113.214 38.9735 113.141 39.0459 113.141 39.1908C113.141 39.1908 113.214 39.3357 113.36 39.553C113.433 39.6979 113.506 39.7703 113.652 39.8428L113.725 39.6979L113.579 39.3357C113.579 39.2632 113.725 39.1908 113.943 39.1908C114.162 39.1908 114.308 39.1183 114.381 38.9735C114.599 39.0459 114.745 39.1183 114.745 39.1183C114.818 39.1183 114.964 39.0459 115.037 38.8286L115.183 39.1908L115.474 38.9735V38.901C115.547 39.0459 115.62 39.1183 115.693 39.1183C115.766 39.1183 115.912 39.1183 116.057 39.1183C116.203 39.1183 116.349 39.1908 116.422 39.2632L116.203 39.553C116.203 39.6254 116.349 39.7703 116.568 39.8428C116.786 39.9152 116.932 39.9876 117.078 39.9876C117.005 39.9876 117.005 40.0601 116.932 40.1325C116.859 40.205 116.859 40.2774 116.859 40.2774C116.859 40.4947 116.932 40.5672 117.151 40.6396C117.37 40.712 117.442 40.712 117.442 40.7845V40.9294L117.151 40.7845L117.005 41.0018L117.224 41.364L117.442 41.2916L117.588 41.4365L117.515 41.7262L117.588 42.0884H117.224L117.005 42.3057C117.005 42.5231 117.151 42.5955 117.515 42.5955C117.588 42.6679 117.588 42.8128 117.588 42.9577V43.1026C117.588 43.1026 117.515 43.175 117.442 43.3199C117.37 43.3924 117.297 43.4648 117.224 43.4648L117.151 43.6097C117.297 43.7546 117.515 43.827 117.807 43.827C118.244 43.827 118.463 43.8994 118.536 43.8994L118.463 44.479C118.609 44.479 118.682 44.3341 118.682 44.1168C118.244 44.1892 118.317 44.2616 118.317 44.4065ZM114.016 38.6837H113.943V38.6113L114.016 38.6837Z" fill="white"/>
<path d="M120.139 41.436C120.139 41.3636 120.139 41.3636 120.067 41.3636C120.067 41.3636 119.994 41.3636 119.994 41.436C119.994 41.5084 119.921 41.5084 119.921 41.5084H119.848C119.848 41.5084 119.848 41.5084 119.848 41.5809V41.6533C119.848 41.7258 119.921 41.7258 119.994 41.7258C120.067 41.6533 120.139 41.5809 120.139 41.436ZM123.128 44.4061C123.128 44.3336 123.055 44.2612 122.983 44.2612C122.837 44.2612 122.764 44.3336 122.764 44.4061C122.764 44.4785 122.837 44.4785 122.91 44.4785C122.91 44.4785 122.91 44.4785 122.983 44.4785H123.055C123.128 44.551 123.128 44.4785 123.128 44.4061ZM119.848 40.5667C119.848 40.4943 119.775 40.4218 119.702 40.4218H119.556V40.7116H119.702L119.775 40.6391C119.848 40.6391 119.848 40.5667 119.848 40.5667ZM123.493 40.5667C123.493 40.4943 123.42 40.4218 123.347 40.2769C123.274 40.1321 123.201 40.0596 123.201 39.9872C123.201 39.9147 123.201 39.8423 123.274 39.7699C123.128 39.625 122.983 39.5525 122.691 39.5525C122.691 39.5525 122.472 39.5525 122.035 39.5525C122.035 39.4801 121.962 39.4077 121.962 39.4077C121.962 39.4077 121.962 39.3352 122.035 39.2628C122.035 39.1903 122.108 39.1903 122.108 39.1179C122.035 39.0454 121.962 39.0455 121.889 39.0455C121.816 39.0455 121.743 39.0454 121.743 39.1179C121.743 39.1179 121.743 39.1903 121.743 39.2628C121.743 39.3352 121.743 39.4077 121.743 39.4077C121.743 39.4077 121.743 39.4801 121.67 39.4801C120.941 39.4801 120.504 39.5525 120.285 39.6974L120.212 39.625C120.139 39.5525 120.139 39.5525 120.067 39.5525C119.994 39.5525 119.921 39.625 119.921 39.7699C119.921 39.8423 120.067 39.9147 120.285 39.9147C120.285 39.9872 120.358 40.0596 120.358 40.0596C120.358 40.1321 120.285 40.2045 120.212 40.2045C120.139 40.2769 120.067 40.2769 119.994 40.3494C119.994 40.6392 120.139 40.784 120.358 40.784C120.431 40.784 120.577 40.784 120.723 40.7116C120.868 40.7116 121.014 40.6391 121.087 40.6391C121.233 40.6391 121.306 40.6392 121.379 40.7116C121.233 40.8565 121.233 40.9289 121.233 41.0014C121.233 41.0738 121.306 41.1462 121.525 41.1462C121.743 41.1462 121.889 41.0738 121.889 40.9289C121.889 41.0014 121.962 41.0738 122.035 41.0738H122.108C122.108 41.1462 122.108 41.0014 122.181 40.784H122.254C122.254 40.784 122.326 40.784 122.399 40.784C122.472 40.784 122.472 40.784 122.545 40.784C122.618 40.784 122.691 40.784 122.691 40.8565C122.618 40.8565 122.545 40.9289 122.472 40.9289C122.399 40.9289 122.399 41.0014 122.399 41.0014C122.399 41.0738 122.472 41.0738 122.545 41.0738C122.545 41.0738 122.691 41.0014 122.837 40.9289L122.91 41.0014C123.055 41.0738 123.128 41.0738 123.201 41.0738C123.347 41.0738 123.42 41.0014 123.42 40.9289C123.42 40.8565 123.42 40.8565 123.347 40.784C123.274 40.7116 123.274 40.7116 123.274 40.7116C123.42 40.784 123.493 40.7116 123.493 40.5667ZM121.014 39.2628C121.014 39.2628 121.014 39.1903 120.941 39.1179C120.868 39.0454 120.868 39.0455 120.868 39.0455C120.796 39.1903 120.723 39.2628 120.723 39.2628C120.723 39.3352 120.796 39.4077 120.868 39.4077C120.941 39.4077 121.014 39.4077 121.014 39.4077C120.941 39.3352 121.014 39.2628 121.014 39.2628ZM123.93 41.0738C123.93 41.0014 123.857 41.0014 123.857 41.0014V41.0738H123.93ZM123.93 40.3494C123.857 40.3494 123.857 40.2769 123.784 40.2769C123.712 40.2769 123.639 40.3494 123.639 40.4218C123.639 40.4943 123.639 40.4943 123.712 40.4943C123.784 40.4943 123.857 40.4943 123.857 40.4943V40.4218V40.3494H123.93ZM124.732 42.7399C124.732 42.8124 124.659 42.8124 124.586 42.8848C124.513 42.9573 124.441 42.9573 124.368 43.0297C124.368 43.1021 124.368 43.1746 124.368 43.247C124.368 43.3919 124.441 43.4643 124.441 43.4643C124.441 43.4643 124.368 43.5368 124.295 43.6817C124.295 43.6817 124.222 43.6817 124.149 43.6817C124.076 43.6817 124.003 43.6817 123.93 43.6817C123.857 43.6817 123.784 43.7541 123.784 43.8266C123.784 43.899 123.784 43.9714 123.857 44.1163L123.784 44.2612H123.493C123.274 44.2612 123.128 44.4061 123.055 44.6234C123.055 44.6958 122.91 44.7683 122.764 44.7683C122.618 44.7683 122.545 44.8407 122.472 44.9132C122.399 44.9132 122.181 44.8407 121.816 44.8407C121.525 44.8407 121.379 44.7683 121.233 44.6958C121.233 44.6234 121.306 44.551 121.306 44.551C121.306 44.4061 121.233 44.3336 121.087 44.2612H120.868C120.65 44.2612 120.358 44.1888 120.139 43.9714C120.139 43.8266 119.994 43.6817 119.775 43.5368C119.775 43.4643 119.775 43.4643 119.848 43.3919C119.921 43.3195 119.921 43.3195 119.921 43.247C119.921 43.1746 119.775 43.1021 119.556 43.1021C119.483 43.1021 119.41 43.1021 119.41 43.0297C119.41 43.0297 119.41 42.9573 119.41 42.8124C119.41 42.7399 119.41 42.6675 119.338 42.5226C119.265 42.3777 119.265 42.3053 119.265 42.2329C119.265 42.2329 119.265 42.1604 119.338 42.088C119.41 42.0155 119.41 41.8706 119.41 41.8706C119.41 41.7982 119.41 41.6533 119.338 41.436C119.265 41.2187 119.265 41.1462 119.265 41.0014C119.265 40.8565 119.338 40.7116 119.483 40.6391C119.41 40.4943 119.41 40.4218 119.41 40.4218C119.41 40.2769 119.483 40.2045 119.702 40.1321C119.921 40.0596 119.994 39.9147 119.994 39.7699C119.994 39.6974 119.994 39.625 119.921 39.5525C119.994 39.5525 120.139 39.4801 120.285 39.4801C120.431 39.4077 120.504 39.4077 120.504 39.2628V39.1903C120.504 39.0454 120.65 38.9006 120.941 38.9006C121.306 38.9006 121.525 38.8281 121.597 38.8281C121.743 38.9006 122.035 38.9006 122.472 38.9006C122.91 38.9006 123.201 38.973 123.347 39.0455C123.639 39.1903 123.712 39.4077 123.712 39.6974C123.712 39.7699 123.712 39.9147 123.639 39.9872L123.784 40.0596L124.003 39.9872C123.93 40.0596 123.93 40.1321 123.93 40.1321C123.93 40.2045 124.003 40.3494 124.149 40.4943C124.295 40.6392 124.441 40.7116 124.513 40.7116L124.586 41.0738L124.441 40.9289C124.295 40.9289 124.222 41.0014 124.222 41.1462C124.222 41.2187 124.295 41.2911 124.441 41.3636C124.586 41.436 124.659 41.436 124.659 41.5084V41.5809C124.586 41.6533 124.441 41.6533 124.295 41.7258C124.222 41.7982 124.149 41.8706 124.149 41.9431C124.149 42.0155 124.149 42.088 124.149 42.1604H124.003C124.076 42.0155 124.076 41.9431 124.076 41.9431C124.076 41.7982 124.003 41.6533 123.784 41.6533C123.639 41.7258 123.493 41.7258 123.201 41.7982C122.983 41.7982 122.764 41.8706 122.618 41.8706C122.545 41.7982 122.472 41.7258 122.326 41.7258C122.108 41.7258 121.962 41.6533 121.962 41.6533C121.889 41.7258 121.816 41.7982 121.67 41.9431C121.525 41.8706 121.233 41.8706 120.868 41.7258C120.431 41.6533 120.212 41.5809 120.139 41.5809C119.994 41.5809 119.921 41.7982 119.921 42.3053L119.702 42.2329L119.629 42.3777C119.629 42.4502 119.702 42.5226 119.848 42.5226C119.994 42.5951 119.994 42.6675 119.994 42.7399C120.067 42.7399 120.067 42.8848 120.139 43.1021C120.139 43.247 120.212 43.3195 120.358 43.3195L120.65 43.247C120.65 43.247 120.723 43.3919 120.796 43.6092C120.868 43.7541 120.941 43.8266 121.087 43.8266V43.9714V44.0439C121.16 43.899 121.306 43.8266 121.67 43.8266C121.816 43.8266 121.962 43.8266 122.254 43.899C122.472 43.899 122.618 43.9714 122.691 43.9714C123.055 43.9714 123.347 43.899 123.566 43.6817C123.566 43.5368 123.493 43.5368 123.493 43.5368C123.493 43.4643 123.566 43.3195 123.639 43.1746L123.93 43.247L124.003 43.1021L123.784 42.8124C123.857 42.7399 123.93 42.6675 124.003 42.6675C124.076 42.5951 124.149 42.5951 124.222 42.5951C124.222 42.5951 124.295 42.5951 124.368 42.6675C124.441 42.7399 124.586 42.7399 124.659 42.6675L124.732 42.7399Z" fill="white"/>
<path d="M127.648 44.552C127.648 44.4796 127.648 44.4796 127.648 44.4796C127.648 44.4796 127.648 44.4796 127.575 44.4796C127.502 44.4796 127.502 44.552 127.502 44.6245L127.648 44.552C127.648 44.6245 127.648 44.6245 127.648 44.552ZM128.159 44.1898V43.9725C128.159 43.9725 128.159 43.9725 128.086 43.9725C128.086 43.9725 128.086 43.9725 128.013 43.9725H127.94C127.867 43.9725 127.867 43.9725 127.867 44.0449V44.1174C127.867 44.2622 127.94 44.3347 128.013 44.3347C128.086 44.2622 128.159 44.2622 128.159 44.1898ZM129.617 44.1898C129.617 44.1898 129.617 44.1174 129.544 44.0449C129.471 43.9725 129.471 43.9 129.471 43.9V43.8276C129.471 43.7552 129.398 43.7552 129.325 43.7552H129.252H129.179C129.106 43.8276 129.033 43.9 129.033 43.9725C129.033 44.0449 129.106 44.1174 129.252 44.1174C129.398 44.1898 129.471 44.2622 129.471 44.3347C129.544 44.2622 129.617 44.1898 129.617 44.1898ZM128.815 43.3205C128.815 43.1756 128.742 43.1756 128.669 43.1756C128.523 43.1756 128.45 43.2481 128.45 43.3205L128.523 43.393C128.523 43.393 128.523 43.393 128.596 43.393C128.596 43.393 128.669 43.393 128.669 43.3205C128.742 43.393 128.815 43.3205 128.815 43.3205ZM129.981 43.7552C129.908 43.6827 129.908 43.6827 129.835 43.6827C129.689 43.6827 129.617 43.7552 129.617 43.8276C129.617 43.9 129.689 43.9 129.762 43.9C129.908 43.9 129.981 43.8276 129.981 43.7552ZM128.596 41.3646C128.45 41.3646 128.45 41.3646 128.45 41.4371C128.45 41.4371 128.45 41.4371 128.523 41.4371C128.523 41.5095 128.596 41.437 128.596 41.3646ZM128.742 40.278C128.742 40.2056 128.669 40.1331 128.596 40.1331C128.45 40.1331 128.377 40.2056 128.377 40.278C128.377 40.3504 128.377 40.3504 128.45 40.4229C128.523 40.4229 128.523 40.4953 128.596 40.5678C128.742 40.3504 128.742 40.278 128.742 40.278ZM129.398 40.2056C129.398 40.1331 129.398 40.1331 129.325 40.0607C129.252 40.0607 129.252 39.9882 129.179 39.9882C129.325 39.8434 129.398 39.7709 129.398 39.626C129.398 39.5536 129.325 39.4811 129.252 39.4811C129.106 39.4087 129.033 39.4087 129.033 39.3363C129.033 39.4087 129.033 39.4087 128.96 39.4811C128.96 39.5536 128.888 39.626 128.888 39.626C128.888 39.6985 128.96 39.7709 129.033 39.7709H128.96C128.96 39.7709 128.96 39.8434 129.033 39.8434C129.106 39.8434 129.106 39.8433 129.106 39.9158C129.106 39.9158 129.033 39.9882 128.96 40.0607C128.888 40.1331 128.888 40.2056 128.888 40.2056C128.888 40.278 128.96 40.278 129.033 40.278C129.179 40.278 129.252 40.2056 129.325 40.1331C129.398 40.278 129.398 40.278 129.398 40.2056ZM132.533 39.9158C132.387 40.2056 132.314 40.4229 132.314 40.4953C132.241 40.4953 132.168 40.5678 132.022 40.5678C131.877 40.6402 131.804 40.6402 131.731 40.6402C131.731 40.6402 131.658 40.6402 131.512 40.5678V40.4953L131.731 40.2056L131.804 40.3504H131.949C132.095 40.3504 132.168 40.278 132.241 40.1331C132.241 40.0607 132.241 39.9882 132.241 39.9158C132.241 39.7709 132.241 39.6985 132.241 39.6985C132.241 39.5536 132.168 39.4087 132.022 39.4087C131.804 39.4087 131.658 39.626 131.731 40.0607L131.658 39.7709L131.731 39.6985L131.658 39.4087C131.439 39.3363 131.293 39.3363 131.147 39.3363C130.929 39.3363 130.783 39.4087 130.637 39.5536C130.491 39.4811 130.418 39.4087 130.273 39.4087H130.2L130.127 39.626C129.981 39.5536 129.908 39.4811 129.835 39.4811C129.689 39.4811 129.617 39.5536 129.617 39.626C129.544 39.7709 129.544 39.9158 129.471 39.9158L129.689 39.9882C129.617 40.0607 129.544 40.1331 129.544 40.278C129.471 40.4229 129.398 40.4953 129.252 40.4953L129.033 40.7126C129.033 40.7851 129.033 40.8575 129.106 40.93C129.179 41.0024 129.179 41.0748 129.179 41.1473L129.033 41.3646C129.106 41.5095 129.179 41.5819 129.179 41.5819C129.179 41.6544 129.179 41.7268 129.106 41.8717C129.033 42.0166 129.033 42.089 129.033 42.1615L129.325 42.4512L129.106 42.6685L128.888 42.5961L128.596 42.8134C128.596 42.9583 128.669 43.0308 128.742 43.0308C128.815 43.0308 128.815 43.0308 128.96 42.9583C129.033 42.9583 129.106 42.8859 129.179 42.8859L129.325 42.9583C129.179 43.1032 129.106 43.2481 129.106 43.2481C129.252 43.3205 129.471 43.393 129.908 43.4654C130.273 43.5378 130.564 43.6103 130.637 43.6827C130.856 43.8276 131.002 44.0449 131.002 44.3347C131.002 44.3347 130.929 44.4796 130.856 44.6969C130.783 44.6969 130.637 44.6245 130.418 44.552C130.2 44.4796 130.054 44.4071 129.908 44.3347H129.835L129.762 44.4796L129.835 44.552C129.762 44.552 129.617 44.6245 129.471 44.6245C129.252 44.6245 129.179 44.552 129.106 44.4071C129.033 44.2622 128.96 44.1898 128.815 44.1898C128.815 44.1898 128.742 44.1898 128.669 44.1898C128.523 44.4796 128.159 44.6245 127.502 44.6245C127.065 44.6245 126.846 44.6245 126.846 44.6245C126.773 44.6245 126.701 44.4796 126.701 44.1898C126.701 44.0449 126.701 43.9725 126.628 43.8276C126.701 43.8276 126.773 43.8276 126.919 43.9C127.065 43.9725 127.138 43.9725 127.211 43.9725C127.284 43.9725 127.284 43.9725 127.357 43.9725C127.43 44.0449 127.575 44.1174 127.648 44.1174C127.721 44.0449 127.867 43.8276 127.94 43.6103C127.867 43.4654 127.867 43.393 127.867 43.3205C128.013 43.3205 128.159 43.393 128.159 43.393C128.159 43.393 128.231 43.393 128.45 43.3205C128.45 43.1756 128.45 42.9583 128.523 42.741C128.523 42.4512 128.596 42.3063 128.596 42.1615C128.596 41.8717 128.523 41.6544 128.377 41.5095C128.45 41.4371 128.523 41.3646 128.523 41.2197C128.523 41.0748 128.523 41.0024 128.523 40.8575V40.7126L128.742 40.7851L128.96 40.7126L129.033 40.5678L128.742 40.4229L128.669 40.4953C128.596 40.4229 128.523 40.278 128.523 40.2056C128.523 40.1331 128.523 39.9882 128.596 39.9158C128.669 39.7709 128.669 39.626 128.742 39.626L128.96 39.6985L129.106 39.4811L129.033 39.1189C128.96 39.1189 128.888 39.0465 128.888 39.0465C128.742 39.0465 128.596 39.1189 128.523 39.2638V39.3363L128.231 39.1914C128.159 39.1914 128.013 39.2638 127.94 39.1914C127.721 39.1914 127.575 39.1914 127.575 39.1914L127.43 39.3363C127.43 39.2638 127.43 39.1914 127.357 39.1189C127.284 39.0465 127.284 38.9741 127.284 38.9016C127.284 38.9016 127.284 38.8292 127.357 38.7567C127.43 38.6843 127.43 38.6119 127.43 38.5394L126.992 38.467L126.846 38.6843L126.919 38.7567L127.065 38.9016L126.992 39.1189L127.065 39.1914C126.992 39.1189 126.919 39.0465 126.773 39.0465C126.773 38.9741 126.773 38.9016 126.701 38.7567C126.701 38.6119 126.628 38.5394 126.628 38.5394C126.701 38.467 126.846 38.467 127.065 38.467C127.138 38.467 127.211 38.467 127.357 38.467C127.502 38.467 127.575 38.467 127.648 38.467C127.575 38.5394 127.502 38.6119 127.502 38.7567L127.648 38.9016C127.721 38.9016 127.794 38.8292 127.94 38.6843V38.467C128.013 38.467 128.013 38.5394 128.086 38.6843C128.086 38.8292 128.159 38.9016 128.231 38.9016C128.304 38.9016 128.45 38.9016 128.596 38.9016C128.815 38.9016 128.888 38.9741 128.96 38.9741C129.106 38.9741 129.179 38.9016 129.252 38.8292C129.325 38.9016 129.398 38.9016 129.544 38.9016H129.617L129.835 38.6843L129.908 38.8292C129.908 38.9016 129.835 39.0465 129.689 39.1189L129.762 39.2638C129.908 39.1914 130.054 39.0465 130.2 38.9741C130.346 38.9016 130.418 38.7567 130.346 38.5394L130.418 38.3945H130.491C130.637 38.3945 130.71 38.467 130.71 38.6119C130.71 38.6843 130.71 38.8292 130.637 38.9741C130.71 39.0465 130.783 39.1189 130.929 39.1189C131.22 39.1189 131.366 39.1189 131.366 39.1189C131.439 39.0465 131.585 38.9016 131.804 38.9016L131.731 38.7567H131.22V38.467L131.512 38.3945C131.585 38.467 131.585 38.6119 131.658 38.8292C131.731 39.0465 131.731 39.1914 131.804 39.2638L132.168 39.1189C132.168 39.1189 132.241 39.2638 132.241 39.4811C132.314 39.9158 132.387 39.9882 132.533 39.9158ZM127.867 39.9882C127.794 39.9882 127.794 39.9882 127.867 39.9882C127.794 40.0607 127.794 40.0607 127.794 40.0607H127.721C127.648 40.0607 127.648 40.0607 127.648 39.9882L127.721 39.9158L127.867 39.9882ZM130.054 40.0607H129.908L129.981 39.9158C129.981 39.9158 129.981 39.9158 130.054 40.0607ZM130.856 39.0465H130.71V38.9741C130.71 38.9016 130.71 38.9016 130.783 38.9016C130.856 38.9016 130.856 38.9016 130.856 38.9741V39.0465Z" fill="white"/>
<path d="M137.271 44.1163C137.198 44.1163 137.125 44.1163 137.125 44.1887V44.2611H137.198C137.271 44.2611 137.271 44.2611 137.271 44.1163ZM137.49 43.6092C137.49 44.1887 137.417 44.5509 137.271 44.6233C137.198 44.6233 137.125 44.6958 137.052 44.6958C136.979 44.6958 136.906 44.6958 136.834 44.6958C136.761 44.6958 136.688 44.6958 136.615 44.6958C136.469 44.6958 136.323 44.7682 136.25 44.9131C136.105 44.9131 135.959 44.7682 135.813 44.6233V44.5509C135.813 44.4785 135.886 44.4785 135.959 44.406C136.032 44.3336 136.105 44.3336 136.105 44.2611C136.105 44.1887 136.105 44.1163 136.032 43.9714C135.959 43.8265 135.959 43.7541 135.959 43.6816C135.959 43.6092 135.959 43.5367 136.032 43.3919C136.105 43.247 136.105 43.1745 136.105 43.1021C136.105 43.1021 136.25 43.1021 136.396 43.0296C136.542 43.0296 136.615 42.9572 136.615 42.8848C137.271 43.1021 137.49 43.3194 137.49 43.6092Z" fill="white"/>
</g>
<defs>
<clipPath id="clip0_85_11">
<rect width="184" height="46" fill="white"/>
</clipPath>
</defs>
</svg>
