<svg xmlns="http://www.w3.org/2000/svg" viewBox="0 0 192.83 102.33"><defs><style>.cls-1{fill:#ffd101;}.cls-2{fill:#fff;}</style></defs><g id="Layer_2" data-name="Layer 2"><g id="Layer_1-2" data-name="Layer 1"><path class="cls-1" d="M20.8,38c0-2.18-.46-3.74-1.4-4.68a5.52,5.52,0,0,0-3.84-1.13H10.31V50.82h5.25A5.52,5.52,0,0,0,19.4,49.7c.94-.88,1.4-2.44,1.4-4.69Zm10,49.48H20.34L15,61.13H10.31V87.46H0V21.87H15.56A15.31,15.31,0,0,1,26.43,25.8Q31.11,30.12,31.11,38v7q0,8-4.68,12.28a10.21,10.21,0,0,1-1.5,1.22Z"/><path class="cls-1" d="M57.26,66.75,53.13,43.23,49,66.75ZM59,77.06H47.23l-1.87,10.4H34.86L48,21.87H58.29L71.41,87.46H60.91Z"/><path class="cls-1" d="M90.71,88.21q6.75,0,10.87-3.84,4.69-4.5,4.69-12.27V63.66H96V72.1c0,2.31-.44,3.87-1.31,4.68a5.69,5.69,0,0,1-3.94,1.13,5.52,5.52,0,0,1-3.84-1.13c-.94-.87-1.4-2.43-1.4-4.68V37.24c0-2.25.46-3.82,1.4-4.69a5.52,5.52,0,0,1,3.84-1.13,5.69,5.69,0,0,1,3.94,1.13c.87.81,1.31,2.37,1.31,4.69v5.81h10.31V37.24q0-7.79-4.69-12.28-4.11-3.84-10.87-3.84A15.75,15.75,0,0,0,79.84,25q-4.68,4.68-4.68,12.28V72.1q0,7.59,4.68,12.27a15.75,15.75,0,0,0,10.87,3.84"/><polygon class="cls-1" points="122.86 32.17 122.86 48.67 134.48 48.67 134.48 58.98 122.86 58.98 122.86 77.16 139.72 77.16 139.72 87.47 112.55 87.47 112.55 21.87 139.72 21.87 139.72 32.17 122.86 32.17"/><polygon class="cls-2" points="178.21 87.47 168.46 61.6 158.84 87.47 144.22 87.47 160.47 43.86 144.22 0 158.84 0 168.46 25.86 178.08 0 192.83 0 176.46 43.86 192.83 87.47 178.21 87.47"/><polygon class="cls-2" points="21.18 96.11 22.64 96.11 22.64 94.88 18.3 94.88 18.3 96.11 19.76 96.11 19.76 102.14 21.18 102.14 21.18 96.11"/><path class="cls-2" d="M23.12,94v8.16h1.35V99.8c0-.57,0-1.46.81-1.46s.73.73.73,1.3v2.5h1.34V99.25c0-1.1-.36-2-1.63-2a1.46,1.46,0,0,0-1.23.55h0V94Z"/><path class="cls-2" d="M29.44,99.16a.9.9,0,1,1,1.8,0Zm3.07.83v-.16c0-1.43-.69-2.57-2.24-2.57a2.52,2.52,0,0,0,.07,5,2.18,2.18,0,0,0,2.15-1.47l-1.25-.2a1,1,0,0,1-.9.64c-.7,0-.93-.67-.93-1.27Z"/><path class="cls-2" d="M35.92,99.22c0,1.77.75,3.11,2.7,3.11s2.69-1.34,2.69-3.11V94.88H39.9v4.06c0,.9-.08,2.16-1.28,2.16s-1.28-1.26-1.28-2.16V94.88H35.92Z"/><rect class="cls-2" x="42.27" y="93.98" width="1.35" height="8.16"/><polygon class="cls-2" points="46.09 98.55 46.91 98.55 46.91 97.41 46.09 97.41 46.09 95.81 44.74 95.81 44.74 97.41 44.28 97.41 44.28 98.55 44.74 98.55 44.74 102.14 46.09 102.14 46.09 98.55"/><path class="cls-2" d="M48,94.63a.8.8,0,0,0,0,1.6.8.8,0,1,0,0-1.6m.68,2.78H47.28v4.73h1.35Z"/><path class="cls-2" d="M51,97.41H49.65v4.73H51V99.82c0-.5,0-1.48.71-1.48s.64.94.64,1.4v2.4H53.7V99.82c0-.49,0-1.48.72-1.48s.64.85.64,1.32v2.48h1.35v-3c0-1-.3-1.93-1.51-1.93a1.63,1.63,0,0,0-1.37.74,1.5,1.5,0,0,0-1.36-.74,1.43,1.43,0,0,0-1.16.58h0Z"/><path class="cls-2" d="M59.51,101.1a1.34,1.34,0,1,1,1.13-1.33,1.24,1.24,0,0,1-1.13,1.33m2.32-3.69H60.51v.45a1.74,1.74,0,0,0-1.32-.6A2.31,2.31,0,0,0,57,99.75a2.33,2.33,0,0,0,2.18,2.54,1.65,1.65,0,0,0,1.28-.58h0v.43h1.32Z"/><polygon class="cls-2" points="64.32 98.55 65.14 98.55 65.14 97.41 64.32 97.41 64.32 95.81 62.97 95.81 62.97 97.41 62.51 97.41 62.51 98.55 62.97 98.55 62.97 102.14 64.32 102.14 64.32 98.55"/><path class="cls-2" d="M66.57,99.16c.07-.5.37-1,.9-1a1,1,0,0,1,.9,1Zm3.07.83v-.16c0-1.43-.69-2.57-2.24-2.57a2.52,2.52,0,0,0,.07,5,2.17,2.17,0,0,0,2.14-1.47l-1.24-.2a1,1,0,0,1-.9.64c-.71,0-.94-.67-.94-1.27Z"/><path class="cls-2" d="M74.5,96h.18c.6,0,1,.19,1,.93s-.33,1-1,1H74.5Zm-1.41,6.12h2.22c1.32,0,2.32-.64,2.32-2.06a1.71,1.71,0,0,0-1.24-1.82A1.67,1.67,0,0,0,77,96.85c0-1.44-.82-2-2.17-2H73.09ZM74.5,99h.23c.71,0,1.48,0,1.48,1s-.65,1-1.41,1h-.3Z"/><path class="cls-2" d="M79.11,94.63a.8.8,0,1,0,.8.8.81.81,0,0,0-.8-.8m.68,2.78H78.44v4.73h1.35Z"/><polygon class="cls-2" points="82.15 93.98 80.81 93.98 80.81 102.14 82.15 102.14 82.15 100.13 82.17 100.13 83.72 102.14 85.49 102.14 83.35 99.49 85.34 97.41 83.59 97.41 82.17 99.14 82.15 99.14 82.15 93.98"/><path class="cls-2" d="M87,99.16a1,1,0,0,1,.9-1,1,1,0,0,1,.9,1Zm3.07.83v-.16c0-1.43-.7-2.57-2.25-2.57a2.52,2.52,0,0,0,.07,5A2.18,2.18,0,0,0,90,100.82l-1.24-.2a1,1,0,0,1-.91.64c-.7,0-.93-.67-.93-1.27Z"/><path class="cls-2" d="M94.93,96.06h.25c.79,0,1.33.13,1.33,1.06s-.46,1.13-1.29,1.13h-.29Zm0,3.36h.7A2.06,2.06,0,0,0,98,97.13c0-1.64-1-2.25-2.51-2.25H93.51v7.26h1.42Z"/><path class="cls-2" d="M99.68,99.16a.9.9,0,1,1,1.8,0Zm3.07.83v-.16c0-1.43-.69-2.57-2.24-2.57a2.52,2.52,0,0,0,.07,5,2.16,2.16,0,0,0,2.14-1.47l-1.24-.2a1,1,0,0,1-.9.64c-.71,0-.94-.67-.94-1.27Z"/><path class="cls-2" d="M104.73,97.41h-1.35v4.73h1.35V100c0-.73.09-1.56,1-1.56a.91.91,0,0,1,.55.18l.17-1.26a1.8,1.8,0,0,0-.56-.11,1.37,1.37,0,0,0-1.18.64h0Z"/><path class="cls-2" d="M108.5,98.55h1.08V97.41H108.5V96.22c0-.39-.07-1.17.53-1.17a1.22,1.22,0,0,1,.55.17V94a1.51,1.51,0,0,0-.65-.15c-1.3,0-1.78,1-1.78,2.17v1.38h-.45v1.14h.45v3.59h1.35Z"/><path class="cls-2" d="M112.18,98.45a1.34,1.34,0,1,1-1.12,1.33,1.23,1.23,0,0,1,1.12-1.33m0-1.19a2.52,2.52,0,1,0,2.48,2.52A2.4,2.4,0,0,0,112.18,97.26Z"/><path class="cls-2" d="M116.64,97.41h-1.35v4.73h1.35V100c0-.73.1-1.56,1-1.56a.94.94,0,0,1,.56.18l.16-1.26a1.68,1.68,0,0,0-.55-.11,1.35,1.35,0,0,0-1.18.64h0Z"/><path class="cls-2" d="M120.25,97.41H118.9v4.73h1.35V99.82c0-.5,0-1.48.71-1.48s.65.94.65,1.4v2.4H123V99.82c0-.49,0-1.48.72-1.48s.63.85.63,1.32v2.48h1.35v-3c0-1-.3-1.93-1.5-1.93a1.65,1.65,0,0,0-1.38.74,1.5,1.5,0,0,0-1.35-.74,1.41,1.41,0,0,0-1.16.58h0Z"/><path class="cls-2" d="M128.77,101.1a1.34,1.34,0,1,1,1.13-1.33,1.25,1.25,0,0,1-1.13,1.33m2.32-3.69h-1.33v.45a1.74,1.74,0,0,0-1.32-.6,2.31,2.31,0,0,0-2.15,2.49,2.33,2.33,0,0,0,2.17,2.54,1.65,1.65,0,0,0,1.28-.58h0v.43h1.33Z"/><path class="cls-2" d="M133.41,97.41h-1.35v4.73h1.35V99.8c0-.57,0-1.46.81-1.46s.73.73.73,1.3v2.5h1.35V99.25c0-1.1-.37-2-1.64-2a1.4,1.4,0,0,0-1.23.59h0Z"/><path class="cls-2" d="M140.47,97.56a2.11,2.11,0,0,0-1.09-.3,2.45,2.45,0,0,0-2.46,2.53,2.41,2.41,0,0,0,2.39,2.5,2.25,2.25,0,0,0,1.16-.29v-1.3a1.27,1.27,0,0,1-.94.46,1.26,1.26,0,0,1-1.24-1.36,1.23,1.23,0,0,1,2.18-.94Z"/><path class="cls-2" d="M142.44,99.16c.07-.5.36-1,.9-1a1,1,0,0,1,.9,1Zm3.07.83v-.16c0-1.43-.69-2.57-2.24-2.57a2.52,2.52,0,0,0,.06,5,2.18,2.18,0,0,0,2.15-1.47l-1.24-.2a1,1,0,0,1-.91.64c-.7,0-.93-.67-.93-1.27Z"/><path class="cls-2" d="M152.24,98.28v1.15h1.54a1.71,1.71,0,0,1-1.66,1.65,2.3,2.3,0,0,1-2.05-2.54c0-1.2.68-2.6,2-2.6a1.85,1.85,0,0,1,1.66,1.16l1.25-.68a3.13,3.13,0,0,0-2.87-1.73,3.61,3.61,0,0,0-3.54,3.85,3.56,3.56,0,0,0,3.45,3.79c2.26,0,3.31-1.82,3.31-3.87v-.18Z"/><path class="cls-2" d="M156,97.41v2.78a2.12,2.12,0,0,0,4.24,0V97.41h-1.35V100c0,.54-.09,1.19-.77,1.19s-.77-.65-.77-1.19V97.41Z"/><path class="cls-2" d="M163.33,101.1a1.34,1.34,0,1,1,1.12-1.33,1.24,1.24,0,0,1-1.12,1.33m2.32-3.69h-1.33v.45a1.74,1.74,0,0,0-1.32-.6,2.31,2.31,0,0,0-2.16,2.49,2.33,2.33,0,0,0,2.18,2.54,1.65,1.65,0,0,0,1.28-.58h0v.43h1.33Z"/><path class="cls-2" d="M168,97.41h-1.35v4.73H168V100c0-.73.09-1.56,1-1.56a.91.91,0,0,1,.55.18l.17-1.26a1.8,1.8,0,0,0-.56-.11,1.34,1.34,0,0,0-1.17.64h0Z"/><path class="cls-2" d="M172.3,101.1a1.35,1.35,0,1,1,1.11-1.33,1.24,1.24,0,0,1-1.11,1.33m1,1h1.35V94h-1.35v3.87h0a1.66,1.66,0,0,0-1.29-.59,2.31,2.31,0,0,0-2.16,2.49,2.33,2.33,0,0,0,2.18,2.54,1.59,1.59,0,0,0,1.27-.59h0Z"/></g></g></svg>