<svg xmlns="http://www.w3.org/2000/svg" viewBox="0 0 646.26 133.16"><defs><style>.cls-1{fill:#ffd101;}.cls-2{fill:#fff;}</style></defs><g id="Layer_2" data-name="Layer 2"><g id="Layer_1-2" data-name="Layer 1"><polygon class="cls-1" points="35.99 93.69 25.67 66.29 15.48 93.69 0 93.69 17.2 47.5 0 1.06 15.48 1.06 25.67 28.45 35.86 1.06 51.47 1.06 34.14 47.5 51.47 93.69 35.99 93.69"/><rect class="cls-2" x="50.81" y="38.9" width="23.82" height="14.56"/><polygon class="cls-2" points="117.5 15.61 102.68 15.61 102.68 93.69 88.13 93.69 88.13 15.61 73.31 15.61 73.31 1.06 117.5 1.06 117.5 15.61"/><path class="cls-2" d="M153.36,23.82c0-3.09-.66-5.29-2-6.62q-1.73-1.59-5.43-1.59h-7.41V42H146q3.7,0,5.43-1.59c1.32-1.24,2-3.44,2-6.62Zm14.16,69.86H152.7L145.16,56.5h-6.62V93.68H124V1.06h22q9.41,0,15.35,5.56,6.62,6.08,6.62,17.2v9.92q0,11.25-6.62,17.34a14.18,14.18,0,0,1-2.12,1.72Z"/><polygon class="cls-2" points="191.07 15.61 191.07 38.9 207.48 38.9 207.48 53.46 191.07 53.46 191.07 79.13 214.89 79.13 214.89 93.69 176.52 93.69 176.52 1.06 214.89 1.06 214.89 15.61 191.07 15.61"/><polygon class="cls-2" points="285.02 1.06 285.02 93.69 270.47 93.69 270.47 47.5 258.69 79.13 250.22 79.13 238.45 47.5 238.45 93.69 223.89 93.69 223.89 1.06 232.23 1.06 254.46 52.4 276.69 1.06 285.02 1.06"/><polygon class="cls-2" points="310.17 15.61 310.17 38.9 326.57 38.9 326.57 53.46 310.17 53.46 310.17 79.13 333.98 79.13 333.98 93.69 295.61 93.69 295.61 1.06 333.98 1.06 333.98 15.61 310.17 15.61"/><polygon class="cls-1" points="370.9 61.13 370.9 93.69 356.21 93.69 356.21 61.13 338.35 1.06 353.7 1.06 363.49 34.27 373.55 1.06 388.9 1.06 370.9 61.13"/><polygon class="cls-1" points="409.41 15.61 409.41 38.9 425.81 38.9 425.81 53.46 409.41 53.46 409.41 79.13 433.23 79.13 433.23 93.69 394.85 93.69 394.85 1.06 433.23 1.06 433.23 15.61 409.41 15.61"/><polygon class="cls-1" points="480.6 79.13 456.78 79.13 456.78 1.06 442.22 1.06 442.22 93.69 480.6 93.69 480.6 79.13"/><polygon class="cls-1" points="525.98 79.13 502.17 79.13 502.17 1.06 487.61 1.06 487.61 93.69 525.98 93.69 525.98 79.13"/><path class="cls-1" d="M553.77,14.56c2.56,0,4.37.52,5.43,1.58q2,1.72,2,6.62V72c0,3.27-.66,5.47-2,6.62q-1.59,1.59-5.43,1.59t-5.42-1.59c-1.33-1.24-2-3.44-2-6.62V22.76c0-3.18.66-5.38,2-6.62,1.14-1.06,2.95-1.58,5.42-1.58m0,80.18q9.53,0,15.35-5.42Q575.73,83,575.74,72V22.76q0-11-6.62-17.33Q563.3,0,553.77,0T538.42,5.43q-6.61,6.35-6.61,17.33V72q0,11,6.61,17.34Q544.24,94.74,553.77,94.74Z"/><polygon class="cls-1" points="646.26 1.06 634.88 93.69 626.81 93.69 613.85 47.64 601.01 93.69 592.94 93.69 581.56 1.06 596.25 1.06 601.27 47.24 609.74 15.75 618.08 15.75 626.55 47.24 631.58 1.06 646.26 1.06"/><polygon class="cls-1" points="187.35 104.72 187.35 132.84 182.93 132.84 182.93 120.63 178.44 120.63 178.44 132.84 174.02 132.84 174.02 104.72 178.44 104.72 178.44 116.21 182.93 116.21 182.93 104.72 187.35 104.72"/><polygon class="cls-1" points="194.98 109.14 194.98 116.21 199.96 116.21 199.96 120.63 194.98 120.63 194.98 128.42 202.21 128.42 202.21 132.84 190.56 132.84 190.56 104.72 202.21 104.72 202.21 109.14 194.98 109.14"/><path class="cls-1" d="M213.46,124l-1.77-10.08L209.92,124Zm.76,4.42h-5.06l-.8,4.46h-4.5l5.62-28.12h4.42l5.62,28.12H215Z"/><polygon class="cls-1" points="229.89 104.72 234.38 104.72 228.76 132.84 224.34 132.84 218.72 104.72 223.22 104.72 226.55 123.72 229.89 104.72"/><polygon class="cls-1" points="245.11 122.96 245.11 132.84 240.65 132.84 240.65 122.96 235.23 104.72 239.89 104.72 242.86 114.8 245.91 104.72 250.57 104.72 245.11 122.96"/><path class="cls-1" d="M263,109.14h2.25a2.39,2.39,0,0,1,1.65.48,2.78,2.78,0,0,1,.6,2v14.46A2.46,2.46,0,0,1,267,128a2.54,2.54,0,0,1-1.69.44H263Zm2.25,23.7a6.63,6.63,0,0,0,4.62-1.57,6,6,0,0,0,1.57-2.25,8.34,8.34,0,0,0,.48-2.93V111.63a6.73,6.73,0,0,0-2-5.22,6.55,6.55,0,0,0-4.66-1.69H258.6v28.12Z"/><path class="cls-1" d="M281.26,133.16a6.76,6.76,0,0,0,4.66-1.65,7.14,7.14,0,0,0,2-5.26V104.72h-4.41v21.53a2.71,2.71,0,0,1-.61,2,2.35,2.35,0,0,1-1.64.48,2.45,2.45,0,0,1-1.69-.48,2.71,2.71,0,0,1-.56-2V104.72h-4.42v21.53a6.94,6.94,0,0,0,2,5.26,6.55,6.55,0,0,0,4.66,1.65"/><polygon class="cls-1" points="303.15 109.14 298.65 109.14 298.65 132.84 294.23 132.84 294.23 109.14 289.73 109.14 289.73 104.72 303.15 104.72 303.15 109.14"/><polygon class="cls-1" points="313.99 122.96 313.99 132.84 309.53 132.84 309.53 122.96 304.11 104.72 308.77 104.72 311.74 114.8 314.79 104.72 319.45 104.72 313.99 122.96"/><path class="cls-2" d="M331.9,109.14h2.25a2.39,2.39,0,0,1,1.65.48,2.78,2.78,0,0,1,.6,2v3.05a2.68,2.68,0,0,1-.6,2,2.39,2.39,0,0,1-1.65.48H331.9Zm0,12.45h2.25a6.55,6.55,0,0,0,4.66-1.65,6.78,6.78,0,0,0,2-5.26v-3.05a6.73,6.73,0,0,0-2-5.22,6.53,6.53,0,0,0-4.66-1.69h-6.66v28.12h4.41Z"/><path class="cls-2" d="M352.15,111.63a2.73,2.73,0,0,0-.61-2,2.35,2.35,0,0,0-1.64-.48h-2.25v8h2.25a2.35,2.35,0,0,0,1.64-.48,2.64,2.64,0,0,0,.61-2Zm4.29,21.21H352l-2.29-11.29h-2v11.29h-4.42V104.72h6.67a6.55,6.55,0,0,1,4.66,1.69,6.72,6.72,0,0,1,2,5.22v3a6.77,6.77,0,0,1-2,5.26,4.28,4.28,0,0,1-.65.53Z"/><path class="cls-2" d="M365.48,108.82a2.29,2.29,0,0,1,1.65.48,2.62,2.62,0,0,1,.6,2v14.94a2.62,2.62,0,0,1-.6,2,2.29,2.29,0,0,1-1.65.48,2.39,2.39,0,0,1-1.65-.48,2.71,2.71,0,0,1-.6-2V111.31a2.7,2.7,0,0,1,.6-2,2.39,2.39,0,0,1,1.65-.48m0,24.34a6.55,6.55,0,0,0,4.66-1.65,6.94,6.94,0,0,0,2-5.26V111.31a6.94,6.94,0,0,0-2-5.26,7.41,7.41,0,0,0-9.32,0,6.94,6.94,0,0,0-2,5.26v14.94a6.94,6.94,0,0,0,2,5.26A6.55,6.55,0,0,0,365.48,133.16Z"/><polygon class="cls-2" points="387.21 109.14 382.71 109.14 382.71 132.84 378.29 132.84 378.29 109.14 373.8 109.14 373.8 104.72 387.21 104.72 387.21 109.14"/><polygon class="cls-2" points="393.6 109.14 393.6 116.21 398.58 116.21 398.58 120.63 393.6 120.63 393.6 128.42 400.83 128.42 400.83 132.84 389.18 132.84 389.18 104.72 400.83 104.72 400.83 109.14 393.6 109.14"/><path class="cls-2" d="M409.46,133.16a6.55,6.55,0,0,0,4.66-1.65,6.94,6.94,0,0,0,2-5.26v-3.61h-4.42v3.61a2.76,2.76,0,0,1-.56,2,2.45,2.45,0,0,1-1.69.48,2.39,2.39,0,0,1-1.65-.48,2.71,2.71,0,0,1-.6-2V111.31a2.7,2.7,0,0,1,.6-2,2.39,2.39,0,0,1,1.65-.48,2.45,2.45,0,0,1,1.69.48,2.76,2.76,0,0,1,.56,2v2.49h4.42v-2.49a6.94,6.94,0,0,0-2-5.26,6.55,6.55,0,0,0-4.66-1.65,6.74,6.74,0,0,0-4.66,1.65,7.11,7.11,0,0,0-2,5.26v14.94a7.11,7.11,0,0,0,2,5.26,6.74,6.74,0,0,0,4.66,1.65"/><polygon class="cls-2" points="431.03 109.14 426.53 109.14 426.53 132.84 422.11 132.84 422.11 109.14 417.62 109.14 417.62 104.72 431.03 104.72 431.03 109.14"/><rect class="cls-2" x="433" y="104.72" width="4.42" height="28.12"/><path class="cls-2" d="M446.94,108.82a2.28,2.28,0,0,1,1.64.48,2.62,2.62,0,0,1,.6,2v14.94a2.62,2.62,0,0,1-.6,2,2.28,2.28,0,0,1-1.64.48,2.39,2.39,0,0,1-1.65-.48,2.71,2.71,0,0,1-.6-2V111.31a2.7,2.7,0,0,1,.6-2,2.39,2.39,0,0,1,1.65-.48m0,24.34a6.53,6.53,0,0,0,4.65-1.65,6.94,6.94,0,0,0,2-5.26V111.31a6.94,6.94,0,0,0-2-5.26,7.39,7.39,0,0,0-9.31,0,6.94,6.94,0,0,0-2,5.26v14.94a6.94,6.94,0,0,0,2,5.26A6.54,6.54,0,0,0,446.94,133.16Z"/><polygon class="cls-2" points="470.03 132.84 467.46 132.84 460.71 118.58 460.71 132.84 456.29 132.84 456.29 104.72 458.86 104.72 465.61 118.94 465.61 104.72 470.03 104.72 470.03 132.84"/></g></g></svg>